SplineFontDB: 3.0
FontName: FrankRuehlCLM-Bold
FullName: Frank Ruehl CLM Bold
FamilyName: Frank Ruehl CLM
Weight: Bold
Copyright: Copyright (c) 2002-2011 by Maxim Iorsh (iorsh@users.sourceforge.net).\nDistributed under the terms of GNU General Public License version 2(http://www.gnu.org/licenses/gpl.html). \nLatin glyphs, digits and punctuation: portions of Century Schoolbook L Bold ver. 1.06 Copyright (URW)++,Copyright 1999 by (URW)++ Design & Development.\nAll rights reserved.
UComments: "2002-7-16: Created." 
Version: 0.121
ItalicAngle: 0
UnderlinePosition: -140
UnderlineWidth: 70
Ascent: 960
Descent: 240
LayerCount: 2
Layer: 0 0 "Back"  1
Layer: 1 0 "Fore"  0
NeedsXUIDChange: 1
FSType: 0
OS2Version: 0
OS2_WeightWidthSlopeOnly: 0
OS2_UseTypoMetrics: 0
CreationTime: 1163025782
ModificationTime: 1324323656
PfmFamily: 17
TTFWeight: 700
TTFWidth: 5
LineGap: 90
VLineGap: 0
Panose: 2 0 6 3 0 0 0 0 0 0
OS2TypoAscent: 0
OS2TypoAOffset: 1
OS2TypoDescent: 0
OS2TypoDOffset: 1
OS2TypoLinegap: 0
OS2WinAscent: 0
OS2WinAOffset: 1
OS2WinDescent: 0
OS2WinDOffset: 1
HheadAscent: 0
HheadAOffset: 1
HheadDescent: 0
HheadDOffset: 1
OS2Vendor: 'CLM '
Lookup: 4 8 0 "'hlig' Historic Ligatures in Hebrew lookup 0"  {"'hlig' Historic Ligatures in Hebrew lookup 0 subtable"  } ['hlig' ('hebr' <'dflt' > ) ]
Lookup: 6 1 0 "ccmpAltAyin"  {"ccmpAltAyin subtable"  } ['ccmp' ('hebr' <'dflt' > ) ]
Lookup: 1 1 0 "Single Substitution lookup 12"  {"Single Substitution lookup 12 subtable"  } []
Lookup: 6 1 0 "ccmpVavHolam"  {"ccmpVavHolam subtable"  } ['ccmp' ('hebr' <'dflt' > ) ]
Lookup: 1 1 0 "salt MiscSAlt"  {"MiscSAlt"  } ['salt' ('hebr' <'dflt' > ) ]
Lookup: 4 1 0 "ccmp AlephLamed2"  {"AlephLamed2"  } ['ccmp' ('hebr' <'JUD ' > ) ]
Lookup: 4 1 0 "dlig AlephLamed"  {"AlephLamed"  } ['dlig' ('hebr' <'dflt' > ) ]
Lookup: 4 1 0 "ccmp CustomPrecomp"  {"CustomPrecomp"  } ['ccmp' ('hebr' <'dflt' > ) ]
Lookup: 1 1 0 "jalt WideLetters"  {"WideLetters"  } ['jalt' ('hebr' <'dflt' > ) ]

StartChar: exclam
Encoding: 33 33 0
Width: 326
VWidth: 1000
Flags: HMW
HStem: -61.598 22.66
LayerCount: 2
Back
SplineSet
177 228 m 1
 124 228 l 1
 118 373 111 416 71 548 c 0
 62 578 57 611 57 637 c 0
 57 700 92 737 151 737 c 0
 209 737 244 700 244 637 c 0
 244 598 242 589 210 479 c 0
 191 414 181 337 177 228 c 1
150 172 m 0
 202 172 244 130 244 79 c 0
 244 27 202 -15 149 -15 c 0
 99 -15 57 28 57 79 c 0
 57 130 99 172 150 172 c 0
EndSplineSet
Fore
SplineSet
82.6074 129.055 m 6
 149.442 228.45 l 6
 160.704 245.198 165.56 245.68 177.146 228.45 c 6
 243.98 129.055 l 6
 253.341 115.136 253.526 105.14 243.98 90.9453 c 6
 177.146 -8.4502 l 6
 165.807 -25.3135 161.028 -25.6797 149.442 -8.4502 c 6
 82.6074 90.9453 l 6
 72.1914 106.436 72.4766 113.989 82.6074 129.055 c 6
196.4 323.862 m 2
 249.167 566.141 l 2
 254.433 590.315 256.712 615.658 256.712 632.5 c 0
 256.712 702.9 226.352 737 164.116 737 c 0
 101.877 737 70 701.8 70 633.601 c 0
 70 616.44 72.2568 588.264 77.2432 565.591 c 2
 130.393 323.873 l 2
 132.452 314.509 135.903 308.241 142.717 300.4 c 0
 161.196 279.134 166.037 278.767 184.296 300.4 c 0
 191.611 309.068 194.558 315.4 196.4 323.862 c 2
EndSplineSet
EndChar

StartChar: quotedbl
Encoding: 34 34 1
Width: 479
VWidth: 1000
Flags: HMW
LayerCount: 2
Fore
SplineSet
50 378 m 5
 67.4492 624.399 l 6
 68.21 632.1 70.332 638.7 72.4541 645.3 c 4
 84.4795 682.7 120.372 703.6 170.135 703.6 c 4
 221.614 703.6 244.421 683.8 232.041 645.3 c 4
 229.92 638.7 227.444 631 223.606 624.399 c 6
 82.6025 378 l 5
 50 378 l 5
277.36 378 m 5
 294.812 624.399 l 6
 295.573 632.1 297.696 638.7 299.816 645.3 c 4
 311.843 682.7 349.452 703.6 399.214 703.6 c 4
 448.979 703.6 473.147 682.7 461.475 646.399 c 4
 459 638.7 455.162 632.1 450.969 624.399 c 6
 309.966 378 l 5
 277.36 378 l 5
EndSplineSet
EndChar

StartChar: numbersign
Encoding: 35 35 2
Width: 574
VWidth: 1000
Flags: MW
HStem: 0 20 220 83<41 135 237 311 413 507> 411 83<67 163 264 338 440 533>
LayerCount: 2
Fore
SplineSet
135 220 m 1
 41 220 l 1
 41 303 l 1
 147 303 l 1
 163 411 l 1
 67 411 l 1
 67 494 l 1
 174 494 l 1
 204 700 l 1
 294 700 l 1
 264 494 l 1
 350 494 l 1
 379 700 l 1
 469 700 l 1
 440 494 l 1
 533 494 l 1
 533 411 l 1
 428 411 l 1
 413 303 l 1
 507 303 l 1
 507 220 l 1
 401 220 l 1
 369 0 l 1
 279 0 l 1
 311 220 l 1
 225 220 l 1
 193 0 l 1
 103 0 l 1
 135 220 l 1
253 411 m 1
 237 303 l 1
 322 303 l 1
 338 411 l 1
 253 411 l 1
EndSplineSet
EndChar

StartChar: dollar
Encoding: 36 36 3
Width: 574
VWidth: 1000
Flags: W
VStem: 25 125<74.9675 187.582> 45 120<433 582.94> 261 58<-137 -14 -14 -14 44 261 451 645 645 645 700 801> 398 140<514.931 626.167> 424 125<148.5 176.5>
LayerCount: 2
Fore
SplineSet
319 433 m 1x70
 345 425 l 2
 489 381 549 318 549 211 c 0
 549 86 466 5 319 -12 c 1
 319 -137 l 1
 261 -137 l 1
 261 -14 l 1
 238 -12 224 -11 206 -7 c 0
 90 16 25 73 25 153 c 0
 25 208 61 247 111 247 c 0
 157 247 192 216 192 174 c 0
 192 147 178 117 157 100 c 0
 152 95 150 93 150 89 c 0xa8
 150 67 202 45 261 41 c 1
 261 279 l 1
 227 290 l 2
 100 329 45 386 45 480 c 0
 45 565 91 638 168 675 c 0
 194 688 213 693 261 699 c 1
 261 801 l 1
 319 801 l 1
 319 700 l 1
 453 691 538 636 538 557 c 0
 538 505 502 467 451 467 c 0
 408 467 375 498 375 538 c 0
 375 556 381 574 392 592 c 0
 397 599 398 602 398 607 c 0
 398 627 370 641 319 646 c 1
 319 433 l 1x70
261 451 m 1
 261 645 l 1
 197 634 165 603 165 549 c 0x60
 165 502 192 472 248 455 c 2
 261 451 l 1
319 261 m 1
 319 44 l 1
 339 46 350 49 362 54 c 0
 400 69 424 107 424 149 c 0x28
 424 204 394 238 329 258 c 2
 319 261 l 1
EndSplineSet
EndChar

StartChar: percent
Encoding: 37 37 4
Width: 833
VWidth: 1000
Flags: W
HStem: 0 21G<186 283.468> 14 76.4004<593.588 689.096> 315 76.6<145.653 241.207> 325.6 81.4<670.222 751.133> 573 68<370 514.276> 688 20G<230.5 272.5> 702 20G<583 686>
VStem: 17 124.9<394.364 515.949> 309.1 60.9<471.007 572.878> 466 124.2<94.289 213.972> 759.8 61.2<172.835 318.899>
LayerCount: 2
Back
SplineSet
651 722 m 1
 237 0 l 1
 186 0 l 1
 535 612 l 1
 493 598 469 594 433 594 c 0
 408 594 393 596 367 603 c 1
 369 589 370 581 370 573 c 0
 370 515 342 443 299 392 c 0
 255 339 207 315 150 315 c 0
 73 315 17 369 17 443 c 0
 17 512 63 603 123 655 c 0
 163 689 209 708 252 708 c 0
 293 708 320 694 346 660 c 1
 373 647 401 641 438 641 c 0
 512 641 561 664 605 722 c 1
 651 722 l 1
266 658 m 1
 229 645 217 633 181 569 c 0
 137 492 121 451 121 416 c 0
 121 384 142 362 172 362 c 0
 248 362 330 476 330 581 c 0
 330 595 328 606 324 620 c 1
 298 629 283 639 266 658 c 1
699 407 m 0
 770 407 821 355 821 283 c 0
 821 223 791 147 745 89 c 0
 707 42 654 14 601 14 c 0
 523 14 466 67 466 140 c 0
 466 197 493 266 535 319 c 0
 582 376 639 407 699 407 c 0
724 355 m 0
 696 355 671 334 641 285 c 0
 590 202 569 151 569 114 c 0
 569 84 592 61 620 61 c 0
 697 61 781 175 781 279 c 0
 781 321 756 355 724 355 c 0
EndSplineSet
Fore
SplineSet
686 722 m 5x0be0
 272 0 l 5
 186 0 l 5
 516.181 579 l 5
 476 566 406 565 370 573 c 5
 370 515 342 443 299 392 c 4
 255 339 207 315 150 315 c 4
 73 315 17 369 17 443 c 4
 17 512 63 603 123 655 c 4
 163 689 209 708 252 708 c 4xade0
 293 708 320 694 346 660 c 5
 373 647 401 641 438 641 c 4
 512 641 561 664 605 722 c 5
 686 722 l 5x0be0
257.9 628.4 m 5
 228.3 618 218.7 608.4 189.9 557.2 c 4
 154.7 495.6 141.9 462.8 141.9 434.8 c 4
 141.9 409.2 158.7 391.6 182.7 391.6 c 4
 243.5 391.6 309.1 482.8 309.1 566.8 c 4
 309.1 578 307.5 586.8 304.3 598 c 5
 283.5 605.2 271.5 613.2 257.9 628.4 c 5
699 407 m 4x59e0
 770 407 821 355 821 283 c 4
 821 223 791 147 745 89 c 4
 707 42 654 14 601 14 c 4
 523 14 466 67 466 140 c 4
 466 197 493 266 535 319 c 4
 582 376 639 407 699 407 c 4x59e0
714.2 325.6 m 4
 691.8 325.6 671.8 308.8 647.8 269.6 c 4
 607 203.2 590.2 162.4 590.2 132.8 c 4
 590.2 108.8 608.6 90.4004 631 90.4004 c 4
 692.6 90.4004 759.8 181.6 759.8 264.8 c 4
 759.8 298.4 739.8 325.6 714.2 325.6 c 4
EndSplineSet
EndChar

StartChar: ampersand
Encoding: 38 38 5
Width: 852
VWidth: 1000
Flags: W
HStem: -16 83<243.625 407.011> -15 108<607.361 734.661> 685 52<392 434.5>
VStem: 39 170<164.967 274.752> 202 140<518.522 642.572> 490 110<572.5 616.5>
LayerCount: 2
Fore
SplineSet
797 408 m 1xac
 797 354 l 1
 726 352 703 336 664 260 c 1
 637 211 629 197 601 159 c 1
 635 114 667 93 703 93 c 0
 737 93 760 122 772 177 c 1
 822 166 l 1
 818 129 809 103 792 74 c 0
 754 11 708 -15 638 -15 c 0x6c
 576 -15 524 7 480 51 c 1
 417 6 349 -16 269 -16 c 0
 194 -16 132 6 93 47 c 0
 58 84 39 130 39 179 c 0xb4
 39 254 81 319 158 365 c 0
 183 380 203 390 241 407 c 1
 212 467 202 503 202 551 c 0
 202 600 225 651 261 684 c 0
 300 719 353 737 418 737 c 0
 527 737 600 679 600 594 c 0
 600 551 579 510 543 481 c 0
 511 456 486 442 425 417 c 1
 476 330 541 232 565 206 c 1
 599 247 613 277 613 305 c 0
 613 339 587 353 524 354 c 1
 524 408 l 1
 797 408 l 1xac
265 357 m 1
 228 334 209 301 209 258 c 0
 209 231 217 201 232 171 c 0
 266 102 314 67 374 67 c 0xb4
 399 67 416 72 440 89 c 1
 366 179 308 268 265 357 c 1
397 464 m 1
 406 468 408 469 413 471 c 0
 463 496 490 538 490 589 c 0
 490 644 457 685 412 685 c 0
 372 685 342 652 342 610 c 0x2c
 342 572 357 533 397 464 c 1
EndSplineSet
EndChar

StartChar: quotesingle
Encoding: 39 39 6
Width: 252
VWidth: 1000
Flags: HMW
LayerCount: 2
Fore
SplineSet
50 378 m 1
 67.4502 624.399 l 2
 68.2109 632.1 70.332 638.7 72.4541 645.3 c 0
 84.4795 682.7 120.372 703.6 170.136 703.6 c 4
 221.615 703.6 244.421 683.8 232.041 645.3 c 0
 229.92 638.7 227.443 631 223.606 624.399 c 2
 82.6025 378 l 1
 50 378 l 1
EndSplineSet
EndChar

StartChar: parenleft
Encoding: 40 40 7
Width: 389
VWidth: 1000
Flags: MW
HStem: 717 20<338 338>
VStem: 72 125<257 358>
LayerCount: 2
Fore
SplineSet
338 -68 m 1
 338 -118 l 1
 265 -80 220 -43 173 17 c 0
 107 101 72 204 72 310 c 0
 72 424 113 533 188 621 c 0
 233 673 271 702 338 737 c 1
 338 687 l 1
 284 649 259 618 236 558 c 0
 210 493 197 407 197 309 c 0
 197 201 214 108 244 41 c 0
 267 -7 289 -34 338 -68 c 1
EndSplineSet
EndChar

StartChar: parenright
Encoding: 41 41 8
Width: 389
VWidth: 1000
Flags: MW
HStem: 717 20<50 50>
VStem: 191 125<261 362>
LayerCount: 2
Fore
SplineSet
50 687 m 1
 50 737 l 1
 123 699 168 662 215 602 c 0
 281 518 316 415 316 309 c 0
 316 195 275 86 200 -2 c 0
 155 -54 117 -83 50 -118 c 1
 50 -68 l 1
 104 -30 129 1 152 61 c 0
 178 126 191 212 191 310 c 0
 191 418 174 511 144 578 c 0
 121 626 99 653 50 687 c 1
EndSplineSet
EndChar

StartChar: asterisk
Encoding: 42 42 9
Width: 500
VWidth: 1000
Flags: MW
HStem: 717 20<238 264.5>
VStem: 239 25<476 495 539 558>
LayerCount: 2
Fore
SplineSet
239 495 m 1
 223 485 l 2
 194 468 186 459 159 419 c 0
 144 396 125 384 103 384 c 0
 77 384 56 405 56 430 c 0
 56 451 69 470 89 479 c 0
 102 484 105 485 144 487 c 0
 169 489 189 495 210 507 c 2
 226 517 l 1
 210 526 l 2
 179 543 171 545 120 548 c 0
 81 551 56 573 56 604 c 0
 56 629 77 650 104 650 c 0
 117 650 133 644 144 634 c 0
 152 626 152 626 172 596 c 0
 187 575 200 562 223 549 c 2
 239 539 l 1
 239 558 l 2
 239 590 237 597 213 647 c 0
 206 660 203 673 203 684 c 0
 203 713 225 737 251 737 c 0
 278 737 300 713 300 683 c 0
 300 669 299 665 280 625 c 0
 268 602 264 583 264 558 c 2
 264 539 l 1
 280 549 l 2
 310 567 316 573 344 615 c 0
 360 639 378 650 400 650 c 0
 426 650 447 630 447 604 c 0
 447 583 434 565 414 555 c 0
 402 550 399 550 359 546 c 0
 333 545 316 539 293 526 c 2
 277 517 l 1
 293 508 l 2
 324 491 333 489 382 486 c 0
 421 483 447 460 447 429 c 0
 447 404 427 385 402 385 c 0
 375 385 364 394 331 439 c 0
 317 459 301 473 280 485 c 2
 264 495 l 1
 264 476 l 2
 264 444 266 436 289 387 c 0
 296 374 299 361 299 351 c 0
 299 321 278 297 251 297 c 0
 225 297 203 321 203 350 c 0
 203 365 205 370 223 409 c 0
 235 432 239 450 239 476 c 2
 239 495 l 1
EndSplineSet
EndChar

StartChar: plus
Encoding: 43 43 10
Width: 606
VWidth: 1000
Flags: MW
HStem: 0 20 195 115<51 246 361 555>
VStem: 246 115<0 195 310 505>
LayerCount: 2
Fore
SplineSet
246 195 m 1
 51 195 l 1
 51 310 l 1
 246 310 l 1
 246 505 l 1
 361 505 l 1
 361 310 l 1
 555 310 l 1
 555 195 l 1
 361 195 l 1
 361 0 l 1
 246 0 l 1
 246 195 l 1
EndSplineSet
Substitution2: "MiscSAlt" uniFB29
EndChar

StartChar: comma
Encoding: 44 44 11
Width: 329
VWidth: 1000
Flags: W
VStem: 99.0059 40.5<-152.225 -142.5>
LayerCount: 2
Back
SplineSet
67 -186 m 1
 40 -145 l 1
 102 -102 139 -54 139 -16 c 0
 139 -12 138 -10 135 -10 c 2
 131 -10 l 2
 129 -11 127 -11 123 -11 c 0
 75 -11 39 26 39 75 c 0
 39 130 81 173 135 173 c 0
 195 173 236 124 236 52 c 0
 236 -37 178 -119 67 -186 c 1
EndSplineSet
Fore
SplineSet
89.0801 91.5 m 2
 76.7861 106.506 77.1621 113.873 89.0801 128.5 c 2
 167.71 225 l 2
 180.959 241.261 186.672 241.728 200.302 225 c 2
 275.536 128.002 l 2
 286.266 114.168 287.024 106.519 278.623 92.3359 c 2
 139.506 -142.5 l 2
 122.489 -171.225 90.9492 -158.61 99.0059 -126 c 2
 133.224 12.5 l 2
 136.396 25.9082 135.707 34.6006 128.006 44 c 2
 89.0801 91.5 l 2
EndSplineSet
EndChar

StartChar: hyphen
Encoding: 45 45 12
Width: 422
VWidth: 1000
Flags: W
HStem: 224 149<60.994 355.444>
VStem: 35.457 345.576
LayerCount: 2
Back
SplineSet
42 310 m 5
 291 310 l 5
 291 180 l 5
 42 180 l 5
 42 310 l 5
42 310 m 1
 291 310 l 1
 291 180 l 1
 42 180 l 1
 42 310 l 1
EndSplineSet
Fore
SplineSet
381.033 353 m 6
 352.797 239 l 6
 350.107 228.95 348.374 224 333.783 224 c 6
 50.3857 224 l 2
 29.6523 224 31.6006 228.789 35.457 244 c 2
 63.6357 358 l 2
 66.21 368.156 67.9209 373 82.4375 373 c 2
 366.386 373 l 6
 387.328 373 385.073 368.1 381.033 353 c 6
EndSplineSet
PairPos2: "'kern' Horizontal Kerning in Hebrew lookup 1 subtable" uniE804 dx=20 dy=0 dh=20 dv=0 dx=0 dy=0 dh=0 dv=0
PairPos2: "'kern' Horizontal Kerning in Hebrew lookup 1 subtable" uniE803 dx=5 dy=0 dh=5 dv=0 dx=0 dy=0 dh=0 dv=0
PairPos2: "'kern' Horizontal Kerning in Hebrew lookup 1 subtable" uniE802 dx=5 dy=0 dh=5 dv=0 dx=0 dy=0 dh=0 dv=0
PairPos2: "'kern' Horizontal Kerning in Hebrew lookup 1 subtable" uniE801 dx=40 dy=0 dh=40 dv=0 dx=0 dy=0 dh=0 dv=0
PairPos2: "'kern' Horizontal Kerning in Hebrew lookup 1 subtable" uniFB1D dx=20 dy=0 dh=20 dv=0 dx=0 dy=0 dh=0 dv=0
PairPos2: "'kern' Horizontal Kerning in Hebrew lookup 1 subtable" uniFB42 dx=-5 dy=0 dh=-5 dv=0 dx=0 dy=0 dh=0 dv=0
PairPos2: "'kern' Horizontal Kerning in Hebrew lookup 1 subtable" uniFB3D dx=25 dy=0 dh=25 dv=0 dx=0 dy=0 dh=0 dv=0
PairPos2: "'kern' Horizontal Kerning in Hebrew lookup 1 subtable" uniFB37 dx=20 dy=0 dh=20 dv=0 dx=0 dy=0 dh=0 dv=0
PairPos2: "'kern' Horizontal Kerning in Hebrew lookup 1 subtable" afii57718 dx=20 dy=0 dh=20 dv=0 dx=0 dy=0 dh=0 dv=0
PairPos2: "'kern' Horizontal Kerning in Hebrew lookup 1 subtable" afii57705 dx=20 dy=0 dh=20 dv=0 dx=0 dy=0 dh=0 dv=0
PairPos2: "'kern' Horizontal Kerning in Hebrew lookup 1 subtable" afii57717 dx=20 dy=0 dh=20 dv=0 dx=0 dy=0 dh=0 dv=0
PairPos2: "'kern' Horizontal Kerning in Hebrew lookup 1 subtable" afii57716 dx=40 dy=0 dh=40 dv=0 dx=0 dy=0 dh=0 dv=0
PairPos2: "'kern' Horizontal Kerning in Hebrew lookup 1 subtable" uniFB4A dx=45 dy=0 dh=45 dv=0 dx=0 dy=0 dh=0 dv=0
PairPos2: "'kern' Horizontal Kerning in Hebrew lookup 1 subtable" uniFB28 dx=45 dy=0 dh=45 dv=0 dx=0 dy=0 dh=0 dv=0
PairPos2: "'kern' Horizontal Kerning in Hebrew lookup 1 subtable" afii57690 dx=45 dy=0 dh=45 dv=0 dx=0 dy=0 dh=0 dv=0
PairPos2: "'kern' Horizontal Kerning in Hebrew lookup 1 subtable" uniFB48 dx=45 dy=0 dh=45 dv=0 dx=0 dy=0 dh=0 dv=0
PairPos2: "'kern' Horizontal Kerning in Hebrew lookup 1 subtable" afii57688 dx=45 dy=0 dh=45 dv=0 dx=0 dy=0 dh=0 dv=0
PairPos2: "'kern' Horizontal Kerning in Hebrew lookup 1 subtable" uniFB47 dx=40 dy=0 dh=40 dv=0 dx=0 dy=0 dh=0 dv=0
PairPos2: "'kern' Horizontal Kerning in Hebrew lookup 1 subtable" afii57687 dx=40 dy=0 dh=40 dv=0 dx=0 dy=0 dh=0 dv=0
PairPos2: "'kern' Horizontal Kerning in Hebrew lookup 1 subtable" uniFB46 dx=10 dy=0 dh=10 dv=0 dx=0 dy=0 dh=0 dv=0
PairPos2: "'kern' Horizontal Kerning in Hebrew lookup 1 subtable" afii57686 dx=10 dy=0 dh=10 dv=0 dx=0 dy=0 dh=0 dv=0
PairPos2: "'kern' Horizontal Kerning in Hebrew lookup 1 subtable" uniFB4E dx=45 dy=0 dh=45 dv=0 dx=0 dy=0 dh=0 dv=0
PairPos2: "'kern' Horizontal Kerning in Hebrew lookup 1 subtable" uniFB44 dx=45 dy=0 dh=45 dv=0 dx=0 dy=0 dh=0 dv=0
PairPos2: "'kern' Horizontal Kerning in Hebrew lookup 1 subtable" afii57684 dx=45 dy=0 dh=45 dv=0 dx=0 dy=0 dh=0 dv=0
PairPos2: "'kern' Horizontal Kerning in Hebrew lookup 1 subtable" uniFB43 dx=25 dy=0 dh=25 dv=0 dx=0 dy=0 dh=0 dv=0
PairPos2: "'kern' Horizontal Kerning in Hebrew lookup 1 subtable" afii57683 dx=25 dy=0 dh=25 dv=0 dx=0 dy=0 dh=0 dv=0
PairPos2: "'kern' Horizontal Kerning in Hebrew lookup 1 subtable" afii57682 dx=-5 dy=0 dh=-5 dv=0 dx=0 dy=0 dh=0 dv=0
PairPos2: "'kern' Horizontal Kerning in Hebrew lookup 1 subtable" uniFB41 dx=60 dy=0 dh=60 dv=0 dx=0 dy=0 dh=0 dv=0
PairPos2: "'kern' Horizontal Kerning in Hebrew lookup 1 subtable" afii57681 dx=60 dy=0 dh=60 dv=0 dx=0 dy=0 dh=0 dv=0
PairPos2: "'kern' Horizontal Kerning in Hebrew lookup 1 subtable" uniFB3E dx=45 dy=0 dh=45 dv=0 dx=0 dy=0 dh=0 dv=0
PairPos2: "'kern' Horizontal Kerning in Hebrew lookup 1 subtable" afii57678 dx=45 dy=0 dh=45 dv=0 dx=0 dy=0 dh=0 dv=0
PairPos2: "'kern' Horizontal Kerning in Hebrew lookup 1 subtable" uniFB26 dx=25 dy=0 dh=25 dv=0 dx=0 dy=0 dh=0 dv=0
PairPos2: "'kern' Horizontal Kerning in Hebrew lookup 1 subtable" afii57677 dx=25 dy=0 dh=25 dv=0 dx=0 dy=0 dh=0 dv=0
PairPos2: "'kern' Horizontal Kerning in Hebrew lookup 1 subtable" uniFB3C dx=35 dy=0 dh=35 dv=0 dx=0 dy=0 dh=0 dv=0
PairPos2: "'kern' Horizontal Kerning in Hebrew lookup 1 subtable" uniFB25 dx=35 dy=0 dh=35 dv=0 dx=0 dy=0 dh=0 dv=0
PairPos2: "'kern' Horizontal Kerning in Hebrew lookup 1 subtable" afii57676 dx=35 dy=0 dh=35 dv=0 dx=0 dy=0 dh=0 dv=0
PairPos2: "'kern' Horizontal Kerning in Hebrew lookup 1 subtable" uniFB4D dx=50 dy=0 dh=50 dv=0 dx=0 dy=0 dh=0 dv=0
PairPos2: "'kern' Horizontal Kerning in Hebrew lookup 1 subtable" uniFB3B dx=50 dy=0 dh=50 dv=0 dx=0 dy=0 dh=0 dv=0
PairPos2: "'kern' Horizontal Kerning in Hebrew lookup 1 subtable" uniFB24 dx=50 dy=0 dh=50 dv=0 dx=0 dy=0 dh=0 dv=0
PairPos2: "'kern' Horizontal Kerning in Hebrew lookup 1 subtable" afii57675 dx=50 dy=0 dh=50 dv=0 dx=0 dy=0 dh=0 dv=0
PairPos2: "'kern' Horizontal Kerning in Hebrew lookup 1 subtable" uniFB3A dx=5 dy=0 dh=5 dv=0 dx=0 dy=0 dh=0 dv=0
PairPos2: "'kern' Horizontal Kerning in Hebrew lookup 1 subtable" afii57674 dx=5 dy=0 dh=5 dv=0 dx=0 dy=0 dh=0 dv=0
PairPos2: "'kern' Horizontal Kerning in Hebrew lookup 1 subtable" uniFB39 dx=20 dy=0 dh=20 dv=0 dx=0 dy=0 dh=0 dv=0
PairPos2: "'kern' Horizontal Kerning in Hebrew lookup 1 subtable" afii57673 dx=20 dy=0 dh=20 dv=0 dx=0 dy=0 dh=0 dv=0
PairPos2: "'kern' Horizontal Kerning in Hebrew lookup 1 subtable" uniFB38 dx=60 dy=0 dh=60 dv=0 dx=0 dy=0 dh=0 dv=0
PairPos2: "'kern' Horizontal Kerning in Hebrew lookup 1 subtable" afii57672 dx=60 dy=0 dh=60 dv=0 dx=0 dy=0 dh=0 dv=0
PairPos2: "'kern' Horizontal Kerning in Hebrew lookup 1 subtable" afii57671 dx=20 dy=0 dh=20 dv=0 dx=0 dy=0 dh=0 dv=0
PairPos2: "'kern' Horizontal Kerning in Hebrew lookup 1 subtable" afii57723 dx=40 dy=0 dh=40 dv=0 dx=0 dy=0 dh=0 dv=0
PairPos2: "'kern' Horizontal Kerning in Hebrew lookup 1 subtable" afii57700 dx=40 dy=0 dh=40 dv=0 dx=0 dy=0 dh=0 dv=0
PairPos2: "'kern' Horizontal Kerning in Hebrew lookup 1 subtable" afii57669 dx=40 dy=0 dh=40 dv=0 dx=0 dy=0 dh=0 dv=0
PairPos2: "'kern' Horizontal Kerning in Hebrew lookup 1 subtable" uniFB34 dx=5 dy=0 dh=5 dv=0 dx=0 dy=0 dh=0 dv=0
PairPos2: "'kern' Horizontal Kerning in Hebrew lookup 1 subtable" uniFB23 dx=5 dy=0 dh=5 dv=0 dx=0 dy=0 dh=0 dv=0
PairPos2: "'kern' Horizontal Kerning in Hebrew lookup 1 subtable" afii57668 dx=5 dy=0 dh=5 dv=0 dx=0 dy=0 dh=0 dv=0
PairPos2: "'kern' Horizontal Kerning in Hebrew lookup 1 subtable" uniFB33 dx=15 dy=0 dh=15 dv=0 dx=0 dy=0 dh=0 dv=0
PairPos2: "'kern' Horizontal Kerning in Hebrew lookup 1 subtable" uniFB22 dx=15 dy=0 dh=15 dv=0 dx=0 dy=0 dh=0 dv=0
PairPos2: "'kern' Horizontal Kerning in Hebrew lookup 1 subtable" afii57667 dx=15 dy=0 dh=15 dv=0 dx=0 dy=0 dh=0 dv=0
PairPos2: "'kern' Horizontal Kerning in Hebrew lookup 1 subtable" uniFB32 dx=20 dy=0 dh=20 dv=0 dx=0 dy=0 dh=0 dv=0
PairPos2: "'kern' Horizontal Kerning in Hebrew lookup 1 subtable" afii57666 dx=20 dy=0 dh=20 dv=0 dx=0 dy=0 dh=0 dv=0
PairPos2: "'kern' Horizontal Kerning in Hebrew lookup 1 subtable" uniFB4C dx=20 dy=0 dh=20 dv=0 dx=0 dy=0 dh=0 dv=0
PairPos2: "'kern' Horizontal Kerning in Hebrew lookup 1 subtable" uniFB31 dx=20 dy=0 dh=20 dv=0 dx=0 dy=0 dh=0 dv=0
PairPos2: "'kern' Horizontal Kerning in Hebrew lookup 1 subtable" afii57665 dx=20 dy=0 dh=20 dv=0 dx=0 dy=0 dh=0 dv=0
EndChar

StartChar: period
Encoding: 46 46 13
Width: 332
VWidth: 1000
Flags: HMW
HStem: -15 20
LayerCount: 2
Back
SplineSet
139 173 m 0
 191 173 233 131 233 79 c 0
 233 27 191 -15 138 -15 c 0
 87 -15 45 28 45 79 c 0
 45 131 87 173 139 173 c 0
EndSplineSet
Fore
SplineSet
89.0645 128.5 m 2
 167.694 225 l 2
 180.943 241.261 186.656 241.728 200.286 225 c 2
 278.916 128.5 l 2
 289.929 114.986 290.146 105.281 278.916 91.5 c 2
 200.286 -5 l 2
 186.946 -21.3721 181.324 -21.7275 167.694 -5 c 2
 89.0645 91.5 l 2
 76.8105 106.539 77.1465 113.873 89.0645 128.5 c 2
EndSplineSet
EndChar

StartChar: slash
Encoding: 47 47 14
Width: 278
VWidth: 1000
Flags: MW
HStem: -15 20 717 20<228 302 302 302>
LayerCount: 2
Fore
SplineSet
228 737 m 1
 302 737 l 1
 51 -15 l 1
 -23 -15 l 1
 228 737 l 1
EndSplineSet
EndChar

StartChar: zero
Encoding: 48 48 15
Width: 574
VWidth: 1000
Flags: MW
HStem: -14 52<270.5 303> 656 52<268.5 301>
VStem: 27 172<288 398> 372 174<294 401>
LayerCount: 2
Fore
SplineSet
287 708 m 4
 354 708 413 678 460 621 c 0
 519 547 546 460 546 342 c 0
 546 139 434 -14 287 -14 c 0
 137 -14 27 139 27 347 c 0
 27 555 137 708 287 708 c 4
286 656 m 0
 251 656 227 635 216 595 c 0
 207 561 199 449 199 347 c 0
 199 229 208 121 220 88 c 0
 232 56 255 38 286 38 c 0
 320 38 344 59 355 99 c 0
 364 133 372 243 372 345 c 0
 372 465 364 573 351 606 c 0
 340 638 316 656 286 656 c 0
EndSplineSet
EndChar

StartChar: one
Encoding: 49 49 16
Width: 574
VWidth: 1000
Flags: MW
HStem: 0 54<92 124 124 150.5 459 491> 688 20<336 371 371 371>
VStem: 214 157<144 499 499 540.5>
LayerCount: 2
Fore
SplineSet
371 708 m 5
 371 144 l 2
 371 81 371 77 378 69 c 0
 386 58 408 54 459 54 c 2
 491 54 l 1
 491 0 l 1
 92 0 l 1
 92 54 l 1
 124 54 l 2
 177 54 198 58 207 69 c 0
 214 77 214 82 214 144 c 2
 214 499 l 2
 214 582 214 582 125 583 c 2
 83 583 l 1
 83 639 l 1
 201 641 274 661 336 708 c 1
 371 708 l 5
EndSplineSet
EndChar

StartChar: two
Encoding: 50 50 17
Width: 574
VWidth: 1000
Flags: W
HStem: -4 20 0 150<175 368> 651 57<223 283>
VStem: 358 170<496.5 571>
LayerCount: 2
Fore
SplineSet
477 266 m 1x70
 531 266 l 1
 508 -4 l 1xb0
 478 -1 464 0 447 0 c 2
 71 0 l 2x70
 57 0 45 -1 19 -4 c 1xb0
 19 43 l 1
 69 115 108 161 220 279 c 0
 326 392 358 451 358 534 c 0
 358 608 318 651 248 651 c 0
 198 651 144 617 144 585 c 0
 144 577 149 571 160 566 c 0
 206 544 225 519 225 476 c 0
 225 424 192 391 140 391 c 0
 80 391 41 436 41 506 c 0
 41 620 146 708 282 708 c 4
 423 708 528 627 528 520 c 0
 528 473 508 420 474 375 c 0
 445 338 414 315 275 225 c 0
 236 199 210 180 175 150 c 1
 368 150 l 2
 431 151 433 151 443 158 c 0
 451 163 457 176 466 216 c 2
 477 266 l 1x70
EndSplineSet
EndChar

StartChar: three
Encoding: 51 51 18
Width: 574
VWidth: 1000
Flags: W
HStem: -14 52<164.944 310.652> 332 71<162.584 262.804> 338 54<197.558 320.993> 656 52<179.78 315.735>
VStem: 24 130<74.3064 190.25> 49 125<517 620.262> 350 162<445.392 619.087> 356 174<92.7696 290.319>
LayerCount: 2
Fore
SplineSet
351 368 m 1xb6
 404 361 428 354 456 338 c 0
 502 311 530 256 530 193 c 0
 530 129 500 68 454 36 c 0
 408 4 339 -14 266 -14 c 0
 122 -14 24 55 24 156 c 0
 24 212 61 251 114 251 c 0
 164 251 201 215 201 168 c 0
 201 140 194 127 164 98 c 0
 157 92 154 86 154 80 c 0
 154 59 198 38 240 38 c 0
 314 38 356 96 356 196 c 0
 356 290 325 338 263 338 c 0xb9
 259 338 243 336 213 333 c 0
 207 332 201 332 197 332 c 0
 176 332 161 348 161 370 c 0
 161 391 174 403 197 403 c 0xd9
 209 403 215 402 238 397 c 0
 254 394 265 392 273 392 c 0
 320 392 350 446 350 532 c 0
 350 610 313 656 250 656 c 0
 212 656 174 637 174 618 c 0
 174 614 176 611 181 606 c 0
 210 579 221 558 221 531 c 0
 221 484 188 452 140 452 c 0
 88 452 49 491 49 543 c 0
 49 581 70 623 102 652 c 0
 144 689 204 708 276 708 c 4
 418 708 512 637 512 531 c 0
 512 454 465 400 377 375 c 0
 370 373 363 371 351 368 c 1xb6
EndSplineSet
EndChar

StartChar: four
Encoding: 52 52 19
Width: 574
VWidth: 1000
Flags: MW
HStem: 0 54<195 206 206 228.5 525 536> 181 67<92 289 446 546> 688 20<383 452 452 452>
VStem: 289 157<144 181 248 498 498 498>
LayerCount: 2
Fore
SplineSet
446 248 m 1
 546 248 l 1
 546 181 l 1
 446 181 l 1
 446 144 l 2
 446 81 446 77 453 68 c 0
 461 59 484 54 525 54 c 2
 536 54 l 1
 536 0 l 1
 195 0 l 1
 195 54 l 1
 206 54 l 2
 251 54 274 58 282 68 c 0
 289 77 289 81 289 144 c 2
 289 181 l 1
 19 181 l 1
 19 255 l 1
 383 708 l 5
 452 708 l 1
 448 634 446 578 446 556 c 2
 446 248 l 1
289 248 m 1
 289 498 l 1
 92 248 l 1
 289 248 l 1
EndSplineSet
EndChar

StartChar: five
Encoding: 53 53 20
Width: 574
VWidth: 1000
Flags: MW
HStem: -14 57<211.5 274> 392 68<262.5 281.5> 536 172<263.5 324.5>
VStem: 31 115<67.6329 159.577> 357 178<168.5 283>
LayerCount: 2
Fore
SplineSet
157 551 m 1
 142 422 l 1
 208 452 239 460 286 460 c 0
 430 460 535 364 535 234 c 0
 535 87 423 -14 259 -14 c 0
 121 -14 31 51 31 151 c 0
 31 213 69 253 127 253 c 0
 178 253 212 220 212 171 c 0
 212 137 197 118 158 99 c 0
 149 94 146 91 146 85 c 0
 146 64 189 43 234 43 c 0
 314 43 357 108 357 229 c 0
 357 337 319 392 244 392 c 0
 203 392 163 379 133 354 c 1
 134 348 135 342 135 338 c 0
 135 316 116 298 94 298 c 0
 73 298 57 314 57 335 c 0
 57 351 61 358 83 380 c 1
 96 553 102 628 106 708 c 5
 168 695 218 691 301 691 c 0
 379 691 449 697 482 705 c 0
 488 707 494 708 498 708 c 0
 503 708 506 703 506 697 c 0
 506 675 491 638 472 613 c 0
 434 564 366 536 283 536 c 0
 244 536 204 541 157 551 c 1
EndSplineSet
EndChar

StartChar: six
Encoding: 54 54 21
Width: 574
VWidth: 1000
Flags: W
HStem: -14 47<266 319.5> 458 20<411 465.5> 656 52<300 346.5>
VStem: 29 179<148.821 478.972> 375 174<154.5 257> 377 153<537.284 645.44>
LayerCount: 2
Fore
SplineSet
202 361 m 1xf4
 244 409 284 427 348 427 c 0
 466 427 549 343 549 223 c 0xf8
 549 86 442 -14 295 -14 c 0
 213 -14 146 17 97 77 c 0
 50 135 29 206 29 306 c 0
 29 425 56 517 115 594 c 0
 173 671 247 708 342 708 c 4
 457 708 530 654 530 568 c 0
 530 513 494 478 437 478 c 0
 385 478 349 510 349 555 c 0
 349 575 356 597 369 614 c 0
 376 623 377 627 377 633 c 0
 377 647 359 656 334 656 c 0
 266 656 221 579 207 437 c 0
 205 418 202 373 202 361 c 1xf4
296 352 m 0
 258 354 227 327 216 284 c 0
 211 261 208 229 208 194 c 0
 208 91 239 33 293 33 c 0
 346 33 375 96 375 212 c 0
 375 302 348 350 296 352 c 0
EndSplineSet
EndChar

StartChar: seven
Encoding: 55 55 22
Width: 574
VWidth: 1000
Flags: HMW
HStem: -14 20 545 163<288 305>
LayerCount: 2
Fore
SplineSet
546 708 m 1
 546 666 l 1
 397 349 378 281 378 97 c 0
 378 25 342 -14 279 -14 c 0
 223 -14 187 25 187 84 c 0
 187 125 203 174 240 246 c 0
 245 256 287 323 367 447 c 1
 435 548 l 1
 351 546 307 545 303 545 c 0
 273 545 222 547 189 548 c 0
 182 549 176 549 171 549 c 0
 136 549 129 536 110 448 c 2
 100 403 l 1
 45 409 l 1
 79 708 l 1
 178 697 226 694 318 694 c 0
 421 694 483 698 546 708 c 1
EndSplineSet
EndChar

StartChar: eight
Encoding: 56 56 23
Width: 574
VWidth: 1000
Flags: W
HStem: -14 52<246.5 326> 656 52<256 320.5>
VStem: 27 130<126 192> 49 130<538 559.5> 396 125<530 577> 422 124<146.5 180.5>
LayerCount: 2
Fore
SplineSet
403 411 m 1xd8
 500 372 546 309 546 215 c 0
 546 78 437 -14 276 -14 c 0
 124 -14 27 55 27 163 c 0xe4
 27 221 54 267 104 293 c 0
 121 302 134 306 165 316 c 1
 86 358 49 416 49 495 c 0
 49 624 149 708 304 708 c 4
 433 708 521 645 521 553 c 0
 521 507 499 466 460 439 c 0
 446 429 431 422 403 411 c 1xd8
352 436 m 1
 354 438 l 2
 380 461 396 501 396 542 c 0
 396 612 354 656 287 656 c 0
 225 656 179 615 179 560 c 0xd8
 179 516 210 475 255 458 c 0
 274 451 306 442 347 432 c 1
 349 433 349 433 350 435 c 1
 352 436 l 1
219 289 m 1
 172 250 157 220 157 166 c 0
 157 86 206 38 287 38 c 0
 365 38 422 87 422 155 c 0xe4
 422 206 398 233 335 255 c 0
 310 263 261 277 219 289 c 1
EndSplineSet
EndChar

StartChar: nine
Encoding: 57 57 24
Width: 574
VWidth: 1000
Flags: W
HStem: -14 52<221 272> 263 75<166 322.424> 656 52<255 296>
VStem: 25 173<466 537.5> 45 153<43.3203 158.023> 365 180<212.704 537.017>
LayerCount: 2
Fore
SplineSet
369 329 m 1xec
 327 282 285 263 223 263 c 0
 109 263 25 350 25 468 c 0xf4
 25 607 130 708 275 708 c 0
 359 708 432 671 483 603 c 0
 525 546 545 477 545 386 c 0
 545 277 519 181 469 107 c 0
 417 28 334 -14 231 -14 c 0
 118 -14 45 36 45 114 c 0
 45 172 85 214 140 214 c 0
 190 214 224 181 224 133 c 0
 224 111 222 105 204 76 c 0
 200 70 198 64 198 58 c 0
 198 46 210 38 232 38 c 0
 312 38 356 108 367 251 c 0
 369 275 369 285 369 329 c 1xec
283 656 m 0
 227 656 198 600 198 491 c 0
 198 441 204 405 215 381 c 0
 227 356 254 338 282 338 c 0
 333 338 365 394 365 482 c 0
 365 528 356 582 343 611 c 0
 331 640 309 656 283 656 c 0
EndSplineSet
EndChar

StartChar: colon
Encoding: 58 58 25
Width: 332
VWidth: 1000
Flags: HMW
HStem: -15 20
LayerCount: 2
Back
SplineSet
150 172 m 0
 202 172 244 130 244 79 c 0
 244 27 202 -15 149 -15 c 0
 99 -15 57 28 57 79 c 0
 57 130 99 172 150 172 c 0
150 481 m 0
 202 481 244 439 244 388 c 0
 244 336 202 294 149 294 c 0
 99 294 57 337 57 388 c 0
 57 439 99 481 150 481 c 0
EndSplineSet
Fore
SplineSet
89.0645 465.5 m 2
 167.694 562 l 2
 180.943 578.261 186.656 578.729 200.286 562 c 2
 278.916 465.5 l 2
 289.929 451.986 290.146 442.281 278.916 428.5 c 2
 200.286 332 l 2
 186.946 315.628 181.324 315.272 167.694 332 c 2
 89.0645 428.5 l 2
 76.8105 443.539 77.1465 450.873 89.0645 465.5 c 2
89.0645 128.5 m 2
 167.694 225 l 2
 180.943 241.261 186.656 241.728 200.286 225 c 2
 278.916 128.5 l 2
 289.929 114.986 290.146 105.281 278.916 91.5 c 2
 200.286 -5 l 2
 186.946 -21.3721 181.324 -21.7275 167.694 -5 c 2
 89.0645 91.5 l 2
 76.8105 106.539 77.1465 113.873 89.0645 128.5 c 2
EndSplineSet
EndChar

StartChar: semicolon
Encoding: 59 59 26
Width: 332
VWidth: 1000
Flags: W
VStem: 99.0059 40.5<-152.225 -142.5>
LayerCount: 2
Back
SplineSet
75 -185 m 1
 48 -145 l 1
 110 -101 147 -54 147 -16 c 0
 147 -12 146 -10 143 -10 c 2
 139 -10 l 2
 137 -11 135 -11 131 -11 c 0
 83 -11 47 26 47 75 c 0
 47 131 89 174 143 174 c 0
 203 174 244 125 244 53 c 0
 244 -36 186 -118 75 -185 c 1
145 481 m 0
 197 481 239 439 239 388 c 0
 239 336 197 294 144 294 c 0
 94 294 52 337 52 388 c 0
 52 439 94 481 145 481 c 0
EndSplineSet
Fore
SplineSet
89.0801 91.5 m 6
 76.7861 106.506 77.1621 113.873 89.0801 128.5 c 6
 167.71 225 l 6
 180.959 241.261 186.672 241.728 200.302 225 c 6
 275.536 128.002 l 6
 286.266 114.168 287.024 106.519 278.623 92.3359 c 6
 139.506 -142.5 l 6
 122.489 -171.225 90.9492 -158.61 99.0059 -126 c 6
 133.224 12.5 l 6
 136.396 25.9082 135.707 34.6006 128.006 44 c 6
 89.0801 91.5 l 6
89.0801 465.5 m 2
 167.71 562 l 2
 180.959 578.261 186.672 578.729 200.302 562 c 2
 278.932 465.5 l 2
 289.944 451.986 290.161 442.281 278.932 428.5 c 2
 200.302 332 l 2
 186.962 315.628 181.34 315.272 167.71 332 c 2
 89.0801 428.5 l 2
 76.8262 443.539 77.1621 450.873 89.0801 465.5 c 2
EndSplineSet
EndChar

StartChar: less
Encoding: 60 60 27
Width: 606
VWidth: 1000
Flags: W
LayerCount: 2
Fore
SplineSet
558 404 m 1
 230 253 l 1
 558 100 l 1
 558 -25 l 1
 49 207 l 1
 49 297 l 1
 558 529 l 1
 558 404 l 1
EndSplineSet
EndChar

StartChar: equal
Encoding: 61 61 28
Width: 606
VWidth: 1000
Flags: MW
HStem: 92 115<51 555> 298 115<51 555>
LayerCount: 2
Fore
SplineSet
51 92 m 1
 51 207 l 1
 555 207 l 1
 555 92 l 1
 51 92 l 1
51 298 m 1
 51 413 l 1
 555 413 l 1
 555 298 l 1
 51 298 l 1
EndSplineSet
EndChar

StartChar: greater
Encoding: 62 62 29
Width: 606
VWidth: 1000
Flags: W
LayerCount: 2
Fore
SplineSet
48 404 m 1
 48 529 l 1
 557 297 l 1
 557 207 l 1
 48 -25 l 1
 48 100 l 1
 376 253 l 1
 48 404 l 1
EndSplineSet
EndChar

StartChar: question
Encoding: 63 63 30
Width: 525
VWidth: 1000
Flags: W
HStem: 488 21G<97.5 150.5> 717 20G<189 325>
VStem: 30 181<515.943 657.948> 307 176<474.953 649.822>
LayerCount: 2
Back
SplineSet
254 228 m 1
 200 228 l 1
 198 244 197 260 197 270 c 0
 197 315 205 335 260 433 c 0
 285 478 300 529 300 570 c 0
 300 640 266 680 206 680 c 0
 175 680 153 669 153 655 c 0
 153 648 154 647 172 633 c 0
 193 617 204 595 204 568 c 0
 204 521 169 488 118 488 c 0
 63 488 23 527 23 581 c 0
 23 673 116 737 248 737 c 0
 388 737 476 668 476 559 c 0
 476 511 456 465 421 435 c 0
 414 429 405 422 328 363 c 0
 266 315 257 298 254 228 c 1
229 173 m 0
 281 173 323 131 323 79 c 0
 323 27 281 -15 228 -15 c 0
 177 -15 135 28 135 79 c 0
 135 131 177 173 229 173 c 0
EndSplineSet
Fore
SplineSet
157.388 129.055 m 6
 224.223 228.45 l 6
 235.484 245.198 240.34 245.68 251.926 228.45 c 6
 318.761 129.055 l 6
 328.121 115.136 328.307 105.14 318.761 90.9453 c 6
 251.926 -8.4502 l 6
 240.587 -25.3135 235.809 -25.6797 224.223 -8.4502 c 6
 157.388 90.9453 l 6
 146.972 106.436 147.257 113.989 157.388 129.055 c 6
249.5 433.5 m 0
 289.991 478.408 307 516.5 307 570 c 0
 307 640 265.613 685.958 223 675 c 0
 188 666 211 634 211 568 c 0
 211 521 176 488 125 488 c 0
 70 488 30 527 30 581 c 0
 30 673 123 737 255 737 c 0
 395 737 483 668 483 559 c 0
 483 511 461.662 469.089 429 438.5 c 0
 369.702 382.967 297.22 362.465 251.597 296.5 c 0
 241.986 282.604 238.309 281.774 230.25 295 c 2
 207.094 333 l 2
 202.826 340.003 200.05 345.111 202.541 356.5 c 0
 207.858 380.808 226.382 407.861 249.5 433.5 c 0
EndSplineSet
EndChar

StartChar: at
Encoding: 64 64 31
Width: 747
VWidth: 1000
Flags: W
HStem: -15 61<304 437.5> 145 52<294.5 317> 148 61<511 528.5> 521 52<390.5 407> 676 61<302 466.5>
VStem: 24 64<275.5 454.5> 160 103<252 284> 658 64<381 493.5>
LayerCount: 2
Fore
SplineSet
644 190 m 1xbf
 713 190 l 1
 698 153 681 130 649 98 c 0
 573 21 488 -15 387 -15 c 0
 185 -15 24 152 24 362 c 0
 24 570 186 737 389 737 c 0
 574 737 722 599 722 426 c 0
 722 281 606 148 480 148 c 0xbf
 434 148 403 170 403 204 c 0
 403 207 404 213 405 220 c 1
 378 169 342 145 292 145 c 0xdf
 217 145 160 210 160 294 c 0
 160 357 186 431 228 488 c 0
 268 542 326 573 385 573 c 0
 429 573 453 559 478 522 c 1
 490 556 l 1
 594 556 l 1
 502 268 l 1
 498 253 495 240 495 231 c 0
 495 217 503 209 519 209 c 0
 538 209 561 220 583 239 c 0
 632 280 658 343 658 419 c 0
 658 568 545 676 388 676 c 0
 216 676 88 543 88 366 c 0
 88 185 219 46 389 46 c 0
 496 46 587 97 644 190 c 1xbf
406 521 m 0
 375 521 347 497 320 448 c 0
 285 386 263 312 263 256 c 0
 263 218 280 197 309 197 c 0xdf
 341 197 370 226 393 280 c 0
 420 343 453 450 453 476 c 0
 453 500 432 521 406 521 c 0
EndSplineSet
EndChar

StartChar: A
Encoding: 65 65 32
Width: 759
VWidth: 1000
Flags: MW
HStem: 0 20 218 67<229 427> 717 20<351 427 427 427>
LayerCount: 2
Fore
SplineSet
351 737 m 1
 427 737 l 1
 684 117 l 2
 705 66 721 56 778 54 c 1
 778 0 l 1
 427 0 l 1
 427 54 l 1
 444 55 l 2
 489 55 502 61 502 79 c 0
 502 87 498 102 490 120 c 1
 452 218 l 1
 203 218 l 1
 187 180 l 1
 174 151 171 140 171 123 c 0
 171 77 199 58 271 54 c 1
 271 0 l 1
 -18 0 l 1
 -18 54 l 1
 41 60 78 99 124 207 c 2
 351 737 l 1
330 524 m 1
 229 285 l 1
 427 285 l 1
 330 524 l 1
EndSplineSet
EndChar

StartChar: B
Encoding: 66 66 33
Width: 778
VWidth: 1000
Flags: W
HStem: 0 54<17 32 32 58 362 392 392 416> 343 55<301 350 350 370> 668 54<17 32 347.5 357 357 387>
VStem: 121 180<144 343 398 578 578 610> 522 181<516.5 573.5> 545 191<176 224>
LayerCount: 2
Fore
SplineSet
17 722 m 1xf4
 403 722 l 2
 522 722 569 714 624 682 c 0
 673 655 703 602 703 545 c 0xf8
 703 485 671 437 611 408 c 0
 583 395 555 388 506 380 c 1
 558 373 588 365 622 349 c 0
 696 316 736 259 736 189 c 0
 736 122 694 59 630 30 c 0
 579 8 526 0 422 0 c 2
 17 0 l 1
 17 54 l 1
 32 54 l 2
 84 54 105 58 114 69 c 0
 121 77 121 81 121 144 c 2
 121 578 l 2
 121 642 121 645 114 654 c 0
 105 664 84 668 32 668 c 2
 17 668 l 1
 17 722 l 1xf4
301 398 m 1
 350 398 l 2
 412 398 446 406 473 428 c 0
 505 453 522 492 522 541 c 0
 522 624 475 668 387 668 c 2
 357 668 l 2
 338 668 323 664 313 655 c 0
 303 647 301 639 301 610 c 2
 301 398 l 1
301 343 m 1
 301 118 l 2
 301 85 301 82 304 74 c 0
 310 60 327 54 362 54 c 2
 392 54 l 2
 440 54 473 63 498 84 c 0
 527 108 545 152 545 200 c 0xf4
 545 252 524 296 490 319 c 0
 462 337 433 343 370 343 c 2
 301 343 l 1
EndSplineSet
EndChar

StartChar: C
Encoding: 67 67 34
Width: 778
VWidth: 1000
Flags: MW
HStem: -15 62<371 494.5> 685 52<364.5 453.5>
VStem: 40 199<300 464>
LayerCount: 2
Fore
SplineSet
698 733 m 1
 708 447 l 1
 655 441 l 1
 610 608 537 685 426 685 c 0
 303 685 239 577 239 370 c 0
 239 150 303 47 439 47 c 0
 554 47 634 126 661 265 c 1
 723 250 l 1
 685 71 583 -15 406 -15 c 0
 289 -15 204 19 135 95 c 0
 71 166 40 248 40 352 c 0
 40 576 198 737 418 737 c 0
 489 737 535 724 601 684 c 1
 655 733 l 1
 698 733 l 1
EndSplineSet
EndChar

StartChar: D
Encoding: 68 68 35
Width: 833
VWidth: 1000
Flags: MW
HStem: 0 54<19 34 34 60 363 384 384 387> 668 54<19 34 339 363 363 375 375 388>
VStem: 123 180<144 578 578 608> 594 199<317.5 436>
LayerCount: 2
Fore
SplineSet
123 144 m 2
 123 578 l 2
 123 641 123 645 116 653 c 0
 107 664 86 668 34 668 c 2
 19 668 l 1
 19 722 l 1
 375 722 l 2
 516 722 590 708 650 668 c 0
 744 607 793 503 793 369 c 0
 793 232 744 123 655 61 c 0
 593 18 513 0 387 0 c 2
 19 0 l 1
 19 54 l 1
 34 54 l 2
 86 54 107 58 116 69 c 0
 123 77 123 81 123 144 c 2
363 54 m 2
 384 54 l 2
 451 54 510 79 540 122 c 0
 573 167 594 264 594 371 c 0
 594 571 527 668 388 668 c 2
 363 668 l 2
 315 668 303 656 303 608 c 2
 303 119 l 2
 303 66 314 54 363 54 c 2
EndSplineSet
EndChar

StartChar: E
Encoding: 69 69 36
Width: 759
VWidth: 1000
Flags: MW
HStem: 0 54<16 31 31 57 390 420 420 480.5> 346 55<300 317> 668 54<16 31 365.5 386 386 414>
VStem: 120 180<144 346 401 578 578 582>
LayerCount: 2
Fore
SplineSet
687 722 m 1
 693 462 l 1
 641 462 l 1
 626 514 604 564 583 594 c 0
 549 641 488 668 414 668 c 2
 386 668 l 2
 345 668 321 661 310 646 c 0
 302 634 300 623 300 582 c 2
 300 401 l 1
 317 401 l 2
 395 401 444 451 455 543 c 1
 509 543 l 1
 509 204 l 1
 455 204 l 1
 444 296 395 346 317 346 c 2
 300 346 l 1
 300 124 l 2
 300 91 303 80 316 68 c 0
 328 56 341 54 390 54 c 2
 420 54 l 2
 541 54 612 119 654 269 c 1
 707 269 l 1
 695 0 l 1
 16 0 l 1
 16 54 l 1
 31 54 l 2
 83 54 104 58 113 69 c 0
 120 77 120 81 120 144 c 2
 120 578 l 2
 120 641 120 645 113 653 c 0
 104 664 83 668 31 668 c 2
 16 668 l 1
 16 722 l 1
 687 722 l 1
EndSplineSet
EndChar

StartChar: F
Encoding: 70 70 37
Width: 722
VWidth: 1000
Flags: MW
HStem: 0 54<22 37 37 63 396 422> 346 55<306 323> 668 54<22 37 371.5 392 392 411>
VStem: 126 180<144 346 401 578 578 582>
LayerCount: 2
Fore
SplineSet
684 722 m 1
 690 462 l 1
 638 462 l 1
 623 515 601 565 580 594 c 0
 546 641 485 668 411 668 c 2
 392 668 l 2
 351 668 327 661 316 646 c 0
 308 634 306 623 306 582 c 2
 306 401 l 1
 323 401 l 2
 402 401 450 450 461 543 c 1
 515 543 l 1
 515 204 l 1
 461 204 l 1
 450 296 402 346 323 346 c 2
 306 346 l 1
 306 144 l 2
 306 81 306 77 313 69 c 0
 322 58 343 54 396 54 c 2
 422 54 l 1
 422 0 l 1
 22 0 l 1
 22 54 l 1
 37 54 l 2
 89 54 110 58 119 69 c 0
 126 77 126 81 126 144 c 2
 126 578 l 2
 126 641 126 645 119 653 c 0
 110 664 89 668 37 668 c 2
 22 668 l 1
 22 722 l 1
 684 722 l 1
EndSplineSet
EndChar

StartChar: G
Encoding: 71 71 38
Width: 833
VWidth: 1000
Flags: MW
HStem: -15 52<385.5 418.5> 685 52<407.5 461>
VStem: 39 200<309 405>
LayerCount: 2
Fore
SplineSet
719 733 m 1
 728 446 l 1
 675 446 l 1
 642 598 555 685 437 685 c 0
 378 685 325 657 296 610 c 0
 259 550 239 462 239 356 c 0
 239 262 253 181 280 123 c 0
 305 69 355 37 416 37 c 0
 505 37 564 98 564 192 c 2
 564 206 l 2
 564 279 560 282 473 282 c 2
 462 282 l 1
 462 336 l 1
 817 336 l 1
 817 282 l 1
 760 281 744 278 735 268 c 0
 728 260 728 255 728 192 c 2
 728 -14 l 1
 675 -14 l 1
 626 84 l 1
 597 54 581 41 556 26 c 0
 510 0 449 -15 388 -15 c 0
 181 -15 39 134 39 350 c 0
 39 460 70 544 138 616 c 0
 212 696 310 737 425 737 c 0
 497 737 546 723 616 683 c 1
 675 733 l 1
 719 733 l 1
EndSplineSet
EndChar

StartChar: H
Encoding: 72 72 39
Width: 870
VWidth: 1000
Flags: MW
HStem: 0 54<20 35 35 61 394 409 461 476 476 502 835 850> 339 60<304 565> 668 54<20 35 368 394 394 409 461 476 809 835 835 850>
VStem: 124 180<144 339 399 577> 565 180<144 339 339 339 399 577>
LayerCount: 2
Fore
SplineSet
565 339 m 1
 304 339 l 1
 304 144 l 2
 304 80 304 77 311 69 c 0
 320 58 342 54 394 54 c 2
 409 54 l 1
 409 0 l 1
 20 0 l 1
 20 54 l 1
 35 54 l 2
 87 54 108 58 117 69 c 0
 124 77 124 81 124 144 c 2
 124 577 l 2
 124 641 124 645 117 653 c 0
 108 664 87 668 35 668 c 2
 20 668 l 1
 20 722 l 1
 409 722 l 1
 409 668 l 1
 394 668 l 2
 342 668 320 664 311 653 c 0
 304 645 304 641 304 577 c 2
 304 399 l 1
 565 399 l 1
 565 577 l 2
 565 640 565 645 558 653 c 0
 549 664 528 668 476 668 c 2
 461 668 l 1
 461 722 l 1
 850 722 l 1
 850 668 l 1
 835 668 l 2
 783 668 761 664 752 653 c 0
 745 645 745 641 745 577 c 2
 745 144 l 2
 745 80 745 77 752 69 c 0
 761 58 783 54 835 54 c 2
 850 54 l 1
 850 0 l 1
 461 0 l 1
 461 54 l 1
 476 54 l 2
 528 54 549 58 558 69 c 0
 565 77 565 81 565 144 c 2
 565 339 l 1
EndSplineSet
EndChar

StartChar: I
Encoding: 73 73 40
Width: 444
VWidth: 1000
Flags: W
HStem: 0 54<29 76 380 416> 668 54<29 76 380 416>
VStem: 132 180<96 624>
LayerCount: 2
Fore
SplineSet
132 144 m 2
 132 578 l 2
 132 641 132 645 125 653 c 0
 116 664 95 668 43 668 c 2
 28 668 l 1
 28 722 l 1
 417 722 l 1
 417 668 l 1
 402 668 l 2
 350 668 328 664 319 653 c 0
 312 645 312 642 312 578 c 258
 312 144 l 2
 312 80 312 77 319 69 c 0
 328 58 350 54 402 54 c 2
 417 54 l 1
 417 0 l 1
 28 0 l 1
 28 54 l 1
 43 54 l 2
 95 54 116 58 125 69 c 0
 132 77 132 81 132 144 c 2
EndSplineSet
EndChar

StartChar: J
Encoding: 74 74 41
Width: 648
VWidth: 1000
Flags: MW
HStem: -15 61<171 228> 139 191<97.5 104.5> 668 54<250 265 598 624 624 639>
VStem: 4 80<121 125.5> 354 180<245 280 280 578>
LayerCount: 2
Fore
SplineSet
534 578 m 2
 534 280 l 2
 534 161 509 96 446 46 c 0
 395 5 328 -15 246 -15 c 0
 96 -15 4 60 4 182 c 0
 4 268 56 330 128 330 c 0
 188 330 231 287 231 228 c 0
 231 174 192 134 139 134 c 0
 131 134 124 135 115 137 c 0
 110 138 106 139 103 139 c 0
 92 139 84 131 84 120 c 0
 84 81 140 46 202 46 c 0
 254 46 302 69 327 105 c 0
 347 135 354 173 354 245 c 2
 354 578 l 2
 354 642 354 645 347 653 c 0
 338 664 317 668 265 668 c 2
 250 668 l 1
 250 722 l 1
 639 722 l 1
 639 668 l 1
 624 668 l 2
 572 668 550 664 541 653 c 0
 534 645 534 642 534 578 c 2
EndSplineSet
EndChar

StartChar: K
Encoding: 75 75 42
Width: 815
VWidth: 1000
Flags: MW
HStem: 0 54<15 30 30 56 389 404 454 467 467 490> 668 54<15 30 363 389 389 404 454 478>
VStem: 119 180<144 250 344 578>
LayerCount: 2
Fore
SplineSet
383 338 m 1
 299 250 l 1
 299 144 l 2
 299 81 299 77 306 69 c 0
 315 58 337 54 389 54 c 2
 404 54 l 1
 404 0 l 1
 15 0 l 1
 15 54 l 1
 30 54 l 2
 82 54 103 58 112 69 c 0
 119 77 119 81 119 144 c 2
 119 578 l 2
 119 641 119 645 112 653 c 0
 103 664 82 668 30 668 c 2
 15 668 l 1
 15 722 l 1
 404 722 l 1
 404 668 l 1
 389 668 l 2
 337 668 315 664 306 653 c 0
 299 645 299 641 299 578 c 2
 299 344 l 1
 520 578 l 2
 538 598 553 622 553 633 c 0
 553 656 527 668 478 668 c 2
 454 668 l 1
 454 722 l 1
 791 722 l 1
 791 668 l 1
 725 664 675 635 588 550 c 1
 505 463 l 1
 713 131 l 1
 759 59 763 57 818 54 c 1
 818 0 l 1
 454 0 l 1
 454 54 l 1
 467 54 l 2
 513 54 535 61 535 77 c 0
 535 86 531 95 523 109 c 2
 383 338 l 1
EndSplineSet
EndChar

StartChar: L
Encoding: 76 76 43
Width: 722
VWidth: 1000
Flags: MW
HStem: 0 54<19 34 34 60 393 414 414 449.5> 668 54<19 34 366.5 393 393 415>
VStem: 123 180<145 578>
LayerCount: 2
Fore
SplineSet
648 269 m 1
 701 269 l 1
 689 0 l 1
 19 0 l 1
 19 54 l 1
 34 54 l 2
 86 54 107 58 116 69 c 0
 123 77 123 81 123 145 c 2
 123 578 l 2
 123 641 123 645 116 653 c 0
 107 664 86 668 34 668 c 2
 19 668 l 1
 19 722 l 1
 415 722 l 1
 415 668 l 1
 393 668 l 2
 340 668 319 664 310 653 c 0
 303 645 303 641 303 578 c 2
 303 124 l 2
 303 91 306 80 319 68 c 0
 331 56 344 54 393 54 c 2
 414 54 l 2
 485 54 542 80 583 129 c 0
 610 162 628 200 648 269 c 1
EndSplineSet
EndChar

StartChar: M
Encoding: 77 77 44
Width: 981
VWidth: 1000
Flags: MW
HStem: 0 54<583 594 594 620.5 954 965> 668 54<16 27 927.5 954 954 965>
VStem: 117 67<217 578 578 609.5> 684 180<144 578>
LayerCount: 2
Fore
SplineSet
338 722 m 1
 493 292 l 1
 639 722 l 1
 965 722 l 1
 965 668 l 1
 954 668 l 2
 901 668 880 664 871 653 c 0
 864 645 864 640 864 578 c 2
 864 144 l 2
 864 82 864 77 871 69 c 0
 880 58 901 54 954 54 c 2
 965 54 l 1
 965 0 l 1
 583 0 l 1
 583 54 l 1
 594 54 l 2
 647 54 668 58 677 69 c 0
 684 77 684 81 684 144 c 2
 684 643 l 1
 463 0 l 1
 411 0 l 1
 184 633 l 1
 184 217 l 2
 184 128 189 103 210 81 c 0
 226 64 254 55 294 54 c 1
 294 0 l 1
 9 0 l 1
 9 54 l 1
 48 55 75 64 91 81 c 0
 112 103 117 129 117 217 c 2
 117 578 l 2
 117 641 117 645 110 653 c 0
 101 664 80 668 27 668 c 2
 16 668 l 1
 16 722 l 1
 338 722 l 1
EndSplineSet
EndChar

StartChar: N
Encoding: 78 78 45
Width: 833
VWidth: 1000
Flags: W
HStem: -7 20 1 54<16 16 301 301> 667 55<18 18> 668 54<548 548 833 833>
VStem: 124 67<217 546> 656 67<270 505>
LayerCount: 2
Fore
SplineSet
270 722 m 1x1c
 656 270 l 1
 656 505 l 2
 656 593 651 619 630 641 c 0
 614 658 587 667 548 668 c 1
 548 722 l 1
 833 722 l 1
 833 668 l 1
 793 667 765 658 749 641 c 0
 728 619 723 594 723 505 c 2
 723 -7 l 1
 656 -7 l 1x9c
 191 546 l 1
 191 217 l 2
 191 129 196 104 217 82 c 0
 233 65 258 57 301 55 c 1
 301 1 l 1
 16 1 l 1
 16 55 l 1
 59 57 82 65 98 82 c 0
 119 104 124 129 124 217 c 2
 124 611 l 1
 99 647 63 666 18 667 c 1
 18 722 l 1x6c
 270 722 l 1x1c
EndSplineSet
EndChar

StartChar: O
Encoding: 79 79 46
Width: 833
VWidth: 1000
Flags: MW
HStem: -15 52<389 463> 685 52<388.5 445>
VStem: 39 200<316.5 408.5> 594 200<292.5 404>
LayerCount: 2
Fore
SplineSet
417 737 m 4
 515 737 593 710 660 652 c 0
 743 581 794 467 794 351 c 0
 794 234 746 132 660 63 c 0
 593 10 514 -15 412 -15 c 0
 195 -15 39 138 39 350 c 0
 39 467 89 580 173 652 c 0
 238 709 320 737 417 737 c 4
418 685 m 0
 359 685 319 663 290 614 c 0
 256 557 239 477 239 369 c 0
 239 264 257 176 290 114 c 0
 318 62 360 37 418 37 c 0
 532 37 594 147 594 350 c 0
 594 458 576 548 543 608 c 0
 514 659 472 685 418 685 c 0
EndSplineSet
EndChar

StartChar: P
Encoding: 80 80 47
Width: 759
VWidth: 1000
Flags: MW
HStem: 0 54<24 39 39 65 398 420> 310 55<308 366 366 420> 667 55<24 39 340.5 363 363 403>
VStem: 128 180<144 310 365 577 577 607> 542 193<464.5 558.5>
LayerCount: 2
Fore
SplineSet
308 310 m 1
 308 144 l 2
 308 80 308 77 315 68 c 0
 324 58 345 54 398 54 c 2
 420 54 l 1
 420 0 l 1
 24 0 l 1
 24 54 l 1
 39 54 l 2
 91 54 112 58 121 68 c 0
 128 77 128 80 128 144 c 2
 128 577 l 2
 128 641 128 644 121 653 c 0
 112 663 91 667 39 667 c 2
 24 667 l 1
 24 722 l 1
 421 722 l 2
 521 722 580 712 634 687 c 0
 698 657 735 596 735 521 c 0
 735 381 629 310 420 310 c 2
 308 310 l 1
308 365 m 1
 366 365 l 2
 495 365 542 407 542 522 c 0
 542 622 498 667 403 667 c 2
 363 667 l 2
 318 667 308 656 308 607 c 2
 308 365 l 1
EndSplineSet
EndChar

StartChar: Q
Encoding: 81 81 48
Width: 833
VWidth: 1000
Flags: MW
HStem: -188 93<584 735.31> -15 52<377.5 421> 233 57<382 416> 685 52<356 445.5>
VStem: 38 200<337.5 469> 590 200<330 412.5>
LayerCount: 2
Fore
SplineSet
472 -25 m 2
 472 -10 l 1
 448 -14 433 -15 409 -15 c 0
 297 -15 206 25 134 107 c 0
 71 178 38 266 38 363 c 0
 38 575 201 737 416 737 c 0
 624 737 790 571 790 363 c 0
 790 234 726 114 620 44 c 1
 657 -68 674 -95 705 -95 c 0
 736 -95 749 -74 754 -18 c 1
 808 -18 l 1
 808 -26 l 2
 808 -122 738 -188 636 -188 c 0
 532 -188 472 -129 472 -25 c 2
565 175 m 1
 581 217 590 290 590 370 c 0
 590 455 576 533 551 591 c 0
 524 653 477 685 414 685 c 0
 298 685 238 581 238 379 c 0
 238 296 245 232 259 189 c 1
 271 220 279 235 295 250 c 0
 321 275 361 290 403 290 c 0
 454 290 503 268 535 231 c 0
 548 215 554 203 565 175 c 1
474 53 m 1
 476 75 477 90 477 100 c 0
 477 186 445 233 387 233 c 0
 335 233 299 191 299 132 c 0
 299 75 344 37 411 37 c 0
 435 37 448 40 474 53 c 1
EndSplineSet
EndChar

StartChar: R
Encoding: 82 82 49
Width: 815
VWidth: 1000
Flags: W
HStem: -15 84<603.5 749.2> 1 54<20 35 35 61 394 420> 347 55<304 359 359 360> 668 54<20 35 343 375 375 399>
VStem: 124 180<145 347 402 578 578 604> 534 191<508.5 571>
LayerCount: 2
Fore
SplineSet
304 347 m 1xbc
 304 145 l 2
 304 81 304 78 311 69 c 0xbc
 320 59 342 55 394 55 c 2
 420 55 l 1
 420 1 l 1
 20 1 l 1
 20 55 l 1
 35 55 l 2x7c
 87 55 108 59 117 69 c 0
 124 78 124 81 124 145 c 2
 124 578 l 2
 124 642 124 645 117 654 c 0
 108 664 87 668 35 668 c 2
 20 668 l 1
 20 722 l 1
 447 722 l 2
 539 722 606 710 644 686 c 0
 696 652 725 601 725 541 c 0
 725 476 690 421 629 390 c 0
 604 378 578 371 525 361 c 1
 612 332 650 287 665 197 c 1
 672 159 l 1
 674 145 676 135 676 131 c 0
 681 99 682 92 688 84 c 0
 694 75 706 69 717 69 c 0
 747 69 762 101 763 164 c 1
 817 164 l 1
 817 152 l 2
 817 46 755 -15 647 -15 c 0
 560 -15 504 26 487 104 c 0
 484 120 479 162 473 229 c 0
 469 286 465 298 449 317 c 0
 431 337 403 347 360 347 c 2
 304 347 l 1xbc
304 402 m 1
 359 402 l 2
 492 402 534 434 534 536 c 0
 534 627 492 668 399 668 c 2
 375 668 l 2
 311 668 304 661 304 604 c 2
 304 402 l 1
EndSplineSet
EndChar

StartChar: S
Encoding: 83 83 50
Width: 667
VWidth: 1000
Flags: MW
HStem: -15 52<329 412.5> 685 52<262.5 346>
VStem: 52 115<559.5 580.5> 513 120<153 171.5>
LayerCount: 2
Fore
SplineSet
588 729 m 1
 601 470 l 1
 548 470 l 1
 489 612 406 685 302 685 c 0
 223 685 167 641 167 580 c 0
 167 539 190 510 235 494 c 0
 260 485 260 485 337 470 c 1
 385 459 l 2
 558 421 633 350 633 223 c 0
 633 83 525 -15 369 -15 c 0
 289 -15 225 6 164 52 c 1
 102 -7 l 1
 57 -7 l 1
 51 276 l 1
 102 276 l 1
 157 126 256 37 369 37 c 0
 456 37 513 84 513 154 c 0
 513 189 497 219 469 234 c 0
 445 247 425 252 361 264 c 2
 299 276 l 2
 142 305 52 392 52 514 c 0
 52 647 157 737 311 737 c 0
 381 737 435 721 491 683 c 1
 543 729 l 1
 588 729 l 1
EndSplineSet
EndChar

StartChar: T
Encoding: 84 84 51
Width: 722
VWidth: 1000
Flags: MW
HStem: 0 54<159 181 181 207.5 541 563> 670 52<212 250 472 508.5>
VStem: 271 180<144 629>
LayerCount: 2
Fore
SplineSet
692 722 m 1
 707 451 l 1
 654 451 l 1
 639 532 623 574 595 611 c 0
 563 652 530 670 487 670 c 0
 457 670 451 663 451 629 c 2
 451 144 l 2
 451 81 451 77 458 69 c 0
 467 58 488 54 541 54 c 2
 563 54 l 1
 563 0 l 1
 159 0 l 1
 159 54 l 1
 181 54 l 2
 234 54 255 58 264 69 c 0
 271 77 271 81 271 144 c 2
 271 629 l 2
 271 663 265 670 235 670 c 0
 189 670 151 647 119 599 c 0
 95 564 81 525 68 451 c 1
 15 451 l 1
 30 722 l 1
 692 722 l 1
EndSplineSet
EndChar

StartChar: U
Encoding: 85 85 52
Width: 833
VWidth: 1000
Flags: MW
HStem: -15 75<431.5 488> 668 54<15 30 363 389 389 404>
VStem: 119 180<261 578> 647 67<304 505>
LayerCount: 2
Fore
SplineSet
299 578 m 2
 299 258 l 2
 299 185 310 136 332 109 c 0
 360 77 403 60 460 60 c 0
 543 60 601 92 630 155 c 0
 643 183 647 222 647 304 c 2
 647 505 l 2
 647 594 642 619 621 641 c 0
 605 658 578 667 539 668 c 1
 539 722 l 1
 824 722 l 1
 824 668 l 1
 784 667 756 658 740 641 c 0
 719 619 714 593 714 505 c 2
 714 304 l 2
 714 186 706 141 678 96 c 0
 629 19 552 -15 424 -15 c 0
 283 -15 186 25 145 100 c 0
 126 135 119 177 119 261 c 2
 119 578 l 2
 119 641 119 645 112 653 c 0
 103 664 82 668 30 668 c 2
 15 668 l 1
 15 722 l 1
 404 722 l 1
 404 668 l 1
 389 668 l 2
 337 668 315 664 306 653 c 0
 299 645 299 641 299 578 c 2
EndSplineSet
EndChar

StartChar: V
Encoding: 86 86 53
Width: 759
VWidth: 1000
Flags: MW
HStem: -15 20 702 20<-18 344 344 344 483 778 778 778>
LayerCount: 2
Fore
SplineSet
429 206 m 1
 571 562 l 2
 577 577 580 589 580 600 c 0
 580 624 567 646 545 657 c 0
 531 665 515 668 483 668 c 1
 483 722 l 1
 778 722 l 1
 778 668 l 1
 717 662 672 621 640 541 c 1
 411 -15 l 1
 323 -15 l 1
 80 599 l 2
 57 657 41 668 -18 668 c 1
 -18 722 l 1
 344 722 l 1
 344 668 l 1
 323 668 l 2
 279 668 261 661 261 643 c 0
 261 637 264 626 270 610 c 2
 429 206 l 1
EndSplineSet
EndChar

StartChar: W
Encoding: 87 87 54
Width: 981
VWidth: 1000
Flags: MW
HStem: -15 20 668 54<6 8>
VStem: 721 252<668 722>
LayerCount: 2
Fore
SplineSet
711 258 m 1
 798 543 l 2
 809 579 811 590 811 604 c 0
 811 628 798 649 777 659 c 0
 764 665 750 667 721 668 c 1
 721 722 l 1
 973 722 l 1
 973 668 l 1
 913 656 894 633 865 534 c 1
 691 -15 l 1
 618 -15 l 1
 493 392 l 1
 361 -15 l 1
 286 -15 l 1
 82 610 l 2
 66 658 53 668 8 668 c 2
 6 668 l 1
 6 722 l 1
 316 722 l 1
 316 668 l 1
 269 666 257 661 257 643 c 0
 257 636 259 626 265 609 c 1
 381 251 l 1
 461 502 l 1
 425 615 l 1
 410 658 400 666 361 668 c 1
 361 722 l 1
 657 722 l 1
 657 668 l 1
 610 665 598 660 598 641 c 0
 598 635 599 629 604 614 c 1
 711 258 l 1
EndSplineSet
EndChar

StartChar: X
Encoding: 88 88 55
Width: 722
VWidth: 1000
Flags: MW
HStem: 0 20 702 20<-12 346 346 346 401 709 709 709>
LayerCount: 2
Fore
SplineSet
431 413 m 1
 608 155 l 2
 670 65 682 56 735 54 c 1
 735 0 l 1
 375 0 l 1
 375 54 l 1
 425 55 441 61 441 78 c 0
 441 88 436 102 428 112 c 1
 319 268 l 1
 231 156 l 2
 218 140 211 122 211 106 c 0
 211 71 243 56 319 54 c 1
 319 0 l 1
 -12 0 l 1
 -12 54 l 1
 46 56 74 73 132 144 c 2
 279 325 l 1
 74 617 l 2
 46 657 32 665 -12 668 c 1
 -12 722 l 1
 346 722 l 1
 346 668 l 1
 287 666 278 663 278 644 c 0
 278 636 281 628 288 618 c 2
 393 467 l 1
 463 553 l 1
 487 581 497 601 497 617 c 0
 497 650 464 668 401 668 c 1
 401 722 l 1
 709 722 l 1
 709 668 l 1
 657 664 622 644 577 591 c 1
 431 413 l 1
EndSplineSet
EndChar

StartChar: Y
Encoding: 89 89 56
Width: 722
VWidth: 1000
Flags: MW
HStem: 0 54<159 181 181 207.5 541 563> 702 20<-12 348 348 348 440 735 735 735>
VStem: 271 180<144 305 305 305>
LayerCount: 2
Fore
SplineSet
420 396 m 1
 520 574 l 1
 528 590 534 608 534 620 c 0
 534 649 505 668 461 668 c 2
 440 668 l 1
 440 722 l 1
 735 722 l 1
 735 668 l 1
 679 664 639 637 601 575 c 1
 451 318 l 1
 451 144 l 2
 451 81 451 77 458 69 c 0
 467 58 488 54 541 54 c 2
 563 54 l 1
 563 0 l 1
 159 0 l 1
 159 54 l 1
 181 54 l 2
 234 54 255 58 264 69 c 0
 271 77 271 82 271 144 c 2
 271 305 l 1
 67 632 l 1
 48 661 33 668 -12 668 c 1
 -12 722 l 1
 348 722 l 1
 348 668 l 1
 332 668 l 2
 294 668 276 661 276 646 c 0
 276 637 278 631 288 615 c 2
 420 396 l 1
EndSplineSet
EndChar

StartChar: Z
Encoding: 90 90 57
Width: 667
VWidth: 1000
Flags: MW
HStem: 0 55<233 322 322 357.5> 667 55<298 351 351 425>
LayerCount: 2
Fore
SplineSet
634 722 m 5
 634 666 l 1
 233 55 l 1
 322 55 l 2
 393 55 421 59 452 75 c 0
 516 107 563 180 581 276 c 1
 634 276 l 1
 618 0 l 1
 24 0 l 1
 24 58 l 1
 425 667 l 1
 351 667 l 2
 245 667 198 648 154 586 c 0
 132 556 117 524 100 470 c 1
 49 470 l 1
 61 722 l 1
 634 722 l 5
EndSplineSet
EndChar

StartChar: bracketleft
Encoding: 91 91 58
Width: 389
VWidth: 1000
Flags: MW
HStem: -108 50<207 339> 672 50<207 339 207 207>
VStem: 84 123<-58 672>
LayerCount: 2
Fore
SplineSet
339 722 m 1
 339 672 l 1
 207 672 l 1
 207 -58 l 1
 339 -58 l 1
 339 -108 l 1
 84 -108 l 1
 84 722 l 1
 339 722 l 1
EndSplineSet
EndChar

StartChar: backslash
Encoding: 92 92 59
Width: 606
VWidth: 1000
Flags: MW
HStem: 0 20 717 20<50 124 124 124>
LayerCount: 2
Fore
SplineSet
124 737 m 1
 555 0 l 1
 481 0 l 1
 50 737 l 1
 124 737 l 1
EndSplineSet
EndChar

StartChar: bracketright
Encoding: 93 93 60
Width: 389
VWidth: 1000
Flags: MW
HStem: -108 50<31 163> 672 50<31 163>
VStem: 163 123<-58 672 672 672>
LayerCount: 2
Fore
SplineSet
31 -108 m 1
 31 -58 l 1
 163 -58 l 1
 163 672 l 1
 31 672 l 1
 31 722 l 1
 286 722 l 1
 286 -108 l 1
 31 -108 l 1
EndSplineSet
EndChar

StartChar: asciicircum
Encoding: 94 94 61
Width: 606
VWidth: 1000
Flags: MW
HStem: 702 20<261 346 346 346>
LayerCount: 2
Fore
SplineSet
554 318 m 1
 435 318 l 1
 304 568 l 1
 171 318 l 1
 52 318 l 1
 261 722 l 1
 346 722 l 1
 554 318 l 1
EndSplineSet
EndChar

StartChar: underscore
Encoding: 95 95 62
Width: 500
VWidth: 1000
Flags: MW
HStem: -148 90<0 500>
LayerCount: 2
Fore
SplineSet
0 -58 m 1
 500 -58 l 1
 500 -148 l 1
 0 -148 l 1
 0 -58 l 1
EndSplineSet
EndChar

StartChar: grave
Encoding: 96 96 63
Width: 333
VWidth: 1000
Flags: HMW
HStem: 714 20<43 67.5>
LayerCount: 2
Fore
SplineSet
249 545 m 1
 185 545 l 1
 38 632 l 2
 14 646 2 664 2 684 c 0
 2 712 27 734 59 734 c 0
 76 734 92 728 107 716 c 0
 113 712 113 712 136 683 c 2
 249 545 l 1
EndSplineSet
EndChar

StartChar: a
Encoding: 97 97 64
Width: 611
VWidth: 1000
Flags: W
HStem: -15 68<153.82 320.335> 436 52<257 307>
VStem: 36 167<101.5 132> 63 140<326.247 424.075> 359 157<179 235 235 235 289 318>
LayerCount: 2
Fore
SplineSet
516 318 m 2xd8
 516 142 l 2
 516 84 521 70 543 70 c 0
 550 70 553 71 562 77 c 0
 570 82 576 84 582 84 c 0
 591 84 597 78 597 68 c 0
 597 25 544 -15 487 -15 c 0
 436 -15 398 11 381 56 c 1
 328 4 276 -15 190 -15 c 0
 93 -15 36 28 36 102 c 0xe8
 36 162 70 202 143 232 c 0
 190 251 225 260 326 282 c 0
 335 283 348 286 359 289 c 1
 359 341 l 2
 359 410 337 436 277 436 c 0
 237 436 203 421 203 404 c 0
 203 399 203 398 212 387 c 0
 221 375 226 361 226 349 c 0
 226 312 190 284 144 284 c 0
 98 284 63 316 63 359 c 0
 63 437 153 488 291 488 c 0
 369 488 432 472 469 442 c 0
 504 414 516 383 516 318 c 2xd8
359 235 m 1
 306 223 l 2
 234 206 203 176 203 123 c 0
 203 80 228 53 267 53 c 0
 323 53 359 102 359 179 c 2
 359 235 l 1
EndSplineSet
EndChar

StartChar: b
Encoding: 98 98 65
Width: 648
VWidth: 1000
Flags: W
HStem: -15 52<318.5 372.5> 413 75<361.5 376.5> 671 51<0 0> 717 20<240 240>
VStem: 83 157<413 578 578 622.5> 439 173<168.5 293>
LayerCount: 2
Fore
SplineSet
240 737 m 1xdc
 240 413 l 1
 281 465 328 488 395 488 c 0
 522 488 612 387 612 245 c 0
 612 91 508 -15 356 -15 c 0
 281 -15 230 9 183 66 c 1
 118 -14 l 1
 69 -14 l 1
 79 41 83 109 83 206 c 2
 83 578 l 2
 83 667 80 671 19 671 c 2
 0 671 l 1
 0 722 l 1xec
 240 737 l 1xdc
345 413 m 0
 275 413 239 345 239 212 c 0
 239 99 274 37 340 37 c 0
 405 37 439 104 439 233 c 0
 439 353 408 413 345 413 c 0
EndSplineSet
EndChar

StartChar: c
Encoding: 99 99 66
Width: 556
VWidth: 1000
Flags: MW
HStem: -15 68<291.5 337> 436 52<285.5 337.5>
VStem: 31 173<185 304.5> 376 140<320.5 425.547>
LayerCount: 2
Fore
SplineSet
475 177 m 1
 527 160 l 1
 512 113 496 83 467 53 c 0
 423 5 374 -15 300 -15 c 0
 139 -15 31 83 31 229 c 0
 31 380 151 488 317 488 c 0
 438 488 516 434 516 352 c 0
 516 301 481 267 426 267 c 0
 378 267 344 297 344 340 c 0
 344 359 348 368 365 389 c 0
 374 400 376 405 376 408 c 0
 376 424 352 436 323 436 c 0
 248 436 204 366 204 247 c 0
 204 123 251 53 332 53 c 0
 373 53 413 72 437 104 c 0
 452 124 461 140 475 177 c 1
EndSplineSet
EndChar

StartChar: d
Encoding: 100 100 67
Width: 667
VWidth: 1000
Flags: W
HStem: -15 68<277.5 292> 0 20 11 54<654 654> 420 68<279 296.5> 671 51<315 315> 717 20<568 568>
VStem: 37 173<174 290.5> 411 157<421 578 578 622.5>
LayerCount: 2
Fore
SplineSet
568 737 m 1x17
 568 122 l 2
 568 92 571 80 580 72 c 0
 588 65 591 65 627 65 c 2
 654 65 l 1
 654 11 l 1x37
 420 0 l 1x53
 420 72 l 1
 379 12 328 -15 256 -15 c 0
 126 -15 37 84 37 229 c 0
 37 375 137 488 265 488 c 0
 328 488 373 467 411 421 c 1
 411 578 l 2
 411 667 408 671 347 671 c 2
 315 671 l 1
 315 722 l 1x9b
 568 737 l 1x17
311 420 m 0
 247 420 210 350 210 231 c 0
 210 117 246 53 309 53 c 0x93
 371 53 413 128 413 237 c 0
 413 348 373 420 311 420 c 0
EndSplineSet
EndChar

StartChar: e
Encoding: 101 101 68
Width: 574
VWidth: 1000
Flags: MW
HStem: -15 68<318 360.5> 228 55<206 356 356 366> 436 52<274 329.5>
VStem: 383 157<283.006 366.616>
LayerCount: 2
Fore
SplineSet
540 228 m 1
 205 228 l 1
 206 171 213 140 230 113 c 0
 255 75 295 53 341 53 c 0
 406 53 451 86 491 164 c 1
 540 144 l 1
 496 37 419 -15 302 -15 c 0
 226 -15 159 7 113 46 c 0
 63 89 32 161 32 232 c 0
 32 298 59 364 104 411 c 0
 154 462 221 488 301 488 c 0
 447 488 540 393 540 244 c 2
 540 228 l 1
206 283 m 1
 356 283 l 2
 376 283 383 291 383 315 c 0
 383 394 355 436 304 436 c 0
 244 436 206 378 206 283 c 1
EndSplineSet
EndChar

StartChar: f
Encoding: 102 102 69
Width: 389
VWidth: 1000
Flags: MW
HStem: 0 50<21 25 25 57.5 333 351> 413 60<14 101 258 383> 681 52<313 327.5>
VStem: 101 157<97 144 144 413 473 486 486 530>
LayerCount: 2
Fore
SplineSet
383 473 m 1
 383 413 l 1
 258 413 l 1
 258 144 l 1
 258 97 l 2
 258 57 269 50 333 50 c 2
 351 50 l 1
 351 0 l 1
 21 0 l 1
 21 50 l 1
 25 50 l 2
 90 50 101 57 101 97 c 2
 101 144 l 1
 101 413 l 1
 14 413 l 1
 14 473 l 1
 101 473 l 1
 101 486 l 2
 101 634 188 733 319 733 c 0
 402 733 464 686 464 624 c 0
 464 577 430 542 384 542 c 0
 342 542 309 572 309 611 c 0
 309 630 319 652 334 664 c 0
 338 668 339 670 339 673 c 0
 339 677 332 681 323 681 c 0
 303 681 280 664 270 641 c 0
 260 619 258 597 258 530 c 2
 258 473 l 1
 383 473 l 1
EndSplineSet
EndChar

StartChar: g
Encoding: 103 103 70
Width: 611
VWidth: 1000
Flags: W
HStem: -202 52<242.5 332.5> -43 140<263 328> 159 48<274 292> 436 52<264.5 312.5> 453 20 463 75<474.416 571>
VStem: 30 130<-110.5 -81> 45 153<56 138.238> 51 162<310 362.5> 363 162<291.5 345.5> 434 130<-89.5 -82.5>
LayerCount: 2
Fore
SplineSet
263 97 m 2xe540
 332 97 l 2
 404 97 448 93 481 82 c 0
 531 67 564 20 564 -36 c 0
 564 -143 460 -202 274 -202 c 0
 111 -202 30 -170 30 -104 c 0xe620
 30 -57 69 -25 136 -15 c 1
 78 1 45 34 45 78 c 0xe5
 45 130 83 162 161 176 c 1
 89 201 51 250 51 317 c 0
 51 416 150 488 287 488 c 0xf080
 338 488 383 478 421 459 c 1
 465 514 504 538 549 538 c 0xe480
 593 538 623 512 623 473 c 0xe880
 623 437 596 409 561 409 c 0
 534 409 507 431 507 454 c 2
 507 458 l 2
 507 462 505 463 502 463 c 0
 490 463 478 453 465 435 c 1
 509 399 525 369 525 322 c 0
 525 261 491 210 433 183 c 0
 395 165 358 159 292 159 c 2
 274 159 l 2
 216 159 198 151 198 126 c 0
 198 102 210 97 263 97 c 2xe540
290 436 m 0xf0c0
 239 436 213 399 213 326 c 0
 213 294 218 265 229 243 c 0
 240 218 259 207 289 207 c 0
 336 207 363 249 363 320 c 0
 363 396 338 436 290 436 c 0xf0c0
328 -43 m 2
 197 -43 l 1
 172 -54 160 -70 160 -92 c 0
 160 -129 204 -150 281 -150 c 0
 384 -150 434 -130 434 -89 c 0xe220
 434 -76 428 -62 419 -56 c 0
 402 -45 390 -43 328 -43 c 2
EndSplineSet
EndChar

StartChar: h
Encoding: 104 104 71
Width: 685
VWidth: 1000
Flags: W
HStem: 0 51<19 23 23 55.5 295 324 361 390.5 662 666> 395 93<321.885 452> 671 51<16 16> 717 20<256 256>
VStem: 99 157<97 98 98 144 144 241 396 574 574 574> 430 157<97 98 98 144 144 297 297 311>
LayerCount: 2
Fore
SplineSet
256 737 m 1xdc
 256 396 l 1
 298 460 350 488 426 488 c 0
 478 488 522 471 549 440 c 0
 576 411 587 373 587 311 c 2
 587 144 l 1
 587 98 l 2
 587 57 598 51 662 51 c 2
 666 51 l 1
 666 0 l 1
 361 0 l 1
 361 51 l 1
 420 51 430 58 430 97 c 2
 430 144 l 1
 430 297 l 2
 430 361 405 395 359 395 c 0
 322 395 287 372 271 336 c 0
 260 312 256 286 256 241 c 2
 256 144 l 1
 256 98 l 2
 256 57 266 51 324 51 c 1
 324 0 l 1
 19 0 l 1
 19 51 l 1
 23 51 l 2
 88 51 99 57 99 97 c 2
 99 144 l 1
 99 574 l 1
 98 669 97 671 35 671 c 2
 16 671 l 1
 16 722 l 1xec
 256 737 l 1xdc
EndSplineSet
EndChar

StartChar: i
Encoding: 105 105 72
Width: 370
VWidth: 1000
Flags: W
HStem: 0 51<28 32 32 63.5 335 341> 415 51<28 28> 453 20<263 263> 560 177<157.5 205>
VStem: 93 177<625 673> 106 157<98 144 144 321 321 365.5>
LayerCount: 2
Fore
SplineSet
263 473 m 1xb4
 263 144 l 1
 263 97 l 2
 263 58 274 51 335 51 c 2
 341 51 l 1
 341 0 l 1
 28 0 l 1
 28 51 l 1
 32 51 l 2
 95 51 106 58 106 98 c 2
 106 144 l 1
 106 321 l 2
 106 410 103 415 42 415 c 2
 28 415 l 1
 28 466 l 1xd4
 263 473 l 1xb4
182 737 m 0
 230 737 270 697 270 649 c 0
 270 599 230 560 180 560 c 0
 133 560 93 601 93 649 c 0x98
 93 697 133 737 182 737 c 0
EndSplineSet
EndChar

StartChar: j
Encoding: 106 106 73
Width: 352
VWidth: 1000
Flags: W
HStem: -202 47<51.5 76> 415 51<15 15> 453 20<268 268> 560 177<159.5 207>
VStem: 95 177<625 673> 111 157<57 109 109 329 329 369>
LayerCount: 2
Fore
SplineSet
184 737 m 0x98
 232 737 272 697 272 649 c 0
 272 599 232 560 182 560 c 0
 135 560 95 601 95 649 c 0
 95 697 135 737 184 737 c 0x98
268 473 m 1xb4
 268 109 l 2
 268 5 259 -51 233 -101 c 0
 202 -163 133 -202 58 -202 c 0
 -24 -202 -82 -160 -82 -102 c 0
 -82 -59 -49 -27 -4 -27 c 0
 34 -27 61 -55 61 -94 c 0
 61 -116 53 -130 32 -144 c 1
 38 -152 45 -155 58 -155 c 0
 94 -155 111 -124 111 -56 c 2
 111 329 l 2
 111 409 106 415 47 415 c 2
 15 415 l 1
 15 466 l 1xd4
 268 473 l 1xb4
EndSplineSet
EndChar

StartChar: k
Encoding: 107 107 74
Width: 667
VWidth: 1000
Flags: W
HStem: 0 51<15 19 19 51.5 291 320 354 364 364 377 642.5 660> 453 20<329 623 623 623> 671 51<12 12> 717 20<252 252>
VStem: 95 157<97 98 98 144 144 172 246 578 578 622.5>
LayerCount: 2
Fore
SplineSet
252 737 m 1xd8
 252 246 l 1
 376 354 l 2
 394 370 401 382 401 394 c 0
 401 412 379 422 341 422 c 2
 329 422 l 1
 329 473 l 1
 623 473 l 1
 623 422 l 1
 600 422 l 2
 562 422 533 410 492 375 c 2
 415 311 l 1
 572 115 l 1
 616 58 625 51 660 51 c 1
 660 0 l 1
 354 0 l 1
 354 51 l 1
 364 51 l 2
 390 51 403 58 403 71 c 0
 403 80 398 92 390 102 c 2
 298 213 l 1
 252 172 l 1
 252 144 l 1
 252 98 l 2
 252 58 262 51 320 51 c 1
 320 0 l 1
 15 0 l 1
 15 51 l 1
 19 51 l 2
 84 51 95 57 95 97 c 2
 95 144 l 1
 95 578 l 2
 95 667 92 671 31 671 c 2
 12 671 l 1
 12 722 l 1xe8
 252 737 l 1xd8
EndSplineSet
EndChar

StartChar: l
Encoding: 108 108 75
Width: 352
VWidth: 1000
Flags: W
HStem: 0 51<19 23 23 55.5 324 331> 671 51<16 16> 717 20<256 256>
VStem: 99 157<97 144 144 578 578 622.5>
LayerCount: 2
Fore
SplineSet
256 737 m 1xb0
 256 144 l 1
 256 97 l 2
 256 72 259 64 271 58 c 0
 278 54 305 51 324 51 c 2
 331 51 l 1
 331 0 l 1
 19 0 l 1
 19 51 l 1
 23 51 l 2
 88 51 99 57 99 97 c 2
 99 144 l 1
 99 578 l 2
 99 667 96 671 35 671 c 2
 16 671 l 1
 16 722 l 1xd0
 256 737 l 1xb0
EndSplineSet
EndChar

StartChar: m
Encoding: 109 109 76
Width: 963
VWidth: 1000
Flags: W
HStem: 0 51<20 25 25 57 938 942> 395 93<313.867 441.5 613.599 750.5> 415 51<20 20> 453 20<248 248>
VStem: 100 157<98 144 144 278> 403 157<98 144 144 278> 706 157<97 144 144 306 306 337>
CounterMasks: 1 00
LayerCount: 2
Fore
SplineSet
248 473 m 1x9e
 248 394 l 1
 288 457 341 488 408 488 c 0
 475 488 528 454 549 398 c 1
 596 462 642 488 706 488 c 0
 795 488 863 425 863 343 c 2
 863 144 l 1
 863 97 l 2
 863 58 874 51 938 51 c 2
 942 51 l 1
 942 0 l 1
 648 0 l 1
 648 51 l 1
 699 52 706 58 706 97 c 2
 706 144 l 1
 706 306 l 2
 706 368 689 395 651 395 c 0
 595 395 560 349 560 278 c 2
 560 144 l 1
 560 97 l 2
 560 58 567 52 618 51 c 1
 618 0 l 1
 346 0 l 1
 346 51 l 1
 396 52 403 58 403 98 c 2
 403 144 l 1
 403 302 l 2
 403 368 387 395 348 395 c 0xce
 293 395 257 349 257 278 c 2
 257 144 l 1
 257 97 l 2
 257 58 264 52 315 51 c 1
 315 0 l 1
 20 0 l 1
 20 51 l 1
 25 51 l 2
 89 51 100 57 100 98 c 2
 100 144 l 1
 100 321 l 2
 100 410 97 415 36 415 c 2
 20 415 l 1
 20 466 l 1xae
 248 473 l 1x9e
EndSplineSet
EndChar

StartChar: n
Encoding: 110 110 77
Width: 685
VWidth: 1000
Flags: W
HStem: 0 51<20 24 24 56 295.5 325 363 392.5 664 668> 395 93<323.525 453> 415 51<20 20> 453 20<249 249>
VStem: 99 157<98 144 144 241> 432 157<97 98 98 144 144 297 297 311>
LayerCount: 2
Fore
SplineSet
249 473 m 1x9c
 249 385 l 1
 298 459 348 488 427 488 c 0
 479 488 524 471 551 440 c 0
 578 411 589 373 589 311 c 2
 589 144 l 1
 589 98 l 2
 589 57 600 51 664 51 c 2
 668 51 l 1
 668 0 l 1
 363 0 l 1
 363 51 l 1
 422 51 432 58 432 97 c 2
 432 144 l 1
 432 297 l 2
 432 361 406 395 359 395 c 0xcc
 323 395 288 372 272 336 c 0
 260 312 256 286 256 241 c 2
 256 144 l 1
 256 97 l 2
 256 58 266 51 325 51 c 1
 325 0 l 1
 20 0 l 1
 20 51 l 1
 24 51 l 2
 88 51 99 57 99 98 c 2
 99 144 l 1
 99 318 l 2
 99 411 96 415 35 415 c 2
 20 415 l 1
 20 466 l 1xac
 249 473 l 1x9c
EndSplineSet
EndChar

StartChar: o
Encoding: 111 111 78
Width: 611
VWidth: 1000
Flags: MW
HStem: -15 52<271.5 337> 436 52<272.5 323.5>
VStem: 31 173<170 302> 406 173<171.5 261>
LayerCount: 2
Fore
SplineSet
308 488 m 0
 460 488 579 376 579 234 c 0
 579 91 462 -15 304 -15 c 0
 146 -15 31 91 31 236 c 0
 31 380 149 488 308 488 c 0
306 436 m 0
 239 436 204 368 204 236 c 0
 204 104 238 37 305 37 c 0
 369 37 406 108 406 235 c 0
 406 287 398 344 386 377 c 0
 373 412 341 436 306 436 c 0
EndSplineSet
EndChar

StartChar: p
Encoding: 112 112 79
Width: 667
VWidth: 1000
Flags: W
HStem: -202 50<18 22 22 54 330 341> -15 68<367.5 389.5> 413 75<376 396> 415 51<18 18> 453 20<254 254>
VStem: 97 157<-105 -58 -58 50> 459 173<176 291>
LayerCount: 2
Fore
SplineSet
254 473 m 1xce
 254 409 l 1
 299 466 342 488 410 488 c 0xe6
 538 488 632 387 632 249 c 0
 632 99 530 -15 396 -15 c 0
 339 -15 294 6 254 50 c 1
 254 -58 l 1
 254 -105 l 2
 254 -145 265 -152 330 -152 c 2
 341 -152 l 1
 341 -202 l 1
 18 -202 l 1
 18 -152 l 1
 22 -152 l 2
 86 -152 97 -145 97 -105 c 2
 97 -58 l 1
 97 318 l 1
 96 413 95 415 33 415 c 2
 18 415 l 1
 18 466 l 1xd6
 254 473 l 1xce
366 413 m 0
 293 413 253 347 253 229 c 0
 253 116 291 53 358 53 c 0
 421 53 459 120 459 232 c 0
 459 350 426 413 366 413 c 0
EndSplineSet
EndChar

StartChar: q
Encoding: 113 113 80
Width: 648
VWidth: 1000
Flags: MW
HStem: -202 50<317 328 328 360.5 636 640> -15 68<272 281.5> 436 52<275 325>
VStem: 34 173<199 302> 404 157<-105 -58 -58 58 58 58>
LayerCount: 2
Fore
SplineSet
527 487 m 1
 576 487 l 1
 566 408 561 333 561 272 c 2
 561 -58 l 1
 561 -105 l 2
 561 -145 572 -152 636 -152 c 2
 640 -152 l 1
 640 -202 l 1
 317 -202 l 1
 317 -152 l 1
 328 -152 l 2
 393 -152 404 -145 404 -105 c 2
 404 -58 l 1
 404 58 l 1
 361 8 313 -15 250 -15 c 0
 192 -15 130 12 95 53 c 1
 58 94 34 166 34 232 c 0
 34 379 143 488 289 488 c 0
 365 488 418 463 463 407 c 1
 527 487 l 1
308 436 m 0
 242 436 207 368 207 236 c 0
 207 116 240 53 304 53 c 128
 368 53 407 129 407 253 c 0
 407 306 402 342 390 372 c 0
 374 411 342 436 308 436 c 0
EndSplineSet
EndChar

StartChar: r
Encoding: 114 114 81
Width: 519
VWidth: 1000
Flags: W
HStem: 0 51<18 22 22 54 330 352> 415 51<18 18> 453 20<241 241> 468 20<368.5 439>
LayerCount: 2
Fore
SplineSet
241 473 m 1xa0
 241 352 l 1
 277 444 330 488 407 488 c 0
 471 488 517 445 517 387 c 0
 517 338 480 301 431 301 c 0
 388 301 356 332 356 375 c 0
 356 393 360 404 373 422 c 1
 339 412 318 394 297 357 c 0
 272 313 255 234 255 164 c 2
 255 144 l 1
 255 98 l 2
 255 57 266 51 330 51 c 2
 352 51 l 1
 352 0 l 1
 18 0 l 1
 18 51 l 1
 22 51 l 2
 86 51 97 57 97 98 c 2
 97 144 l 1
 97 318 l 2
 97 411 94 415 33 415 c 2
 18 415 l 1
 18 466 l 1xd0
 241 473 l 1xa0
EndSplineSet
EndChar

StartChar: s
Encoding: 115 115 82
Width: 500
VWidth: 1000
Flags: W
HStem: -15 52<239 291.5> 2 173<43 83 43 43> 320 158<396 439> 436 52<211.5 259>
VStem: 42 110<365 373> 351 115<105 111>
LayerCount: 2
Fore
SplineSet
439 478 m 1x2c
 443 320 l 1
 396 320 l 1x2c
 347 402 300 436 236 436 c 0
 187 436 152 412 152 378 c 0
 152 352 165 342 214 329 c 2
 304 307 l 2
 376 289 397 280 423 257 c 0
 451 232 466 197 466 155 c 0
 466 55 383 -15 265 -15 c 0x9c
 213 -15 161 -2 124 20 c 1
 85 2 l 1
 43 2 l 1
 38 175 l 1
 83 175 l 1x4c
 131 80 188 37 265 37 c 0
 318 37 351 60 351 96 c 0
 351 126 331 143 281 154 c 2
 208 170 l 2
 143 184 114 198 84 227 c 0
 57 253 42 288 42 326 c 0
 42 420 123 488 235 488 c 0x9c
 283 488 321 478 359 456 c 1
 396 478 l 1
 439 478 l 1x2c
EndSplineSet
EndChar

StartChar: t
Encoding: 116 116 83
Width: 426
VWidth: 1000
Flags: MW
HStem: -15 85<207.5 332.454> 413 60<251 381>
VStem: 94 157<174 413>
LayerCount: 2
Fore
SplineSet
381 473 m 1
 381 413 l 1
 251 413 l 1
 251 156 l 2
 251 88 259 70 288 70 c 0
 329 70 352 112 351 186 c 1
 404 186 l 1
 405 176 405 168 405 163 c 0
 405 120 390 72 365 40 c 0
 338 4 293 -15 236 -15 c 0
 179 -15 136 5 115 40 c 0
 98 68 94 92 94 174 c 2
 94 413 l 1
 23 413 l 1
 23 465 l 1
 118 476 172 543 188 671 c 1
 251 671 l 1
 251 473 l 1
 381 473 l 1
EndSplineSet
EndChar

StartChar: u
Encoding: 117 117 84
Width: 685
VWidth: 1000
Flags: W
HStem: -15 93<223 356.251> 0 20 11 54<667 667> 415 51<13 13 347 347> 453 20<250 250 584 584>
VStem: 93 157<191 318 318 318> 427 157<238 318 318 364.5>
LayerCount: 2
Fore
SplineSet
584 473 m 1x0e
 584 131 l 1
 584 108 l 2
 584 72 592 65 639 65 c 2
 667 65 l 1
 667 11 l 1x2e
 434 0 l 1x46
 434 82 l 1
 376 11 328 -15 257 -15 c 0
 189 -15 136 16 109 71 c 0
 95 99 93 117 93 191 c 2
 93 318 l 1
 92 413 91 415 29 415 c 2
 13 415 l 1
 13 466 l 1x96
 250 473 l 1x0e
 250 185 l 2
 250 109 271 78 321 78 c 0
 359 78 394 101 410 135 c 0
 423 160 427 188 427 238 c 2
 427 318 l 2
 427 411 424 415 363 415 c 2
 347 415 l 1
 347 466 l 1x96
 584 473 l 1x0e
EndSplineSet
EndChar

StartChar: v
Encoding: 118 118 85
Width: 611
VWidth: 1000
Flags: MW
HStem: -14 20 423 50<275 294 371 398.5 574 594 594 598>
LayerCount: 2
Fore
SplineSet
357 140 m 1
 430 324 l 2
 445 361 448 370 448 384 c 0
 448 412 426 423 371 423 c 1
 371 473 l 1
 598 473 l 5
 598 423 l 1
 594 423 l 2
 554 423 532 402 503 335 c 1
 349 -14 l 1
 264 -14 l 1
 80 370 l 2
 59 414 49 421 12 423 c 1
 12 473 l 1
 294 473 l 1
 294 423 l 1
 256 423 242 417 242 400 c 0
 242 394 245 384 250 374 c 2
 357 140 l 1
EndSplineSet
EndChar

StartChar: w
Encoding: 119 119 86
Width: 889
VWidth: 1000
Flags: MW
HStem: -14 20 453 20<19 295 295 295 326 605 605 605 650 876 876 876>
LayerCount: 2
Fore
SplineSet
642 154 m 1
 712 324 l 2
 722 348 726 364 726 376 c 0
 726 404 699 422 657 422 c 2
 650 422 l 1
 650 473 l 1
 876 473 l 1
 876 422 l 1
 831 419 811 401 782 337 c 2
 625 -14 l 1
 550 -14 l 1
 443 249 l 1
 329 -14 l 1
 253 -14 l 1
 90 366 l 2
 72 408 58 420 19 422 c 1
 19 473 l 1
 295 473 l 1
 295 422 l 1
 255 421 246 417 246 398 c 0
 246 393 246 393 253 375 c 2
 340 154 l 1
 412 324 l 1
 387 384 l 2
 374 415 363 422 326 422 c 1
 326 473 l 1
 605 473 l 1
 605 422 l 1
 598 422 l 2
 560 422 544 415 544 399 c 0
 544 394 546 386 550 377 c 2
 642 154 l 1
EndSplineSet
EndChar

StartChar: x
Encoding: 120 120 87
Width: 611
VWidth: 1000
Flags: MW
HStem: 0 20 453 20<13 309 309 309 342 588 588 588>
LayerCount: 2
Fore
SplineSet
370 272 m 1
 508 108 l 2
 550 59 561 52 598 51 c 1
 598 0 l 1
 284 0 l 1
 284 51 l 1
 291 51 l 2
 318 51 331 58 331 74 c 0
 331 81 328 87 320 96 c 2
 261 167 l 1
 201 108 l 2
 192 99 187 89 187 79 c 0
 187 62 205 51 234 51 c 2
 247 51 l 1
 247 0 l 1
 13 0 l 1
 13 51 l 1
 43 52 66 64 102 97 c 2
 223 212 l 1
 80 383 l 2
 54 414 43 420 13 422 c 1
 13 473 l 1
 309 473 l 1
 309 422 l 1
 298 422 l 2
 277 422 265 416 265 406 c 0
 265 400 268 394 276 385 c 2
 333 316 l 1
 384 365 l 2
 399 379 405 389 405 399 c 0
 405 413 390 422 365 422 c 2
 342 422 l 1
 342 473 l 1
 588 473 l 1
 588 422 l 1
 545 422 515 408 474 370 c 2
 370 272 l 1
EndSplineSet
EndChar

StartChar: y
Encoding: 121 121 88
Width: 611
VWidth: 1000
Flags: MW
HStem: -206 68<169.5 176> 453 20<14 298 298 298 373 598 598 598>
VStem: 10 153<-133.5 -131.5>
LayerCount: 2
Fore
SplineSet
359 158 m 1
 442 341 l 2
 447 353 451 371 451 382 c 0
 451 408 427 422 384 422 c 2
 373 422 l 1
 373 473 l 1
 598 473 l 1
 598 422 l 1
 557 420 536 401 507 340 c 1
 332 -37 l 1
 278 -155 218 -206 134 -206 c 0
 59 -206 10 -169 10 -114 c 0
 10 -65 48 -27 97 -27 c 0
 141 -27 172 -55 172 -95 c 0
 172 -109 170 -119 164 -129 c 0
 163 -130 163 -131 163 -132 c 0
 163 -135 167 -138 172 -138 c 0
 200 -138 231 -110 257 -59 c 1
 280 -16 l 1
 75 382 l 1
 59 415 51 421 14 422 c 1
 14 473 l 1
 298 473 l 1
 298 422 l 1
 280 422 l 2
 256 422 245 415 245 401 c 0
 245 394 248 384 253 374 c 2
 359 158 l 1
EndSplineSet
EndChar

StartChar: z
Encoding: 122 122 89
Width: 537
VWidth: 1000
Flags: MW
HStem: 0 50<225 287 287 321> 423 50<221 256 256 307>
LayerCount: 2
Fore
SplineSet
495 473 m 1
 495 425 l 1
 225 50 l 1
 287 50 l 2
 355 50 371 56 397 88 c 0
 419 115 432 142 446 190 c 1
 495 190 l 1
 485 0 l 1
 35 0 l 1
 35 44 l 1
 307 423 l 1
 256 423 l 2
 186 423 168 418 146 395 c 0
 131 379 121 355 102 293 c 1
 51 293 l 1
 63 473 l 1
 495 473 l 1
EndSplineSet
EndChar

StartChar: braceleft
Encoding: 123 123 90
Width: 389
VWidth: 1000
Flags: MW
HStem: 676 46<343 343>
VStem: 160 123<42 64 64 152 152 182 462 550 550 572 572 605>
LayerCount: 2
Fore
SplineSet
84 285 m 1
 84 329 l 1
 126 339 141 349 152 375 c 0
 159 392 160 402 160 462 c 2
 160 572 l 2
 160 638 170 674 196 695 c 0
 214 711 254 722 291 722 c 2
 343 722 l 1
 343 676 l 1
 298 672 283 653 283 606 c 2
 283 550 l 1
 283 432 l 2
 283 355 260 327 181 307 c 1
 260 287 283 259 283 182 c 2
 283 64 l 2
 283 -22 283 -22 292 -37 c 0
 302 -53 315 -59 343 -62 c 1
 343 -108 l 1
 291 -108 l 2
 254 -108 214 -97 196 -81 c 0
 170 -60 160 -24 160 42 c 2
 160 152 l 2
 160 218 159 228 148 247 c 0
 136 267 122 275 84 285 c 1
EndSplineSet
EndChar

StartChar: bar
Encoding: 124 124 91
Width: 606
VWidth: 1000
Flags: MW
HStem: 0 20 702 20<243 362 362 362>
VStem: 243 119<0 722>
LayerCount: 2
Fore
SplineSet
362 722 m 1
 362 0 l 1
 243 0 l 1
 243 722 l 1
 362 722 l 1
EndSplineSet
EndChar

StartChar: braceright
Encoding: 125 125 92
Width: 389
VWidth: 1000
Flags: MW
HStem: 676 46<31 31>
VStem: 93 123<64 152 432 462 462 550 550 572>
LayerCount: 2
Fore
SplineSet
290 329 m 1
 290 285 l 1
 249 275 234 265 224 239 c 0
 217 221 216 212 216 152 c 2
 216 42 l 2
 216 -24 206 -60 180 -81 c 0
 162 -97 122 -108 85 -108 c 2
 31 -108 l 1
 31 -62 l 1
 60 -59 73 -53 83 -37 c 0
 93 -22 93 -22 93 64 c 2
 93 182 l 2
 93 259 116 287 195 307 c 1
 116 327 93 355 93 432 c 2
 93 550 l 1
 93 606 l 2
 93 653 77 672 31 676 c 1
 31 722 l 1
 85 722 l 2
 122 722 162 711 180 695 c 0
 206 674 216 638 216 572 c 2
 216 462 l 2
 216 397 217 386 228 367 c 0
 239 347 253 338 290 329 c 1
EndSplineSet
EndChar

StartChar: asciitilde
Encoding: 126 126 93
Width: 606
VWidth: 1000
Flags: W
HStem: 160 114<399.5 415.5> 221 114<190.5 206.5>
LayerCount: 2
Fore
SplineSet
135 169 m 1x40
 51 222 l 1
 91 297 140 335 195 335 c 0x40
 218 335 240 329 285 312 c 2
 338 293 l 2
 381 276 389 274 404 274 c 0
 427 274 443 286 471 326 c 1
 555 273 l 1
 514 198 466 160 411 160 c 0x80
 388 160 366 165 321 183 c 1
 268 202 l 2
 225 219 217 221 202 221 c 0
 179 221 163 209 135 169 c 1x40
EndSplineSet
EndChar

StartChar: sterling
Encoding: 163 163 94
Width: 574
VWidth: 1000
Flags: W
HStem: -15 100<358 380> 307 65<34 108 251 459> 651 53<317 343>
VStem: 85 151<496 526> 369 174<526 548>
LayerCount: 2
Back
SplineSet
459 378 m 1
 459 318 l 1
 313 318 l 1
 316 295 317 284 317 273 c 0
 317 230 306 191 280 139 c 1
 319 125 354 119 392 119 c 0
 455 119 490 143 510 200 c 1
 561 186 l 1
 537 57 474 -14 384 -14 c 0
 331 -14 283 6 231 50 c 1
 200 5 165 -14 117 -14 c 0
 59 -14 19 23 19 77 c 0
 19 132 65 174 126 174 c 0
 148 174 166 171 196 161 c 1
 197 171 197 179 197 184 c 0
 197 220 179 283 158 318 c 1
 34 318 l 1
 34 378 l 1
 136 378 l 1
 118 431 112 462 112 500 c 0
 112 620 211 708 345 708 c 0
 460 708 543 641 543 548 c 4
 543 491 503 449 448 449 c 4
 403 449 369 482 369 526 c 4
 369 554 381 573 409 588 c 4
 429 599 433 603 433 612 c 4
 433 636 398 656 357 656 c 0
 303 656 265 619 265 566 c 0
 265 528 277 472 304 378 c 1
 459 378 l 1
182 92 m 1
 156 115 140 122 116 122 c 0
 88 122 69 104 69 79 c 0
 69 55 88 38 113 38 c 0
 146 38 166 54 182 92 c 1
EndSplineSet
Fore
SplineSet
433 612 m 4
 433 637 402 651 341 651 c 4
 282 651 234.719 593.984 236 508 c 0
 236.83 452.367 244.738 415.824 251.504 372 c 1
 459 372 l 1
 459 307 l 1
 259.062 307 l 1
 265.279 215.669 251.588 132.866 180 71 c 1
 265 88 307.526 85.7051 359 85 c 0
 432 84 481 131 512 200 c 1
 561 185 l 1
 536 53 472 -15 378 -15 c 0
 328 -15 189 15 49 -8 c 1
 41 66 l 1
 112.635 118.718 120.921 216.839 108.532 307 c 1
 34 307 l 1
 34 372 l 1
 97.1377 372 l 1
 89.1768 419.304 85 465.874 85 506 c 0
 85 624 178.859 704 317.312 704 c 4
 456 704 543 652 543 548 c 4
 543 491 503 449 448 449 c 4
 403 449 369 482 369 526 c 4
 369 554 381 573 409 588 c 4
 429 599 433 603 433 612 c 4
EndSplineSet
EndChar

StartChar: uni0591
Encoding: 1425 1425 95
Width: 0
VWidth: 1000
Flags: W
VStem: -35.2939 70.5888<-137 -60>
LayerCount: 2
Back
SplineSet
91.7646 -140.992 m 1
 91.7646 -60 l 1
 148.235 -60 l 1
 148.235 -140.992 l 1
 200.865 -153.7 240 -201.132 240 -257.647 c 1
 183.529 -257.647 l 1
 183.529 -222.579 155.068 -194.118 120 -194.118 c 0
 84.9316 -194.118 56.4707 -222.579 56.4707 -257.647 c 1
 0 -257.647 l 1
 0 -201.132 39.1348 -153.7 91.7646 -140.992 c 1
EndSplineSet
Fore
SplineSet
-35.2939 -135.562 m 5
 -35.2939 -60 l 5
 35.2949 -60 l 5
 35.2949 -135.562 l 5
 88.2773 -150.867 127.059 -199.756 127.059 -257.647 c 4
 56.4707 -257.647 l 4
 56.4707 -226.476 31.1719 -201.177 0.000976562 -201.177 c 4
 -31.1719 -201.177 -56.4707 -226.476 -56.4707 -257.647 c 4
 -127.059 -257.647 l 5
 -127.059 -199.756 -88.2773 -150.867 -35.2939 -135.562 c 5
EndSplineSet
EndChar

StartChar: uni0592
Encoding: 1426 1426 96
Width: 0
VWidth: 1070
Flags: W
LayerCount: 2
Back
SplineSet
99.999 780 m 0
 77.9189 780 59.999 797.919 59.999 819.998 c 0
 59.999 842.079 77.9189 859.998 99.999 859.998 c 0
 122.082 859.998 140 842.079 140 819.998 c 0
 140 797.919 122.082 780 99.999 780 c 0
40.002 660 m 0
 17.9199 660 0 677.92 0 700 c 0
 0 722.078 17.9199 740 40.002 740 c 0
 62.0811 740 80.001 722.078 80.001 700 c 0
 80.001 677.92 62.0811 660 40.002 660 c 0
159.999 660 m 0
 137.919 660 119.999 677.92 119.999 700 c 0
 119.999 722.078 137.919 740 159.999 740 c 0
 182.081 740 200 722.078 200 700 c 0
 200 677.92 182.081 660 159.999 660 c 0
EndSplineSet
Fore
SplineSet
-2.94141 771.843 m 0
 -27.2725 771.843 -47.0195 791.59 -47.0195 815.922 c 0
 -47.0195 840.253 -27.2725 860 -2.94141 860 c 0
 21.3896 860 41.1367 840.253 41.1367 815.922 c 0
 41.1367 791.59 21.3896 771.843 -2.94141 771.843 c 0
-55.8828 660 m 0
 -80.2568 660 -100.039 679.782 -100.039 704.157 c 0
 -100.039 728.531 -80.2568 748.312 -55.8828 748.312 c 0
 -31.5078 748.312 -11.7256 728.531 -11.7256 704.157 c 0
 -11.7256 679.782 -31.5078 660 -55.8828 660 c 0
55.8818 660 m 0
 31.5078 660 11.7256 679.782 11.7256 704.157 c 0
 11.7256 728.531 31.5078 748.312 55.8818 748.312 c 0
 80.2568 748.312 100.039 728.531 100.039 704.157 c 0
 100.039 679.782 80.2568 660 55.8818 660 c 0
EndSplineSet
EndChar

StartChar: uni0593
Encoding: 1427 1427 97
Width: 0
VWidth: 1000
Flags: W
LayerCount: 2
Back
SplineSet
98.8242 914.117 m 1
 183.529 871.765 l 1
 98.8242 829.411 l 1
 183.529 787.059 l 1
 98.8242 744.705 l 1
 183.529 702.353 l 1
 98.8242 660 l 1
 49.4121 684.705 l 1
 84.7051 702.353 l 1
 0 744.705 l 1
 84.7051 787.059 l 1
 0 829.411 l 1
 84.7051 871.765 l 1
 49.4121 889.411 l 1
 98.8242 914.117 l 1
EndSplineSet
Fore
SplineSet
7.05859 914.823 m 1
 91.7646 867.882 l 1
 21.1768 827.646 l 1
 91.7646 787.412 l 1
 21.1768 747.177 l 1
 91.7646 706.941 l 1
 7.05859 660 l 1
 -45.8818 690.177 l 1
 -21.1768 706.941 l 1
 -91.7646 747.177 l 1
 -21.1768 787.412 l 1
 -91.7646 827.646 l 1
 -21.1768 867.882 l 1
 -45.8818 884.646 l 1
 7.05859 914.823 l 1
EndSplineSet
EndChar

StartChar: uni0594
Encoding: 1428 1428 98
Width: 0
VWidth: 1000
Flags: W
LayerCount: 2
Back
SplineSet
40 740 m 4
 62.0781 740 80.001 722.08 80.001 700.002 c 4
 80.001 677.923 62.0781 660 40 660 c 4
 17.9229 660 -0 677.923 -0 700.002 c 4
 -0 722.08 17.9229 740 40 740 c 4
40 859.998 m 4
 62.0781 859.998 80.001 842.078 80.001 819.998 c 4
 80.001 797.92 62.0781 779.998 40 779.998 c 4
 17.9229 779.998 -0 797.92 -0 819.998 c 4
 -0 842.078 17.9229 859.998 40 859.998 c 4
EndSplineSet
Fore
SplineSet
0.000976562 748.157 m 0
 24.332 748.157 44.0781 728.41 44.0781 704.078 c 0
 44.0781 679.747 24.332 660 0.000976562 660 c 0
 -24.3311 660 -44.0781 679.747 -44.0781 704.078 c 0
 -44.0781 728.41 -24.3311 748.157 0.000976562 748.157 c 0
0.000976562 860 m 0
 24.375 860 44.1562 840.218 44.1562 815.843 c 0
 44.1562 791.469 24.375 771.688 0.000976562 771.688 c 0
 -24.374 771.688 -44.1562 791.469 -44.1562 815.843 c 0
 -44.1562 840.218 -24.374 860 0.000976562 860 c 0
EndSplineSet
EndChar

StartChar: uni0595
Encoding: 1429 1429 99
Width: 0
VWidth: 1000
Flags: W
VStem: -105.077 69.9999<660 864>
LayerCount: 2
Back
SplineSet
44.1572 -171.843 m 4
 68.4883 -171.843 88.2344 -191.59 88.2344 -215.922 c 4
 88.2344 -240.253 68.4883 -260 44.1572 -260 c 4
 19.8252 -260 0.078125 -240.253 0.078125 -215.922 c 4
 0.078125 -191.59 19.8252 -171.843 44.1572 -171.843 c 4
44.1572 -60 m 4
 68.5312 -60 88.3125 -79.7822 88.3125 -104.157 c 4
 88.3125 -128.531 68.5312 -148.313 44.1572 -148.313 c 4
 19.7822 -148.313 0 -128.531 0 -104.157 c 4
 0 -79.7822 19.7822 -60 44.1572 -60 c 4
0 864 m 1
 60.002 863.934 l 1
 60.002 660 l 1
 0 660.067 l 1
 0 864 l 1
148.002 740 m 0
 170.08 740 188.003 722.08 188.003 700.002 c 0
 188.003 677.923 170.08 660 148.002 660 c 0
 125.925 660 108.002 677.923 108.002 700.002 c 0
 108.002 722.08 125.925 740 148.002 740 c 0
148.002 859.998 m 0
 170.08 859.998 188.003 842.078 188.003 819.998 c 0
 188.003 797.92 170.08 779.998 148.002 779.998 c 0
 125.925 779.998 108.002 797.92 108.002 819.998 c 0
 108.002 842.078 125.925 859.998 148.002 859.998 c 0
EndSplineSet
Fore
SplineSet
-105.077 864 m 1
 -35.0771 864 l 257
 -35.0771 660 l 1
 -105.077 660 l 1
 -105.077 864 l 1
60.9229 748.157 m 0
 85.2539 748.157 104.999 728.41 104.999 704.078 c 0
 104.999 679.747 85.2539 660 60.9229 660 c 0
 36.5908 660 16.8438 679.747 16.8438 704.078 c 0
 16.8438 728.41 36.5908 748.157 60.9229 748.157 c 0
60.9229 860 m 0
 85.2969 860 105.077 840.218 105.077 815.843 c 0
 105.077 791.469 85.2969 771.688 60.9229 771.688 c 0
 36.5479 771.688 16.7656 791.469 16.7656 815.843 c 0
 16.7656 840.218 36.5479 860 60.9229 860 c 0
EndSplineSet
EndChar

StartChar: uni0596
Encoding: 1430 1430 100
Width: 0
VWidth: 1000
Flags: W
LayerCount: 2
Back
SplineSet
127.256 -236.471 m 1
 99.0205 -271.766 l 1
 34.3252 -221.751 0 -151.827 0 -70.0537 c 0
 0 -66.5195 0.0585938 -63.5312 0.198242 -60 c 1
 56.668 -60 l 1
 59.2207 -128.072 82.1592 -185.417 127.256 -236.471 c 1
EndSplineSet
Fore
SplineSet
28.334 -271.766 m 1
 -36.3613 -221.751 -70.6875 -151.827 -70.6875 -70.0537 c 0
 -70.6875 -66.5195 -70.6289 -63.5312 -70.4893 -60 c 0
 0.0986328 -60 l 1
 2.65137 -128.072 25.5898 -185.417 70.6875 -236.471 c 1
 28.334 -271.766 l 1
EndSplineSet
EndChar

StartChar: uni0597
Encoding: 1431 1431 101
Width: 0
VWidth: 1000
Flags: W
LayerCount: 2
Back
SplineSet
0 754.117 m 1
 70.5889 848.235 l 5
 141.177 754.117 l 1
 70.5889 660 l 1
 0 754.117 l 1
EndSplineSet
Fore
SplineSet
-94.1172 754.117 m 5
 -0 848.235 l 5
 94.1172 754.117 l 5
 -0 660 l 5
 -94.1172 754.117 l 5
EndSplineSet
EndChar

StartChar: uni0598
Encoding: 1432 1432 102
Width: 0
VWidth: 1000
Flags: W
HStem: 654.177 58.823<65 73> 754.177 58.823<-73 -66>
VStem: -167.566 58.824<702.213 719> 108.742 58.824<749 756>
LayerCount: 2
Back
SplineSet
260.5 800 m 1
 310.033 800 l 1
 312.31 795 322.235 777.591 322.235 753.742 c 0
 322.235 701.996 280.239 660 228.494 660 c 0
 186.41 660 150.775 687.778 138.935 725.985 c 0
 132.985 745.409 115.01 759.601 93.7402 759.601 c 0
 67.8682 759.601 46.8701 738.603 46.8701 712.729 c 0
 46.8701 697.227 58 675 66 664 c 1
 13.6592 664 l 1
 7.05797 677 0 690.206 0 712.729 c 0
 0 764.475 41.9961 806.471 93.7402 806.471 c 0
 136.724 806.471 173.137 777.908 184.183 738.436 c 0
 190.531 720.071 207.98 706.871 228.494 706.871 c 0
 254.366 706.871 275.364 727.869 275.364 753.742 c 0
 275.364 768.766 269 787.679 260.5 800 c 1
EndSplineSet
Fore
SplineSet
-86.6836 660 m 9
 -152.367 660 l 17
 -161.997 675.369 -167.566 693.538 -167.566 713 c 0
 -167.566 768.2 -122.766 813 -67.5664 813 c 0
 -22.2666 813 16.0205 783.08 28.3008 741.75 c 0
 33.5742 725.088 49.166 713 67.5664 713 c 0
 90.2959 713 108.742 731.447 108.742 754.177 c 0
 108.742 776.906 98.3164 791 88.8164 805 c 9
 153.692 805 l 17
 162.507 790.104 167.566 772.729 167.566 754.177 c 0
 167.566 698.977 122.766 654.177 67.5664 654.177 c 0
 22.6064 654.177 -15.4541 683.896 -28.0283 724.75 c 0
 -33.1543 741.761 -48.9199 754.177 -67.5664 754.177 c 0
 -90.2949 754.177 -108.742 735.729 -108.742 713 c 128
 -108.742 690.271 -95.6836 674.5 -86.6836 660 c 9
EndSplineSet
EndChar

StartChar: uni0599
Encoding: 1433 1433 103
Width: 0
VWidth: 1000
Flags: W
LayerCount: 2
Fore
SplineSet
-28.334 871.766 m 1
 36.3613 821.751 70.6875 751.827 70.6875 670.054 c 0
 70.6875 666.52 70.6289 663.531 70.4893 660 c 0
 -0.0986328 660 l 1
 -2.65137 728.072 -25.5898 785.417 -70.6875 836.471 c 1
 -28.334 871.766 l 1
EndSplineSet
EndChar

StartChar: uni059A
Encoding: 1434 1434 104
Width: 0
VWidth: 1000
Flags: W
DStem2: -127.411 -158.824 6.70605 -158.824 0.884917 0.465749<118.682 212.183> 6.70605 -158.824 -127.411 -158.824 0.884919 -0.465745<0 93.5>
LayerCount: 2
Back
SplineSet
197.646 -60 m 5
 254.117 -88.2354 l 5
 112.941 -158.823 l 5
 254.117 -229.412 l 5
 197.646 -257.647 l 5
 0 -158.823 l 5
 197.646 -60 l 5
EndSplineSet
Fore
SplineSet
60.3535 -60 m 1
 127.411 -95.2949 l 1
 6.70605 -158.824 l 1
 127.411 -222.354 l 1
 60.3535 -257.647 l 1
 -127.411 -158.824 l 1
 60.3535 -60 l 1
EndSplineSet
EndChar

StartChar: uni059B
Encoding: 1435 1435 105
Width: 0
VWidth: 1000
Flags: W
LayerCount: 2
Back
SplineSet
40 -60 m 0
 62.0781 -60 80.001 -77.9199 80.001 -100 c 0
 80.001 -122.078 62.0781 -140.001 40 -140.001 c 0
 17.9229 -140.001 0 -122.078 0 -100 c 0
 0 -77.9199 17.9229 -60 40 -60 c 0
70.4121 -236.471 m 1
 115.509 -185.417 138.447 -128.072 141 -60 c 1
 197.47 -60 l 1
 197.609 -63.5312 197.668 -66.5195 197.668 -70.0537 c 0
 197.668 -151.827 163.343 -221.751 98.6475 -271.766 c 1
 70.4121 -236.471 l 1
EndSplineSet
Fore
SplineSet
-57.7354 -60 m 0
 -33.3613 -60 -13.5801 -79.7822 -13.5801 -104.157 c 0
 -13.5801 -128.531 -33.3613 -148.313 -57.7354 -148.313 c 0
 -82.1104 -148.313 -101.893 -128.531 -101.893 -104.157 c 0
 -101.893 -79.7822 -82.1104 -60 -57.7354 -60 c 0
2.87207 -271.766 m 1
 -39.4814 -236.471 l 1
 5.61621 -185.417 28.5537 -128.072 31.1074 -60 c 1
 101.695 -60 l 0
 101.835 -63.5312 101.893 -66.5195 101.893 -70.0537 c 0
 101.893 -151.827 67.5674 -221.751 2.87207 -271.766 c 1
EndSplineSet
EndChar

StartChar: uni059C
Encoding: 1436 1436 106
Width: 0
VWidth: 1000
Flags: W
LayerCount: 2
Fore
SplineSet
28.334 871.766 m 1
 70.6875 836.471 l 1
 25.5898 785.417 2.65137 728.072 0.0986328 660 c 1
 -70.4893 660 l 0
 -70.6289 663.531 -70.6875 666.52 -70.6875 670.054 c 0
 -70.6875 751.827 -36.3613 821.751 28.334 871.766 c 1
EndSplineSet
EndChar

StartChar: uni059D
Encoding: 1437 1437 107
Width: 0
VWidth: 1000
Flags: W
LayerCount: 2
Fore
SplineSet
28.334 871.766 m 1
 70.6875 836.471 l 1
 25.5898 785.417 2.65137 728.072 0.0986328 660 c 1
 -70.4893 660 l 0
 -70.6289 663.531 -70.6875 666.52 -70.6875 670.054 c 0
 -70.6875 751.827 -36.3613 821.751 28.334 871.766 c 1
EndSplineSet
EndChar

StartChar: uni059E
Encoding: 1438 1438 108
Width: 0
VWidth: 1000
Flags: W
LayerCount: 2
Back
SplineSet
250.588 836.471 m 5
 205.491 785.417 182.553 728.072 180 660 c 5
 123.53 660 l 5
 123.391 663.531 123.332 666.52 123.332 670.054 c 4
 123.332 751.827 157.657 821.751 222.353 871.766 c 5
 250.588 836.471 l 5
127.256 836.471 m 1
 82.1592 785.417 59.2207 728.072 56.668 660 c 1
 0.198242 660 l 1
 0.0585938 663.531 0 666.52 0 670.054 c 0
 0 751.827 34.3252 821.751 99.0205 871.766 c 1
 127.256 836.471 l 1
EndSplineSet
Fore
SplineSet
96.334 871.766 m 1
 138.688 836.471 l 1
 93.5898 785.417 70.6514 728.072 68.0986 660 c 1
 -2.48926 660 l 0
 -2.62891 663.531 -2.6875 666.52 -2.6875 670.054 c 0
 -2.6875 751.827 31.6387 821.751 96.334 871.766 c 1
-39.666 871.766 m 1
 2.6875 836.471 l 1
 -42.4102 785.417 -65.3486 728.072 -67.9014 660 c 1
 -138.489 660 l 0
 -138.629 663.531 -138.688 666.52 -138.688 670.054 c 0
 -138.688 751.827 -104.361 821.751 -39.666 871.766 c 1
EndSplineSet
EndChar

StartChar: uni059F
Encoding: 1439 1439 109
Width: 0
VWidth: 1000
Flags: W
HStem: 695.294 49.412<-137 -133 132 140> 801.177 49.412<-137 -133 132 140>
VStem: -212.044 49.412<770 774> -106.161 49.411<770 774> 56.75 49.411<770 774> 162.632 49.412<770 774>
DStem2: -64.751 738.59 -100.045 703.295 0.707106 -0.707108<0.000810623 61.2292> 21.4551 695.294 56.75 660 0.707106 0.707108<0.000558853 61.2289>
LayerCount: 2
Back
SplineSet
346.412 815.294 m 0
 323.033 815.294 304.06 796.32 304.06 772.941 c 0
 304.06 749.562 323.033 730.588 346.412 730.588 c 0
 369.791 730.588 388.766 749.562 388.766 772.941 c 0
 388.766 796.32 369.791 815.294 346.412 815.294 c 0
307.469 705.763 m 1
 261.706 660 l 1
 233.471 688.235 l 1
 279.233 733.997 l 1
 272.578 745.447 268.766 758.752 268.766 772.941 c 0
 268.766 815.803 303.551 850.588 346.412 850.588 c 0
 389.273 850.588 424.061 815.803 424.061 772.941 c 0
 424.061 730.08 389.273 695.294 346.412 695.294 c 0
 332.223 695.294 318.92 699.106 307.469 705.763 c 1
77.6475 815.294 m 0
 54.2686 815.294 35.2939 796.32 35.2939 772.941 c 0
 35.2939 749.562 54.2686 730.588 77.6475 730.588 c 0
 101.026 730.588 120 749.562 120 772.941 c 0
 120 796.32 101.026 815.294 77.6475 815.294 c 0
116.591 705.763 m 1
 105.141 699.106 91.8369 695.294 77.6475 695.294 c 0
 34.7861 695.294 0 730.08 0 772.941 c 0
 0 815.803 34.7861 850.588 77.6475 850.588 c 0
 120.509 850.588 155.294 815.803 155.294 772.941 c 0
 155.294 758.752 151.481 745.447 144.826 733.997 c 1
 190.589 688.235 l 1
 162.354 660 l 1
 116.591 705.763 l 1
EndSplineSet
Fore
SplineSet
134.396 801.177 m 0
 118.81 801.177 106.161 788.527 106.161 772.941 c 128
 106.161 757.355 118.81 744.706 134.396 744.706 c 128
 149.982 744.706 162.632 757.355 162.632 772.941 c 128
 162.632 788.527 149.982 801.177 134.396 801.177 c 0
100.045 703.295 m 1
 56.75 660 l 1
 21.4551 695.294 l 1
 64.751 738.59 l 1
 59.6289 748.948 56.75 760.61 56.75 772.941 c 0
 56.75 815.803 91.5352 850.589 134.396 850.589 c 0
 177.258 850.589 212.044 815.803 212.044 772.941 c 0
 212.044 730.08 177.258 695.294 134.396 695.294 c 0
 122.065 695.294 110.403 698.173 100.045 703.295 c 1
-134.396 801.177 m 0
 -149.982 801.177 -162.632 788.527 -162.632 772.941 c 128
 -162.632 757.355 -149.982 744.706 -134.396 744.706 c 0
 -118.811 744.706 -106.161 757.355 -106.161 772.941 c 128
 -106.161 788.527 -118.811 801.177 -134.396 801.177 c 0
-100.045 703.295 m 1
 -110.403 698.173 -122.065 695.294 -134.396 695.294 c 0
 -177.258 695.294 -212.044 730.08 -212.044 772.941 c 0
 -212.044 815.803 -177.258 850.589 -134.396 850.589 c 0
 -91.5352 850.589 -56.75 815.803 -56.75 772.941 c 0
 -56.75 760.61 -59.6289 748.948 -64.751 738.59 c 1
 -21.4551 695.294 l 1
 -56.75 660 l 1
 -100.045 703.295 l 1
EndSplineSet
EndChar

StartChar: uni05A0
Encoding: 1440 1440 110
Width: 0
VWidth: 1000
Flags: W
HStem: 695.294 49.412<15 19> 801.177 49.412<15 19>
VStem: -60 49.4111<770 774> 45.8828 49.4121<770 774>
DStem2: -95.2949 695.294 -60 660 0.707106 0.707108<0.000558853 61.2289>
LayerCount: 2
Fore
SplineSet
17.6465 801.177 m 0
 2.06055 801.177 -10.5889 788.527 -10.5889 772.941 c 128
 -10.5889 757.355 2.06055 744.706 17.6465 744.706 c 0
 33.2324 744.706 45.8828 757.355 45.8828 772.941 c 128
 45.8828 788.527 33.2324 801.177 17.6465 801.177 c 0
-16.7051 703.295 m 1
 -60 660 l 1
 -95.2949 695.294 l 1
 -51.999 738.59 l 1
 -57.1211 748.948 -60 760.61 -60 772.941 c 0
 -60 815.803 -25.2148 850.589 17.6465 850.589 c 0
 60.5088 850.589 95.2949 815.803 95.2949 772.941 c 0
 95.2949 730.08 60.5088 695.294 17.6465 695.294 c 0
 5.31543 695.294 -6.34668 698.173 -16.7051 703.295 c 1
EndSplineSet
EndChar

StartChar: uni05A1
Encoding: 1441 1441 111
Width: 0
VWidth: 1000
Flags: W
HStem: 709.078 59.422<-23 -12>
VStem: -92.8242 69.8242<660 710 767 827> 34 58.8242<819 827>
LayerCount: 2
Back
SplineSet
56.4707 707.059 m 9
 56.4727 660 l 1
 0.00195312 660 l 1
 0 826.765 l 1
 56.4707 826.765 l 1
 56.5 764 l 17
 91.5684 764 120 791.99 120 827.059 c 1
 176.471 827.059 l 1
 176.471 760.818 122.711 707.059 56.4707 707.059 c 9
EndSplineSet
Fore
SplineSet
-23 709.078 m 1
 -23 660 l 1
 -92.8242 660 l 1
 -92.8242 827 l 1
 -23 827 l 1
 -23.0234 768.5 l 1
 -19.8115 767.807 -16.4775 767.441 -13.0586 767.441 c 0
 12.918 767.441 33.8242 801.117 34 827 c 0
 92.8242 827 l 0
 92.8242 768.553 45.3887 708.617 -13.0586 708.617 c 0
 -16.4111 708.617 -19.7266 708.773 -23 709.078 c 1
EndSplineSet
EndChar

StartChar: uni05A3
Encoding: 1443 1443 112
Width: 0
VWidth: 1070
Flags: W
HStem: -260 70<-117 47>
VStem: 47 69.999<-190 -60>
LayerCount: 2
Fore
SplineSet
-117 -260 m 1
 -117 -190 l 1
 47 -189.993 l 1
 47 -60 l 1
 117 -60.0068 l 1
 116.999 -260 l 1
 -117 -260 l 1
EndSplineSet
EndChar

StartChar: uni05A4
Encoding: 1444 1444 113
Width: 0
VWidth: 1000
Flags: W
DStem2: -127.411 -158.824 6.70605 -158.824 0.884917 0.465749<118.682 212.183> 6.70605 -158.824 -127.411 -158.824 0.884919 -0.465745<0 93.5>
LayerCount: 2
Fore
SplineSet
60.3535 -60 m 1
 127.411 -95.2949 l 1
 6.70605 -158.824 l 1
 127.411 -222.354 l 1
 60.3535 -257.647 l 1
 -127.411 -158.824 l 1
 60.3535 -60 l 1
EndSplineSet
EndChar

StartChar: uni05A5
Encoding: 1445 1445 114
Width: 0
VWidth: 1000
Flags: W
LayerCount: 2
Fore
SplineSet
-28.334 -271.766 m 1
 -70.6875 -236.471 l 1
 -25.5898 -185.417 -2.65137 -128.072 -0.0986328 -60 c 1
 70.4893 -60 l 0
 70.6289 -63.5312 70.6875 -66.5195 70.6875 -70.0537 c 0
 70.6875 -151.827 36.3613 -221.751 -28.334 -271.766 c 1
EndSplineSet
EndChar

StartChar: uni05A6
Encoding: 1446 1446 115
Width: 0
VWidth: 1000
Flags: W
LayerCount: 2
Back
SplineSet
0 -236.471 m 5
 45.0967 -185.417 68.0352 -128.072 70.5879 -60 c 5
 127.058 -60 l 5
 127.197 -63.5312 127.256 -66.5195 127.256 -70.0537 c 4
 127.256 -151.827 92.9307 -221.751 28.2354 -271.766 c 5
 0 -236.471 l 5
123.332 -236.471 m 5
 168.429 -185.417 191.367 -128.072 193.92 -60 c 5
 250.39 -60 l 5
 250.529 -63.5312 250.588 -66.5195 250.588 -70.0537 c 4
 250.588 -151.827 216.263 -221.751 151.567 -271.766 c 5
 123.332 -236.471 l 5
EndSplineSet
Fore
SplineSet
-96.334 -271.766 m 5
 -138.688 -236.471 l 5
 -93.5898 -185.417 -70.6514 -128.072 -68.0986 -60 c 5
 2.48926 -60 l 4
 2.62891 -63.5312 2.6875 -66.5195 2.6875 -70.0537 c 4
 2.6875 -151.827 -31.6387 -221.751 -96.334 -271.766 c 5
39.666 -271.766 m 5
 -2.6875 -236.471 l 5
 42.4102 -185.417 65.3486 -128.072 67.9014 -60 c 5
 138.489 -60 l 4
 138.629 -63.5312 138.688 -66.5195 138.688 -70.0537 c 4
 138.688 -151.827 104.361 -221.751 39.666 -271.766 c 5
EndSplineSet
EndChar

StartChar: uni05A7
Encoding: 1447 1447 116
Width: 0
VWidth: 1000
Flags: W
LayerCount: 2
Back
SplineSet
183.529 -60 m 5
 211.765 -116.471 l 5
 98.8232 -116.471 l 5
 197.646 -201.177 l 5
 169.411 -257.647 l 5
 28.2354 -257.647 l 5
 0 -201.177 l 5
 112.94 -201.177 l 5
 14.1172 -116.471 l 5
 42.3525 -60 l 5
 183.529 -60 l 5
EndSplineSet
Fore
SplineSet
77.6475 -60 m 5
 112.941 -130.589 l 5
 21.1768 -130.589 l 5
 91.7646 -201.177 l 5
 63.5293 -257.647 l 5
 -77.6475 -257.647 l 5
 -112.941 -187.06 l 5
 -21.1768 -187.06 l 5
 -91.7646 -116.471 l 5
 -63.5293 -60 l 5
 77.6475 -60 l 5
EndSplineSet
EndChar

StartChar: uni05A8
Encoding: 1448 1448 117
Width: 0
VWidth: 1000
Flags: W
LayerCount: 2
Fore
SplineSet
-28.334 871.766 m 1
 36.3613 821.751 70.6875 751.827 70.6875 670.054 c 0
 70.6875 666.52 70.6289 663.531 70.4893 660 c 0
 -0.0986328 660 l 1
 -2.65137 728.072 -25.5898 785.417 -70.6875 836.471 c 1
 -28.334 871.766 l 1
EndSplineSet
EndChar

StartChar: uni05A9
Encoding: 1449 1449 118
Width: 0
VWidth: 1000
Flags: W
HStem: 695.294 49.412<-20 -16> 801.177 49.412<-20 -16>
VStem: -95.2949 49.4121<770 774> 10.5889 49.4101<770 774>
DStem2: 51.998 738.59 16.7041 703.295 0.707114 -0.7071<0.000303268 61.2286>
LayerCount: 2
Fore
SplineSet
-17.6475 801.177 m 0
 -33.2334 801.177 -45.8828 788.527 -45.8828 772.941 c 128
 -45.8828 757.355 -33.2334 744.706 -17.6475 744.706 c 0
 -2.06152 744.706 10.5889 757.355 10.5889 772.941 c 128
 10.5889 788.527 -2.06152 801.177 -17.6475 801.177 c 0
16.7041 703.295 m 1
 6.34668 698.173 -5.31641 695.294 -17.6475 695.294 c 0
 -60.5088 695.294 -95.2949 730.08 -95.2949 772.941 c 0
 -95.2949 815.803 -60.5088 850.589 -17.6475 850.589 c 0
 25.2148 850.589 59.999 815.803 59.999 772.941 c 0
 59.999 760.61 57.1201 748.948 51.998 738.59 c 1
 95.2949 695.294 l 1
 59.999 660 l 1
 16.7041 703.295 l 1
EndSplineSet
EndChar

StartChar: uni05AA
Encoding: 1450 1450 119
Width: 0
VWidth: 1000
Flags: HW
VStem: -127.059 70.5883<-67 -60> 56.4707 70.5883<-67 -60>
LayerCount: 2
Back
SplineSet
-35.2939 -182.086 m 5
 -88.2773 -166.78 -127.059 -117.892 -127.059 -60 c 1
 -56.4707 -60 l 0
 -56.4707 -91.1719 -31.1719 -116.471 0.000976562 -116.471 c 0
 31.1719 -116.471 56.4707 -91.1719 56.4707 -60 c 0
 127.059 -60 l 0
 127.059 -117.892 88.2773 -166.78 35.2949 -182.086 c 1
EndSplineSet
Fore
SplineSet
127.059 -60 m 1
 56.4707 -60 l 0
 56.4707 -91.1719 31.1719 -116.471 0.000976562 -116.471 c 0
 -31.1719 -116.471 -56.4707 -91.1719 -56.4707 -60 c 0
 -127.059 -60 l 1
 -127.059 -127.467 -73 -187.323 0 -187.323 c 0
 72 -187.323 127.059 -127.442 127.059 -60 c 1
EndSplineSet
EndChar

StartChar: uni05AB
Encoding: 1451 1451 120
Width: 0
VWidth: 1000
Flags: W
DStem2: -127.411 758.823 6.70605 758.823 0.884919 0.465745<118.683 212.183> 6.70605 758.823 -127.411 758.823 0.884919 -0.465745<0 93.5>
LayerCount: 2
Back
SplineSet
197.646 857.647 m 5
 254.117 829.412 l 5
 112.941 758.824 l 5
 254.117 688.235 l 5
 197.646 660 l 5
 0 758.824 l 5
 197.646 857.647 l 5
EndSplineSet
Fore
SplineSet
60.3535 857.646 m 1
 127.411 822.354 l 1
 6.70605 758.823 l 1
 127.411 695.294 l 1
 60.3535 660 l 1
 -127.411 758.823 l 1
 60.3535 857.646 l 1
EndSplineSet
EndChar

StartChar: uni05AC
Encoding: 1452 1452 121
Width: 0
VWidth: 1070
Flags: W
HStem: 660 70<-117 47>
VStem: 47 69.999<730 860>
LayerCount: 2
Back
SplineSet
0 660 m 5
 0 720.001 l 5
 173.998 720.001 l 5
 173.998 859.993 l 5
 234 859.993 l 5
 233.999 660 l 5
 0 660 l 5
EndSplineSet
Fore
SplineSet
-117 660 m 1
 -117 730 l 1
 47 730.007 l 1
 47 860 l 1
 117 859.993 l 1
 116.999 660 l 1
 -117 660 l 1
EndSplineSet
EndChar

StartChar: uni05AD
Encoding: 1453 1453 122
Width: 0
VWidth: 1000
Flags: W
LayerCount: 2
Fore
SplineSet
28.334 -271.766 m 1
 -36.3613 -221.751 -70.6875 -151.827 -70.6875 -70.0537 c 0
 -70.6875 -66.5195 -70.6289 -63.5312 -70.4893 -60 c 0
 0.0986328 -60 l 1
 2.65137 -128.072 25.5898 -185.417 70.6875 -236.471 c 1
 28.334 -271.766 l 1
EndSplineSet
EndChar

StartChar: uni05AE
Encoding: 1454 1454 123
Width: 0
VWidth: 1000
Flags: W
HStem: 654.177 58.823<65 73> 754.177 58.823<-73 -66>
VStem: -167.566 58.824<702.213 719> 108.742 58.824<749 756>
LayerCount: 2
Fore
SplineSet
-86.6836 660 m 9
 -152.367 660 l 17
 -161.997 675.369 -167.566 693.538 -167.566 713 c 0
 -167.566 768.2 -122.766 813 -67.5664 813 c 0
 -22.2666 813 16.0205 783.08 28.3008 741.75 c 0
 33.5742 725.088 49.166 713 67.5664 713 c 0
 90.2959 713 108.742 731.447 108.742 754.177 c 0
 108.742 776.906 98.3164 791 88.8164 805 c 9
 153.692 805 l 17
 162.507 790.104 167.566 772.729 167.566 754.177 c 0
 167.566 698.977 122.766 654.177 67.5664 654.177 c 0
 22.6064 654.177 -15.4541 683.896 -28.0283 724.75 c 0
 -33.1543 741.761 -48.9199 754.177 -67.5664 754.177 c 0
 -90.2949 754.177 -108.742 735.729 -108.742 713 c 128
 -108.742 690.271 -95.6836 674.5 -86.6836 660 c 9
EndSplineSet
EndChar

StartChar: uni05AF
Encoding: 1455 1455 124
Width: 0
VWidth: 1000
Flags: W
HStem: 660 63.529<-4 2> 794.117 63.529<-4 2>
VStem: -98.8232 63.5293<755 761> 35.2939 63.5293<755 761>
LayerCount: 2
Back
SplineSet
98.8242 801.177 m 0
 75.4453 801.177 56.4707 782.203 56.4707 758.824 c 0
 56.4707 735.445 75.4453 716.471 98.8242 716.471 c 0
 122.203 716.471 141.177 735.445 141.177 758.824 c 0
 141.177 782.203 122.203 801.177 98.8242 801.177 c 0
98.8242 857.647 m 0
 153.375 857.647 197.647 813.374 197.647 758.824 c 0
 197.647 704.273 153.375 660 98.8242 660 c 0
 44.2734 660 0 704.273 0 758.824 c 0
 0 813.374 44.2734 857.647 98.8242 857.647 c 0
EndSplineSet
Fore
SplineSet
0 794.117 m 0
 -19.4824 794.117 -35.2939 778.306 -35.2939 758.823 c 0
 -35.2939 739.341 -19.4824 723.529 0 723.529 c 0
 19.4834 723.529 35.2939 739.341 35.2939 758.823 c 0
 35.2939 778.306 19.4834 794.117 0 794.117 c 0
0 857.646 m 0
 54.5508 857.646 98.8232 813.374 98.8232 758.823 c 0
 98.8232 704.273 54.5508 660 0 660 c 128
 -54.5508 660 -98.8232 704.273 -98.8232 758.823 c 0
 -98.8232 813.374 -54.5508 857.646 0 857.646 c 0
EndSplineSet
EndChar

StartChar: afii57799
Encoding: 1456 1456 125
Width: 0
VWidth: 1000
Flags: MW
AnchorPoint: "DiaToBase1" 0 0 mark 0
LayerCount: 2
Fore
SplineSet
0.000976562 -171.843 m 4
 24.332 -171.843 44.0781 -191.59 44.0781 -215.922 c 4
 44.0781 -240.253 24.332 -260 0.000976562 -260 c 4
 -24.3311 -260 -44.0781 -240.253 -44.0781 -215.922 c 4
 -44.0781 -191.59 -24.3311 -171.843 0.000976562 -171.843 c 4
0.000976562 -60 m 4
 24.375 -60 44.1562 -79.7822 44.1562 -104.157 c 4
 44.1562 -128.531 24.375 -148.313 0.000976562 -148.313 c 4
 -24.374 -148.313 -44.1562 -128.531 -44.1562 -104.157 c 4
 -44.1562 -79.7822 -24.374 -60 0.000976562 -60 c 4
EndSplineSet
EndChar

StartChar: afii57801
Encoding: 1457 1457 126
Width: 0
VWidth: 1070
Flags: HMW
AnchorPoint: "DiaToBase3" 0 0 mark 0
LayerCount: 2
Fore
SplineSet
-66.0303 -171.843 m 4
 -41.6982 -171.843 -21.9512 -191.59 -21.9512 -215.922 c 4
 -21.9512 -240.253 -41.6982 -260 -66.0303 -260 c 4
 -90.3613 -260 -110.108 -240.253 -110.108 -215.922 c 4
 -110.108 -191.59 -90.3613 -171.843 -66.0303 -171.843 c 4
-123.972 -60 m 4
 -99.5967 -60 -79.8145 -79.7822 -79.8145 -104.157 c 4
 -79.8145 -128.531 -99.5967 -148.313 -123.972 -148.313 c 4
 -148.346 -148.313 -168.128 -128.531 -168.128 -104.157 c 4
 -168.128 -79.7822 -148.346 -60 -123.972 -60 c 4
-2.20605 -60 m 4
 22.1689 -60 41.9502 -79.7822 41.9502 -104.157 c 4
 41.9502 -128.531 22.1689 -148.313 -2.20605 -148.313 c 4
 -26.5801 -148.313 -46.3623 -128.531 -46.3623 -104.157 c 4
 -46.3623 -79.7822 -26.5801 -60 -2.20605 -60 c 4
123.971 -171.843 m 0
 148.302 -171.843 168.049 -191.59 168.049 -215.922 c 0
 168.049 -240.253 148.302 -260 123.971 -260 c 0
 99.6396 -260 79.8926 -240.253 79.8926 -215.922 c 0
 79.8926 -191.59 99.6396 -171.843 123.971 -171.843 c 0
123.971 -60 m 0
 148.346 -60 168.128 -79.7822 168.128 -104.157 c 0
 168.128 -128.531 148.346 -148.313 123.971 -148.313 c 0
 99.5957 -148.313 79.8125 -128.531 79.8125 -104.157 c 0
 79.8125 -79.7822 99.5957 -60 123.971 -60 c 0
EndSplineSet
EndChar

StartChar: afii57800
Encoding: 1458 1458 127
Width: 0
VWidth: 1070
Flags: HMW
AnchorPoint: "DiaToBase3" 0 0 mark 0
LayerCount: 2
Fore
SplineSet
-164.137 -69.0781 m 1
 35.8633 -69.0781 l 1
 35.8633 -139.667 l 1
 -164.137 -139.667 l 1
 -164.137 -69.0781 l 1
119.979 -171.843 m 0
 144.311 -171.843 164.058 -191.59 164.058 -215.922 c 0
 164.058 -240.253 144.311 -260 119.979 -260 c 128
 95.6484 -260 75.9023 -240.253 75.9023 -215.922 c 0
 75.9023 -191.59 95.6484 -171.843 119.979 -171.843 c 0
119.979 -60 m 0
 144.354 -60 164.137 -79.7822 164.137 -104.157 c 0
 164.137 -128.531 144.354 -148.313 119.979 -148.313 c 0
 95.6045 -148.313 75.8232 -128.531 75.8232 -104.157 c 0
 75.8232 -79.7822 95.6045 -60 119.979 -60 c 0
EndSplineSet
EndChar

StartChar: afii57802
Encoding: 1459 1459 128
Width: 0
VWidth: 1070
Flags: HMW
AnchorPoint: "DiaToBase3" 0 0 mark 0
LayerCount: 2
Fore
SplineSet
-164.137 -139.667 m 257
 -164.137 -69.0781 l 257
 35.8633 -69.0781 l 257
 35.8633 -139.667 l 257
 -28.8428 -139.667 l 257
 -28.8428 -251 l 257
 -99.4316 -251 l 257
 -99.4316 -139.667 l 257
 -164.137 -139.667 l 257
119.979 -171.843 m 0
 144.311 -171.843 164.058 -191.59 164.058 -215.922 c 0
 164.058 -240.253 144.311 -260 119.979 -260 c 128
 95.6484 -260 75.9023 -240.253 75.9023 -215.922 c 0
 75.9023 -191.59 95.6484 -171.843 119.979 -171.843 c 0
119.979 -60 m 0
 144.354 -60 164.137 -79.7822 164.137 -104.157 c 0
 164.137 -128.531 144.354 -148.313 119.979 -148.313 c 0
 95.6045 -148.313 75.8232 -128.531 75.8232 -104.157 c 0
 75.8232 -79.7822 95.6045 -60 119.979 -60 c 0
EndSplineSet
EndChar

StartChar: afii57793
Encoding: 1460 1460 129
Width: 0
VWidth: 1000
Flags: MW
AnchorPoint: "DiaToBase1" 0 0 mark 0
LayerCount: 2
Fore
SplineSet
0.000976562 -60 m 0
 24.375 -60 44.1562 -79.7822 44.1562 -104.157 c 0
 44.1562 -128.531 24.375 -148.313 0.000976562 -148.313 c 0
 -24.374 -148.313 -44.1562 -128.531 -44.1562 -104.157 c 0
 -44.1562 -79.7822 -24.374 -60 0.000976562 -60 c 0
EndSplineSet
EndChar

StartChar: afii57794
Encoding: 1461 1461 130
Width: 0
VWidth: 1070
Flags: HMW
AnchorPoint: "DiaToBase2" 0 0 mark 0
LayerCount: 2
Fore
SplineSet
-63.4219 -60.0781 m 4
 -39.0908 -60.0781 -19.3438 -79.8252 -19.3438 -104.157 c 4
 -19.3438 -128.488 -39.0908 -148.235 -63.4219 -148.235 c 4
 -87.7529 -148.235 -107.5 -128.488 -107.5 -104.157 c 4
 -107.5 -79.8252 -87.7529 -60.0781 -63.4219 -60.0781 c 4
63.3428 -60 m 0
 87.7178 -60 107.5 -79.7822 107.5 -104.157 c 0
 107.5 -128.531 87.7178 -148.313 63.3428 -148.313 c 0
 38.9678 -148.313 19.1855 -128.531 19.1855 -104.157 c 0
 19.1855 -79.7822 38.9678 -60 63.3428 -60 c 0
EndSplineSet
EndChar

StartChar: afii57795
Encoding: 1462 1462 131
Width: 0
VWidth: 1070
Flags: HMW
AnchorPoint: "DiaToBase2" 0 0 mark 0
LayerCount: 2
Fore
SplineSet
-2.94141 -171.843 m 0
 21.3896 -171.843 41.1367 -191.59 41.1367 -215.922 c 0
 41.1367 -240.253 21.3896 -260 -2.94141 -260 c 0
 -27.2725 -260 -47.0195 -240.253 -47.0195 -215.922 c 0
 -47.0195 -191.59 -27.2725 -171.843 -2.94141 -171.843 c 0
-63.3828 -60 m 0
 -39.0078 -60 -19.2256 -79.7822 -19.2256 -104.157 c 0
 -19.2256 -128.531 -39.0078 -148.313 -63.3828 -148.313 c 0
 -87.7568 -148.313 -107.539 -128.531 -107.539 -104.157 c 0
 -107.539 -79.7822 -87.7568 -60 -63.3828 -60 c 0
63.3818 -60 m 0
 87.7568 -60 107.539 -79.7822 107.539 -104.157 c 0
 107.539 -128.531 87.7568 -148.313 63.3818 -148.313 c 0
 39.0078 -148.313 19.2256 -128.531 19.2256 -104.157 c 0
 19.2256 -79.7822 39.0078 -60 63.3818 -60 c 0
EndSplineSet
EndChar

StartChar: afii57798
Encoding: 1463 1463 132
Width: 0
VWidth: 1070
Flags: HMW
AnchorPoint: "DiaToBase2" 0 0 mark 0
LayerCount: 2
Fore
SplineSet
-100 -69.0781 m 5
 100 -69.0781 l 1
 100 -139.667 l 1
 -100 -139.667 l 1
 -100 -69.0781 l 5
EndSplineSet
EndChar

StartChar: afii57797
Encoding: 1464 1464 133
Width: 0
VWidth: 1070
Flags: HMW
AnchorPoint: "DiaToBase2" 0 0 mark 0
LayerCount: 2
Fore
SplineSet
-100 -139.667 m 257
 -100 -69.0781 l 257
 100 -69.0781 l 257
 100 -139.667 l 257
 35.2939 -139.667 l 257
 35.2939 -234 l 257
 -35.2949 -234 l 257
 -35.2949 -139.667 l 257
 -100 -139.667 l 257
EndSplineSet
EndChar

StartChar: afii57806
Encoding: 1465 1465 134
Width: 0
VWidth: 1000
Flags: HMW
AnchorPoint: "DiaToBaseO" 0 0 mark 0
LayerCount: 2
Fore
SplineSet
0.000976562 742 m 4
 24.375 742 44.1562 722.218 44.1562 697.843 c 4
 44.1562 673.469 24.375 653.688 0.000976562 653.688 c 4
 -24.374 653.688 -44.1562 673.469 -44.1562 697.843 c 4
 -44.1562 722.218 -24.374 742 0.000976562 742 c 4
EndSplineSet
EndChar

StartChar: afii57796
Encoding: 1467 1467 135
Width: 0
VWidth: 1070
Flags: MW
AnchorPoint: "DiaToBaseU" 0 0 mark 0
LayerCount: 2
Fore
SplineSet
0.0400391 -113.021 m 4
 24.3711 -113.021 44.1182 -132.768 44.1182 -157.099 c 132
 44.1182 -181.43 24.3711 -201.177 0.0400391 -201.177 c 4
 -24.291 -201.177 -44.0381 -181.43 -44.0381 -157.099 c 132
 -44.0381 -132.768 -24.291 -113.021 0.0400391 -113.021 c 4
111.804 -171.844 m 4
 136.135 -171.844 155.882 -191.591 155.882 -215.922 c 4
 155.882 -240.253 136.135 -260 111.804 -260 c 4
 87.4727 -260 67.7256 -240.253 67.7256 -215.922 c 4
 67.7256 -191.591 87.4727 -171.844 111.804 -171.844 c 4
-111.725 -60 m 4
 -87.3496 -60 -67.5674 -79.7832 -67.5674 -104.157 c 4
 -67.5674 -128.532 -87.3496 -148.314 -111.725 -148.314 c 4
 -136.1 -148.314 -155.882 -128.532 -155.882 -104.157 c 4
 -155.882 -79.7832 -136.1 -60 -111.725 -60 c 4
EndSplineSet
EndChar

StartChar: afii57807
Encoding: 1468 1468 136
Width: 0
VWidth: 1000
Flags: MW
AnchorPoint: "DiaToBaseD" 0 0 mark 0
LayerCount: 2
Fore
SplineSet
0.000976562 346 m 0
 24.375 346 44.1562 326.218 44.1562 301.843 c 0
 44.1562 277.469 24.375 257.688 0.000976562 257.688 c 0
 -24.374 257.688 -44.1562 277.469 -44.1562 301.843 c 4
 -44.1562 326.218 -24.374 346 0.000976562 346 c 0
EndSplineSet
EndChar

StartChar: afii57839
Encoding: 1469 1469 137
Width: 0
VWidth: 1070
Flags: MW
LayerCount: 2
Fore
SplineSet
-35 -60 m 1
 35 -60 l 5
 35 -239.941 l 5
 -35 -239.941 l 1
 -35 -60 l 1
EndSplineSet
EndChar

StartChar: afii57645
Encoding: 1470 1470 138
Width: 424
VWidth: 1000
Flags: W
HStem: 399.999 200<59.9082 102.643 321.304 364.038>
LayerCount: 2
Back
SplineSet
348.728 575.5 m 2
 325.416 430 l 2
 323.034 415.132 317.418 410 297.337 410 c 2
 54.7275 410 l 2
 34.7646 410 33.3516 416.392 36.0146 434.5 c 2
 57.4131 580 l 2
 59.5 594.193 63.7402 600 83.2275 600 c 2
 327.837 600 l 2
 346.515 600 351.773 594.512 348.728 575.5 c 2
EndSplineSet
Fore
SplineSet
367.977 449.999 m 2
 367.971 549.999 l 2
 367.969 584.938 348.304 599.999 321.304 599.999 c 2
 102.638 599.999 l 2
 75.6377 599.999 55.9688 584.938 55.9707 549.999 c 2
 55.9756 449.999 l 2
 55.9775 415.061 75.6426 399.999 102.643 399.999 c 2
 321.31 399.999 l 2
 348.31 399.999 367.979 415.061 367.977 449.999 c 2
EndSplineSet
PairPos2: "'kern' Horizontal Kerning in Hebrew lookup 1 subtable" uniE804 dx=5 dy=0 dh=5 dv=0 dx=0 dy=0 dh=0 dv=0
PairPos2: "'kern' Horizontal Kerning in Hebrew lookup 1 subtable" uniFB1D dx=5 dy=0 dh=5 dv=0 dx=0 dy=0 dh=0 dv=0
PairPos2: "'kern' Horizontal Kerning in Hebrew lookup 1 subtable" uniFB2D dx=5 dy=0 dh=5 dv=0 dx=0 dy=0 dh=0 dv=0
PairPos2: "'kern' Horizontal Kerning in Hebrew lookup 1 subtable" uniFB2C dx=5 dy=0 dh=5 dv=0 dx=0 dy=0 dh=0 dv=0
PairPos2: "'kern' Horizontal Kerning in Hebrew lookup 1 subtable" uniFB45 dx=5 dy=0 dh=5 dv=0 dx=0 dy=0 dh=0 dv=0
PairPos2: "'kern' Horizontal Kerning in Hebrew lookup 1 subtable" uniFB42 dx=15 dy=0 dh=15 dv=0 dx=0 dy=0 dh=0 dv=0
PairPos2: "'kern' Horizontal Kerning in Hebrew lookup 1 subtable" uniFB3F dx=10 dy=0 dh=10 dv=0 dx=0 dy=0 dh=0 dv=0
PairPos2: "'kern' Horizontal Kerning in Hebrew lookup 1 subtable" uniFB37 dx=5 dy=0 dh=5 dv=0 dx=0 dy=0 dh=0 dv=0
PairPos2: "'kern' Horizontal Kerning in Hebrew lookup 1 subtable" afii57718 dx=5 dy=0 dh=5 dv=0 dx=0 dy=0 dh=0 dv=0
PairPos2: "'kern' Horizontal Kerning in Hebrew lookup 1 subtable" afii57705 dx=5 dy=0 dh=5 dv=0 dx=0 dy=0 dh=0 dv=0
PairPos2: "'kern' Horizontal Kerning in Hebrew lookup 1 subtable" afii57717 dx=5 dy=0 dh=5 dv=0 dx=0 dy=0 dh=0 dv=0
PairPos2: "'kern' Horizontal Kerning in Hebrew lookup 1 subtable" uniFB4A dx=5 dy=0 dh=5 dv=0 dx=0 dy=0 dh=0 dv=0
PairPos2: "'kern' Horizontal Kerning in Hebrew lookup 1 subtable" uniFB28 dx=5 dy=0 dh=5 dv=0 dx=0 dy=0 dh=0 dv=0
PairPos2: "'kern' Horizontal Kerning in Hebrew lookup 1 subtable" afii57690 dx=5 dy=0 dh=5 dv=0 dx=0 dy=0 dh=0 dv=0
PairPos2: "'kern' Horizontal Kerning in Hebrew lookup 1 subtable" uniFB49 dx=5 dy=0 dh=5 dv=0 dx=0 dy=0 dh=0 dv=0
PairPos2: "'kern' Horizontal Kerning in Hebrew lookup 1 subtable" afii57695 dx=5 dy=0 dh=5 dv=0 dx=0 dy=0 dh=0 dv=0
PairPos2: "'kern' Horizontal Kerning in Hebrew lookup 1 subtable" afii57694 dx=5 dy=0 dh=5 dv=0 dx=0 dy=0 dh=0 dv=0
PairPos2: "'kern' Horizontal Kerning in Hebrew lookup 1 subtable" afii57689 dx=5 dy=0 dh=5 dv=0 dx=0 dy=0 dh=0 dv=0
PairPos2: "'kern' Horizontal Kerning in Hebrew lookup 1 subtable" uniFB48 dx=10 dy=0 dh=10 dv=0 dx=0 dy=0 dh=0 dv=0
PairPos2: "'kern' Horizontal Kerning in Hebrew lookup 1 subtable" afii57688 dx=10 dy=0 dh=10 dv=0 dx=0 dy=0 dh=0 dv=0
PairPos2: "'kern' Horizontal Kerning in Hebrew lookup 1 subtable" uniFB47 dx=15 dy=0 dh=15 dv=0 dx=0 dy=0 dh=0 dv=0
PairPos2: "'kern' Horizontal Kerning in Hebrew lookup 1 subtable" afii57687 dx=15 dy=0 dh=15 dv=0 dx=0 dy=0 dh=0 dv=0
PairPos2: "'kern' Horizontal Kerning in Hebrew lookup 1 subtable" afii57685 dx=5 dy=0 dh=5 dv=0 dx=0 dy=0 dh=0 dv=0
PairPos2: "'kern' Horizontal Kerning in Hebrew lookup 1 subtable" uniFB4E dx=-10 dy=0 dh=-10 dv=0 dx=0 dy=0 dh=0 dv=0
PairPos2: "'kern' Horizontal Kerning in Hebrew lookup 1 subtable" uniFB44 dx=-10 dy=0 dh=-10 dv=0 dx=0 dy=0 dh=0 dv=0
PairPos2: "'kern' Horizontal Kerning in Hebrew lookup 1 subtable" afii57684 dx=-10 dy=0 dh=-10 dv=0 dx=0 dy=0 dh=0 dv=0
PairPos2: "'kern' Horizontal Kerning in Hebrew lookup 1 subtable" uniFB43 dx=-10 dy=0 dh=-10 dv=0 dx=0 dy=0 dh=0 dv=0
PairPos2: "'kern' Horizontal Kerning in Hebrew lookup 1 subtable" afii57683 dx=-10 dy=0 dh=-10 dv=0 dx=0 dy=0 dh=0 dv=0
PairPos2: "'kern' Horizontal Kerning in Hebrew lookup 1 subtable" uniFB20 dx=5 dy=0 dh=5 dv=0 dx=0 dy=0 dh=0 dv=0
PairPos2: "'kern' Horizontal Kerning in Hebrew lookup 1 subtable" afii57682 dx=15 dy=0 dh=15 dv=0 dx=0 dy=0 dh=0 dv=0
PairPos2: "'kern' Horizontal Kerning in Hebrew lookup 1 subtable" uniFB41 dx=10 dy=0 dh=10 dv=0 dx=0 dy=0 dh=0 dv=0
PairPos2: "'kern' Horizontal Kerning in Hebrew lookup 1 subtable" afii57681 dx=10 dy=0 dh=10 dv=0 dx=0 dy=0 dh=0 dv=0
PairPos2: "'kern' Horizontal Kerning in Hebrew lookup 1 subtable" uniFB40 dx=-10 dy=0 dh=-10 dv=0 dx=0 dy=0 dh=0 dv=0
PairPos2: "'kern' Horizontal Kerning in Hebrew lookup 1 subtable" afii57680 dx=-10 dy=0 dh=-10 dv=0 dx=0 dy=0 dh=0 dv=0
PairPos2: "'kern' Horizontal Kerning in Hebrew lookup 1 subtable" afii57679 dx=10 dy=0 dh=10 dv=0 dx=0 dy=0 dh=0 dv=0
PairPos2: "'kern' Horizontal Kerning in Hebrew lookup 1 subtable" uniFB3C dx=15 dy=0 dh=15 dv=0 dx=0 dy=0 dh=0 dv=0
PairPos2: "'kern' Horizontal Kerning in Hebrew lookup 1 subtable" uniFB25 dx=15 dy=0 dh=15 dv=0 dx=0 dy=0 dh=0 dv=0
PairPos2: "'kern' Horizontal Kerning in Hebrew lookup 1 subtable" afii57676 dx=15 dy=0 dh=15 dv=0 dx=0 dy=0 dh=0 dv=0
PairPos2: "'kern' Horizontal Kerning in Hebrew lookup 1 subtable" uniFB4D dx=-5 dy=0 dh=-5 dv=0 dx=0 dy=0 dh=0 dv=0
PairPos2: "'kern' Horizontal Kerning in Hebrew lookup 1 subtable" uniFB3B dx=-5 dy=0 dh=-5 dv=0 dx=0 dy=0 dh=0 dv=0
PairPos2: "'kern' Horizontal Kerning in Hebrew lookup 1 subtable" uniFB24 dx=-5 dy=0 dh=-5 dv=0 dx=0 dy=0 dh=0 dv=0
PairPos2: "'kern' Horizontal Kerning in Hebrew lookup 1 subtable" afii57675 dx=-5 dy=0 dh=-5 dv=0 dx=0 dy=0 dh=0 dv=0
PairPos2: "'kern' Horizontal Kerning in Hebrew lookup 1 subtable" uniFB39 dx=5 dy=0 dh=5 dv=0 dx=0 dy=0 dh=0 dv=0
PairPos2: "'kern' Horizontal Kerning in Hebrew lookup 1 subtable" afii57673 dx=5 dy=0 dh=5 dv=0 dx=0 dy=0 dh=0 dv=0
PairPos2: "'kern' Horizontal Kerning in Hebrew lookup 1 subtable" afii57671 dx=5 dy=0 dh=5 dv=0 dx=0 dy=0 dh=0 dv=0
PairPos2: "'kern' Horizontal Kerning in Hebrew lookup 1 subtable" uniFB36 dx=15 dy=0 dh=15 dv=0 dx=0 dy=0 dh=0 dv=0
PairPos2: "'kern' Horizontal Kerning in Hebrew lookup 1 subtable" afii57670 dx=15 dy=0 dh=15 dv=0 dx=0 dy=0 dh=0 dv=0
PairPos2: "'kern' Horizontal Kerning in Hebrew lookup 1 subtable" afii57723 dx=5 dy=0 dh=5 dv=0 dx=0 dy=0 dh=0 dv=0
PairPos2: "'kern' Horizontal Kerning in Hebrew lookup 1 subtable" uniFB33 dx=10 dy=0 dh=10 dv=0 dx=0 dy=0 dh=0 dv=0
PairPos2: "'kern' Horizontal Kerning in Hebrew lookup 1 subtable" uniFB22 dx=10 dy=0 dh=10 dv=0 dx=0 dy=0 dh=0 dv=0
PairPos2: "'kern' Horizontal Kerning in Hebrew lookup 1 subtable" afii57667 dx=10 dy=0 dh=10 dv=0 dx=0 dy=0 dh=0 dv=0
PairPos2: "'kern' Horizontal Kerning in Hebrew lookup 1 subtable" uniFB32 dx=-50 dy=0 dh=-50 dv=0 dx=0 dy=0 dh=0 dv=0
PairPos2: "'kern' Horizontal Kerning in Hebrew lookup 1 subtable" afii57666 dx=-50 dy=0 dh=-50 dv=0 dx=0 dy=0 dh=0 dv=0
PairPos2: "'kern' Horizontal Kerning in Hebrew lookup 1 subtable" uniFB4C dx=-20 dy=0 dh=-20 dv=0 dx=0 dy=0 dh=0 dv=0
PairPos2: "'kern' Horizontal Kerning in Hebrew lookup 1 subtable" uniFB31 dx=-20 dy=0 dh=-20 dv=0 dx=0 dy=0 dh=0 dv=0
PairPos2: "'kern' Horizontal Kerning in Hebrew lookup 1 subtable" afii57665 dx=-20 dy=0 dh=-20 dv=0 dx=0 dy=0 dh=0 dv=0
PairPos2: "'kern' Horizontal Kerning in Hebrew lookup 1 subtable" uniFB30 dx=-5 dy=0 dh=-5 dv=0 dx=0 dy=0 dh=0 dv=0
PairPos2: "'kern' Horizontal Kerning in Hebrew lookup 1 subtable" uniFB2F dx=-5 dy=0 dh=-5 dv=0 dx=0 dy=0 dh=0 dv=0
PairPos2: "'kern' Horizontal Kerning in Hebrew lookup 1 subtable" uniFB2E dx=-5 dy=0 dh=-5 dv=0 dx=0 dy=0 dh=0 dv=0
PairPos2: "'kern' Horizontal Kerning in Hebrew lookup 1 subtable" uniFB21 dx=-5 dy=0 dh=-5 dv=0 dx=0 dy=0 dh=0 dv=0
PairPos2: "'kern' Horizontal Kerning in Hebrew lookup 1 subtable" afii57664 dx=-5 dy=0 dh=-5 dv=0 dx=0 dy=0 dh=0 dv=0
EndChar

StartChar: afii57841
Encoding: 1471 1471 139
Width: 0
VWidth: 1070
Flags: HMW
HStem: 679 70<-100 100>
VStem: -100 200<679 749>
LayerCount: 2
Fore
SplineSet
-100 744 m 5
 100 744 l 5
 100 674 l 5
 -100 674 l 5
 -100 744 l 5
EndSplineSet
EndChar

StartChar: afii57842
Encoding: 1472 1472 140
Width: 201
VWidth: 1070
Flags: W
VStem: 40 121.669<-51.6699 626>
LayerCount: 2
Fore
SplineSet
40 626 m 1
 161.669 668.33 l 257
 161.669 -51.6699 l 1
 40 -94 l 1
 40 626 l 1
EndSplineSet
EndChar

StartChar: afii57804
Encoding: 1473 1473 141
Width: 0
VWidth: 1000
Flags: W
HStem: 629.844 88.3135<694 699>
VStem: 651.688 88.3125<664.578 677>
LayerCount: 2
Fore
SplineSet
695.845 718.157 m 4
 720.219 718.157 740 698.375 740 674 c 4
 740 649.626 720.219 629.844 695.845 629.844 c 4
 671.47 629.844 651.688 649.626 651.688 674 c 4
 651.688 698.375 671.47 718.157 695.845 718.157 c 4
EndSplineSet
EndChar

StartChar: afii57803
Encoding: 1474 1474 142
Width: 0
VWidth: 1000
Flags: W
HStem: 629.844 88.3135<167 172>
VStem: 124 88.3125<664.578 677>
LayerCount: 2
Fore
SplineSet
168.157 718.157 m 0
 192.531 718.157 212.312 698.375 212.312 674 c 0
 212.312 649.626 192.531 629.844 168.157 629.844 c 0
 143.782 629.844 124 649.626 124 674 c 0
 124 698.375 143.782 718.157 168.157 718.157 c 0
EndSplineSet
EndChar

StartChar: uni05C4
Encoding: 1476 1476 144
Width: 0
VWidth: 1000
Flags: W
HStem: 660 180<-63.6276 63.6299>
VStem: -90.001 180.005<686.371 813.629>
LayerCount: 2
Back
SplineSet
0.000976562 718.157 m 0
 24.375 718.157 44.1562 698.375 44.1562 674 c 0
 44.1562 649.626 24.375 629.844 0.000976562 629.844 c 0
 -24.374 629.844 -44.1562 649.626 -44.1562 674 c 0
 -44.1562 698.375 -24.374 718.157 0.000976562 718.157 c 0
EndSplineSet
Fore
SplineSet
-0.000976562 840 m 4
 49.6748 840 90.0039 799.676 90.0039 750 c 4
 90.0039 700.324 49.6748 660 -0.000976562 660 c 4
 -49.6719 660 -90.001 700.324 -90.001 750 c 4
 -90.001 799.676 -49.6719 840 -0.000976562 840 c 4
EndSplineSet
EndChar

StartChar: afii57664
Encoding: 1488 1488 145
Width: 620
VWidth: 1000
Flags: HMW
HStem: 0 21G<42 257.113> 580 20
AnchorPoint: "DiaToBaseD" 338 -209 basechar 0
AnchorPoint: "DiaToBaseO" 15 0 basechar 0
AnchorPoint: "DiaToBaseU" 300 0 basechar 0
AnchorPoint: "DiaToBase3" 310 0 basechar 0
AnchorPoint: "DiaToBase2" 310 0 basechar 0
AnchorPoint: "DiaToBase1" 310 0 basechar 0
LayerCount: 2
Back
SplineSet
181.047 569.859 m 10
 402.5 339.5 l 1
 405.205 364.42 407.997 386.33 420 407 c 1
 384.36 427.322 354.992 473.944 354.45 535 c 0
 354.119 572.271 367.206 627.219 391.27 643 c 8
 399.05 648.104 409.5 644 412.87 632.875 c 0
 415.268 624.96 412.794 605.82 436.87 600 c 2
 493 589.001 l 2
 595.515 568.912 585.948 457.974 568.531 385.001 c 0
 558.27 342.011 538 378.76 503.5 378.76 c 0
 485.245 378.76 472.178 364.924 465.27 349 c 0
 449 311.5 458.477 277.802 471.189 264.252 c 2
 528.233 203.452 l 2
 600.088 126.975 569.771 30.6729 520.405 0.195312 c 0
 505.065 -9.27441 492.112 -10.4736 479.136 -6.81445 c 0
 469.227 -4.02051 468.057 26.0547 441 55 c 2
 197.5 315.5 l 1
 175.5 308 158.326 291.821 155.77 267 c 0
 146.5 177 293.481 187.678 292.286 52 c 0
 291.908 9.03223 285.035 0 262.113 0 c 2
 62 0 l 2
 33.4004 0 25 28 39.3701 54 c 0
 48.3438 70.2363 77.8701 60 83.3701 70 c 0
 102.198 104.235 55.1172 147.243 60 227 c 0
 63.7266 287.875 92 338.5 151.03 363.733 c 1
 94.9473 417.213 l 2
 40.8945 472.523 59.4619 584.051 100.5 619.5 c 0
 113.073 630.362 134.676 637.588 144.33 628.177 c 0
 154.975 617.799 157.723 594.506 181.047 569.859 c 10
EndSplineSet
Fore
SplineSet
181.047 569.859 m 10
 402.5 339.5 l 1
 405.205 364.42 407.997 386.33 420 407 c 1
 384.36 427.322 354.992 473.944 354.45 535 c 0
 354.119 572.271 367.206 627.219 391.27 643 c 8
 399.05 648.102 409.5 644 412.87 632.875 c 0
 415.268 624.96 412.794 605.82 436.87 600 c 2
 493 589.001 l 2
 595.515 568.912 585.948 457.974 568.531 385.001 c 0
 558.27 342.011 538 378.76 503.5 378.76 c 0
 485.245 378.76 472.178 364.924 465.27 349 c 0
 449 311.5 458.477 277.802 471.189 264.252 c 2
 528.233 203.452 l 2
 600.088 126.975 569.771 30.6729 520.405 0.195312 c 0
 505.065 -9.27441 492.112 -10.4736 479.136 -6.81445 c 0
 469.227 -4.02051 468.057 26.0547 441 55 c 2
 197.5 315.5 l 1
 175.5 308 158.326 291.821 155.77 267 c 0
 146.5 177 293.481 187.678 292.286 52 c 0
 291.908 9.03223 285.035 0 262.113 0 c 2
 62 0 l 2
 33.4004 0 25 28 39.3701 54 c 0
 48.3438 70.2363 77.8701 60 83.3701 70 c 0
 102.198 104.235 55.1172 147.243 60 227 c 0
 63.7266 287.875 92 338.5 151.03 363.733 c 1
 111.5 404 l 2
 98.6212 417.119 86.8725 431.03 76.5 448.5 c 0
 48 496.5 59 580 100.5 619.5 c 0
 112.535 630.955 134.676 637.588 144.33 628.177 c 0
 154.975 617.799 157.723 594.506 181.047 569.859 c 10
EndSplineSet
PairPos2: "'kern' Horizontal Kerning in Hebrew lookup 1 subtable" uniE804 dx=-20 dy=0 dh=-20 dv=0 dx=0 dy=0 dh=0 dv=0
PairPos2: "'kern' Horizontal Kerning in Hebrew lookup 1 subtable" uniE803 dx=-20 dy=0 dh=-20 dv=0 dx=0 dy=0 dh=0 dv=0
PairPos2: "'kern' Horizontal Kerning in Hebrew lookup 1 subtable" uniE802 dx=-20 dy=0 dh=-20 dv=0 dx=0 dy=0 dh=0 dv=0
PairPos2: "'kern' Horizontal Kerning in Hebrew lookup 1 subtable" quotesingle dx=-25 dy=0 dh=-25 dv=0 dx=0 dy=0 dh=0 dv=0
PairPos2: "'kern' Horizontal Kerning in Hebrew lookup 1 subtable" quoteright dx=-25 dy=0 dh=-25 dv=0 dx=0 dy=0 dh=0 dv=0
PairPos2: "'kern' Horizontal Kerning in Hebrew lookup 1 subtable" quotedblright dx=-25 dy=0 dh=-25 dv=0 dx=0 dy=0 dh=0 dv=0
PairPos2: "'kern' Horizontal Kerning in Hebrew lookup 1 subtable" quotedbl dx=-25 dy=0 dh=-25 dv=0 dx=0 dy=0 dh=0 dv=0
PairPos2: "'kern' Horizontal Kerning in Hebrew lookup 1 subtable" question dx=-5 dy=0 dh=-5 dv=0 dx=0 dy=0 dh=0 dv=0
PairPos2: "'kern' Horizontal Kerning in Hebrew lookup 1 subtable" uniFB1D dx=-20 dy=0 dh=-20 dv=0 dx=0 dy=0 dh=0 dv=0
PairPos2: "'kern' Horizontal Kerning in Hebrew lookup 1 subtable" uniFB2D dx=-20 dy=0 dh=-20 dv=0 dx=0 dy=0 dh=0 dv=0
PairPos2: "'kern' Horizontal Kerning in Hebrew lookup 1 subtable" uniFB2C dx=-20 dy=0 dh=-20 dv=0 dx=0 dy=0 dh=0 dv=0
PairPos2: "'kern' Horizontal Kerning in Hebrew lookup 1 subtable" uniFB45 dx=-20 dy=0 dh=-20 dv=0 dx=0 dy=0 dh=0 dv=0
PairPos2: "'kern' Horizontal Kerning in Hebrew lookup 1 subtable" uniFB42 dx=-15 dy=0 dh=-15 dv=0 dx=0 dy=0 dh=0 dv=0
PairPos2: "'kern' Horizontal Kerning in Hebrew lookup 1 subtable" uniFB3F dx=-10 dy=0 dh=-10 dv=0 dx=0 dy=0 dh=0 dv=0
PairPos2: "'kern' Horizontal Kerning in Hebrew lookup 1 subtable" uniFB37 dx=-10 dy=0 dh=-10 dv=0 dx=0 dy=0 dh=0 dv=0
PairPos2: "'kern' Horizontal Kerning in Hebrew lookup 1 subtable" uni05F4 dx=-25 dy=0 dh=-25 dv=0 dx=0 dy=0 dh=0 dv=0
PairPos2: "'kern' Horizontal Kerning in Hebrew lookup 1 subtable" uni05F3 dx=-25 dy=0 dh=-25 dv=0 dx=0 dy=0 dh=0 dv=0
PairPos2: "'kern' Horizontal Kerning in Hebrew lookup 1 subtable" afii57718 dx=-20 dy=0 dh=-20 dv=0 dx=0 dy=0 dh=0 dv=0
PairPos2: "'kern' Horizontal Kerning in Hebrew lookup 1 subtable" afii57705 dx=-20 dy=0 dh=-20 dv=0 dx=0 dy=0 dh=0 dv=0
PairPos2: "'kern' Horizontal Kerning in Hebrew lookup 1 subtable" afii57717 dx=-20 dy=0 dh=-20 dv=0 dx=0 dy=0 dh=0 dv=0
PairPos2: "'kern' Horizontal Kerning in Hebrew lookup 1 subtable" uniFB49 dx=-20 dy=0 dh=-20 dv=0 dx=0 dy=0 dh=0 dv=0
PairPos2: "'kern' Horizontal Kerning in Hebrew lookup 1 subtable" afii57695 dx=-20 dy=0 dh=-20 dv=0 dx=0 dy=0 dh=0 dv=0
PairPos2: "'kern' Horizontal Kerning in Hebrew lookup 1 subtable" afii57694 dx=-20 dy=0 dh=-20 dv=0 dx=0 dy=0 dh=0 dv=0
PairPos2: "'kern' Horizontal Kerning in Hebrew lookup 1 subtable" afii57689 dx=-20 dy=0 dh=-20 dv=0 dx=0 dy=0 dh=0 dv=0
PairPos2: "'kern' Horizontal Kerning in Hebrew lookup 1 subtable" uniFB47 dx=-10 dy=0 dh=-10 dv=0 dx=0 dy=0 dh=0 dv=0
PairPos2: "'kern' Horizontal Kerning in Hebrew lookup 1 subtable" afii57687 dx=-10 dy=0 dh=-10 dv=0 dx=0 dy=0 dh=0 dv=0
PairPos2: "'kern' Horizontal Kerning in Hebrew lookup 1 subtable" afii57685 dx=-20 dy=0 dh=-20 dv=0 dx=0 dy=0 dh=0 dv=0
PairPos2: "'kern' Horizontal Kerning in Hebrew lookup 1 subtable" afii57682 dx=-15 dy=0 dh=-15 dv=0 dx=0 dy=0 dh=0 dv=0
PairPos2: "'kern' Horizontal Kerning in Hebrew lookup 1 subtable" uniFB41 dx=10 dy=0 dh=10 dv=0 dx=0 dy=0 dh=0 dv=0
PairPos2: "'kern' Horizontal Kerning in Hebrew lookup 1 subtable" afii57681 dx=10 dy=0 dh=10 dv=0 dx=0 dy=0 dh=0 dv=0
PairPos2: "'kern' Horizontal Kerning in Hebrew lookup 1 subtable" afii57679 dx=-10 dy=0 dh=-10 dv=0 dx=0 dy=0 dh=0 dv=0
PairPos2: "'kern' Horizontal Kerning in Hebrew lookup 1 subtable" uniFB3C dx=-10 dy=0 dh=-10 dv=0 dx=0 dy=0 dh=0 dv=0
PairPos2: "'kern' Horizontal Kerning in Hebrew lookup 1 subtable" uniFB25 dx=-10 dy=0 dh=-10 dv=0 dx=0 dy=0 dh=0 dv=0
PairPos2: "'kern' Horizontal Kerning in Hebrew lookup 1 subtable" afii57676 dx=-10 dy=0 dh=-10 dv=0 dx=0 dy=0 dh=0 dv=0
PairPos2: "'kern' Horizontal Kerning in Hebrew lookup 1 subtable" uniFB4D dx=10 dy=0 dh=10 dv=0 dx=0 dy=0 dh=0 dv=0
PairPos2: "'kern' Horizontal Kerning in Hebrew lookup 1 subtable" uniFB3B dx=10 dy=0 dh=10 dv=0 dx=0 dy=0 dh=0 dv=0
PairPos2: "'kern' Horizontal Kerning in Hebrew lookup 1 subtable" uniFB24 dx=10 dy=0 dh=10 dv=0 dx=0 dy=0 dh=0 dv=0
PairPos2: "'kern' Horizontal Kerning in Hebrew lookup 1 subtable" afii57675 dx=10 dy=0 dh=10 dv=0 dx=0 dy=0 dh=0 dv=0
PairPos2: "'kern' Horizontal Kerning in Hebrew lookup 1 subtable" uniFB3A dx=-20 dy=0 dh=-20 dv=0 dx=0 dy=0 dh=0 dv=0
PairPos2: "'kern' Horizontal Kerning in Hebrew lookup 1 subtable" afii57674 dx=-20 dy=0 dh=-20 dv=0 dx=0 dy=0 dh=0 dv=0
PairPos2: "'kern' Horizontal Kerning in Hebrew lookup 1 subtable" uniFB39 dx=-20 dy=0 dh=-20 dv=0 dx=0 dy=0 dh=0 dv=0
PairPos2: "'kern' Horizontal Kerning in Hebrew lookup 1 subtable" afii57673 dx=-20 dy=0 dh=-20 dv=0 dx=0 dy=0 dh=0 dv=0
PairPos2: "'kern' Horizontal Kerning in Hebrew lookup 1 subtable" afii57671 dx=-10 dy=0 dh=-10 dv=0 dx=0 dy=0 dh=0 dv=0
PairPos2: "'kern' Horizontal Kerning in Hebrew lookup 1 subtable" uniFB36 dx=-10 dy=0 dh=-10 dv=0 dx=0 dy=0 dh=0 dv=0
PairPos2: "'kern' Horizontal Kerning in Hebrew lookup 1 subtable" afii57670 dx=-10 dy=0 dh=-10 dv=0 dx=0 dy=0 dh=0 dv=0
PairPos2: "'kern' Horizontal Kerning in Hebrew lookup 1 subtable" uniFB33 dx=-10 dy=0 dh=-10 dv=0 dx=0 dy=0 dh=0 dv=0
PairPos2: "'kern' Horizontal Kerning in Hebrew lookup 1 subtable" uniFB22 dx=-10 dy=0 dh=-10 dv=0 dx=0 dy=0 dh=0 dv=0
PairPos2: "'kern' Horizontal Kerning in Hebrew lookup 1 subtable" afii57667 dx=-10 dy=0 dh=-10 dv=0 dx=0 dy=0 dh=0 dv=0
PairPos2: "'kern' Horizontal Kerning in Hebrew lookup 1 subtable" uniFB4C dx=10 dy=0 dh=10 dv=0 dx=0 dy=0 dh=0 dv=0
PairPos2: "'kern' Horizontal Kerning in Hebrew lookup 1 subtable" uniFB31 dx=10 dy=0 dh=10 dv=0 dx=0 dy=0 dh=0 dv=0
PairPos2: "'kern' Horizontal Kerning in Hebrew lookup 1 subtable" afii57665 dx=10 dy=0 dh=10 dv=0 dx=0 dy=0 dh=0 dv=0
PairPos2: "'kern' Horizontal Kerning in Hebrew lookup 1 subtable" afii57645 dx=-25 dy=0 dh=-25 dv=0 dx=0 dy=0 dh=0 dv=0
Substitution2: "WideLetters" uniFB21
Comment: "%DiaToBase1+AD0A-310+AAoA%DiaToBase2+AD0A-310+AAoA%DiaToBase3+AD0A-310+AAoA%DiaToBaseU+AD0A-300+AAoA%DiaToBaseO+AD0A-15+AAoA" 
EndChar

StartChar: afii57665
Encoding: 1489 1489 146
Width: 524
VWidth: 1000
Flags: W
HStem: 0 190<72.3674 372.507 426.078 468.348> 400 200<124.879 374.746> 625.92 20G<100 123.125>
VStem: 57.7959 67<600 624.113> 393.682 79.9336<248.577 447.5>
AnchorPoint: "DiaToBaseD" 264 0 basechar 0
AnchorPoint: "DiaToBaseO" 15 0 basechar 0
AnchorPoint: "DiaToBaseU" 260 0 basechar 0
AnchorPoint: "DiaToBase3" 260 0 basechar 0
AnchorPoint: "DiaToBase2" 260 0 basechar 0
AnchorPoint: "DiaToBase1" 260 0 basechar 0
LayerCount: 2
Back
SplineSet
484.042 200 m 18
 506.104 200 505.831 191.295 501.75 176 c 2
 460.125 20 l 2
 456.36 5.8877 451.949 0 431.642 0 c 10
 47.6729 0 l 18
 25.2764 0 26.1738 9.20605 30.1426 25 c 2
 70.8525 187 l 2
 73.5967 197.921 78.2627 200 92.0166 200 c 10
 315.682 200 l 10
 331.197 200 348.182 200.315 355.182 204.732 c 0
 373.149 216.066 382.682 254 382.682 308.387 c 0
 382.682 346 375.809 367.363 356.5 383.463 c 0
 336.667 400 310.946 400 280.682 400 c 18
 124.796 400 l 10
 67.8291 400 40.7959 430 40.7959 519.5 c 0
 40.7959 588.5 68.5 645.92 97.5 645.92 c 4
 114.75 645.92 105.484 633.644 107.796 619 c 8
 109.451 608.512 119.296 600 127.296 600 c 2
 349 600 l 2
 444.901 600 457.115 505 457.115 394 c 0
 457.115 322 437 257 411.68 211 c 8
 409.445 206.939 411.545 200 416.18 200 c 18
 484.042 200 l 18
EndSplineSet
Fore
SplineSet
488.542 190 m 18
 510.604 190 510.331 181.295 506.25 166 c 2
 467.125 20 l 2
 463.345 5.8916 458.949 0 438.642 0 c 10
 54.6729 0 l 18
 32.2764 0 33.1719 9.20605 37.1426 25 c 2
 75.3525 177 l 2
 78.0967 187.921 82.7627 190 96.5166 190 c 10
 315.182 190 l 10
 330.697 190 347.682 190.315 354.682 194.732 c 0
 372.649 206.066 393.682 250 393.682 304.387 c 0
 393.682 342 387.809 367.363 368.5 383.463 c 0
 348.667 400 322.946 400 292.682 400 c 18
 141.796 400 l 10
 84.8291 400 57.7959 430 57.7959 519.5 c 0
 57.7959 588.5 85.5 645.92 114.5 645.92 c 0
 131.75 645.92 122.484 633.644 124.796 619 c 8
 126.452 608.512 136.296 600 144.296 600 c 2
 366 600 l 2
 461.901 600 473.615 503 473.615 392 c 0
 473.615 320 451.5 247 426.18 201 c 8
 423.944 196.939 426.045 190 430.68 190 c 18
 488.542 190 l 18
EndSplineSet
PairPos2: "'kern' Horizontal Kerning in Hebrew lookup 1 subtable" uniE804 dx=-10 dy=0 dh=-10 dv=0 dx=0 dy=0 dh=0 dv=0
PairPos2: "'kern' Horizontal Kerning in Hebrew lookup 1 subtable" uniE803 dx=-10 dy=0 dh=-10 dv=0 dx=0 dy=0 dh=0 dv=0
PairPos2: "'kern' Horizontal Kerning in Hebrew lookup 1 subtable" uniE802 dx=-10 dy=0 dh=-10 dv=0 dx=0 dy=0 dh=0 dv=0
PairPos2: "'kern' Horizontal Kerning in Hebrew lookup 1 subtable" quotesingle dx=-20 dy=0 dh=-20 dv=0 dx=0 dy=0 dh=0 dv=0
PairPos2: "'kern' Horizontal Kerning in Hebrew lookup 1 subtable" quoteright dx=-20 dy=0 dh=-20 dv=0 dx=0 dy=0 dh=0 dv=0
PairPos2: "'kern' Horizontal Kerning in Hebrew lookup 1 subtable" quotedblright dx=-20 dy=0 dh=-20 dv=0 dx=0 dy=0 dh=0 dv=0
PairPos2: "'kern' Horizontal Kerning in Hebrew lookup 1 subtable" quotedbl dx=-20 dy=0 dh=-20 dv=0 dx=0 dy=0 dh=0 dv=0
PairPos2: "'kern' Horizontal Kerning in Hebrew lookup 1 subtable" question dx=-5 dy=0 dh=-5 dv=0 dx=0 dy=0 dh=0 dv=0
PairPos2: "'kern' Horizontal Kerning in Hebrew lookup 1 subtable" uniFB1D dx=-10 dy=0 dh=-10 dv=0 dx=0 dy=0 dh=0 dv=0
PairPos2: "'kern' Horizontal Kerning in Hebrew lookup 1 subtable" uniFB2D dx=-15 dy=0 dh=-15 dv=0 dx=0 dy=0 dh=0 dv=0
PairPos2: "'kern' Horizontal Kerning in Hebrew lookup 1 subtable" uniFB2C dx=-15 dy=0 dh=-15 dv=0 dx=0 dy=0 dh=0 dv=0
PairPos2: "'kern' Horizontal Kerning in Hebrew lookup 1 subtable" uniFB45 dx=-20 dy=0 dh=-20 dv=0 dx=0 dy=0 dh=0 dv=0
PairPos2: "'kern' Horizontal Kerning in Hebrew lookup 1 subtable" uniFB3D dx=-10 dy=0 dh=-10 dv=0 dx=0 dy=0 dh=0 dv=0
PairPos2: "'kern' Horizontal Kerning in Hebrew lookup 1 subtable" uniFB37 dx=-5 dy=0 dh=-5 dv=0 dx=0 dy=0 dh=0 dv=0
PairPos2: "'kern' Horizontal Kerning in Hebrew lookup 1 subtable" uni05F4 dx=-20 dy=0 dh=-20 dv=0 dx=0 dy=0 dh=0 dv=0
PairPos2: "'kern' Horizontal Kerning in Hebrew lookup 1 subtable" uni05F3 dx=-20 dy=0 dh=-20 dv=0 dx=0 dy=0 dh=0 dv=0
PairPos2: "'kern' Horizontal Kerning in Hebrew lookup 1 subtable" afii57718 dx=-10 dy=0 dh=-10 dv=0 dx=0 dy=0 dh=0 dv=0
PairPos2: "'kern' Horizontal Kerning in Hebrew lookup 1 subtable" afii57705 dx=-10 dy=0 dh=-10 dv=0 dx=0 dy=0 dh=0 dv=0
PairPos2: "'kern' Horizontal Kerning in Hebrew lookup 1 subtable" afii57717 dx=-10 dy=0 dh=-10 dv=0 dx=0 dy=0 dh=0 dv=0
PairPos2: "'kern' Horizontal Kerning in Hebrew lookup 1 subtable" uniFB4A dx=5 dy=0 dh=5 dv=0 dx=0 dy=0 dh=0 dv=0
PairPos2: "'kern' Horizontal Kerning in Hebrew lookup 1 subtable" uniFB28 dx=5 dy=0 dh=5 dv=0 dx=0 dy=0 dh=0 dv=0
PairPos2: "'kern' Horizontal Kerning in Hebrew lookup 1 subtable" afii57690 dx=5 dy=0 dh=5 dv=0 dx=0 dy=0 dh=0 dv=0
PairPos2: "'kern' Horizontal Kerning in Hebrew lookup 1 subtable" uniFB49 dx=-15 dy=0 dh=-15 dv=0 dx=0 dy=0 dh=0 dv=0
PairPos2: "'kern' Horizontal Kerning in Hebrew lookup 1 subtable" afii57695 dx=-15 dy=0 dh=-15 dv=0 dx=0 dy=0 dh=0 dv=0
PairPos2: "'kern' Horizontal Kerning in Hebrew lookup 1 subtable" afii57694 dx=-15 dy=0 dh=-15 dv=0 dx=0 dy=0 dh=0 dv=0
PairPos2: "'kern' Horizontal Kerning in Hebrew lookup 1 subtable" afii57689 dx=-15 dy=0 dh=-15 dv=0 dx=0 dy=0 dh=0 dv=0
PairPos2: "'kern' Horizontal Kerning in Hebrew lookup 1 subtable" uniFB48 dx=10 dy=0 dh=10 dv=0 dx=0 dy=0 dh=0 dv=0
PairPos2: "'kern' Horizontal Kerning in Hebrew lookup 1 subtable" afii57688 dx=10 dy=0 dh=10 dv=0 dx=0 dy=0 dh=0 dv=0
PairPos2: "'kern' Horizontal Kerning in Hebrew lookup 1 subtable" uniFB47 dx=-10 dy=0 dh=-10 dv=0 dx=0 dy=0 dh=0 dv=0
PairPos2: "'kern' Horizontal Kerning in Hebrew lookup 1 subtable" afii57687 dx=-10 dy=0 dh=-10 dv=0 dx=0 dy=0 dh=0 dv=0
PairPos2: "'kern' Horizontal Kerning in Hebrew lookup 1 subtable" uniFB46 dx=-10 dy=0 dh=-10 dv=0 dx=0 dy=0 dh=0 dv=0
PairPos2: "'kern' Horizontal Kerning in Hebrew lookup 1 subtable" afii57686 dx=-10 dy=0 dh=-10 dv=0 dx=0 dy=0 dh=0 dv=0
PairPos2: "'kern' Horizontal Kerning in Hebrew lookup 1 subtable" afii57685 dx=-20 dy=0 dh=-20 dv=0 dx=0 dy=0 dh=0 dv=0
PairPos2: "'kern' Horizontal Kerning in Hebrew lookup 1 subtable" uniFB4E dx=-10 dy=0 dh=-10 dv=0 dx=0 dy=0 dh=0 dv=0
PairPos2: "'kern' Horizontal Kerning in Hebrew lookup 1 subtable" uniFB44 dx=-10 dy=0 dh=-10 dv=0 dx=0 dy=0 dh=0 dv=0
PairPos2: "'kern' Horizontal Kerning in Hebrew lookup 1 subtable" afii57684 dx=-10 dy=0 dh=-10 dv=0 dx=0 dy=0 dh=0 dv=0
PairPos2: "'kern' Horizontal Kerning in Hebrew lookup 1 subtable" uniFB3E dx=-10 dy=0 dh=-10 dv=0 dx=0 dy=0 dh=0 dv=0
PairPos2: "'kern' Horizontal Kerning in Hebrew lookup 1 subtable" afii57678 dx=-10 dy=0 dh=-10 dv=0 dx=0 dy=0 dh=0 dv=0
PairPos2: "'kern' Horizontal Kerning in Hebrew lookup 1 subtable" uniFB26 dx=-10 dy=0 dh=-10 dv=0 dx=0 dy=0 dh=0 dv=0
PairPos2: "'kern' Horizontal Kerning in Hebrew lookup 1 subtable" afii57677 dx=-10 dy=0 dh=-10 dv=0 dx=0 dy=0 dh=0 dv=0
PairPos2: "'kern' Horizontal Kerning in Hebrew lookup 1 subtable" uniFB4D dx=-5 dy=0 dh=-5 dv=0 dx=0 dy=0 dh=0 dv=0
PairPos2: "'kern' Horizontal Kerning in Hebrew lookup 1 subtable" uniFB3B dx=-5 dy=0 dh=-5 dv=0 dx=0 dy=0 dh=0 dv=0
PairPos2: "'kern' Horizontal Kerning in Hebrew lookup 1 subtable" uniFB24 dx=-5 dy=0 dh=-5 dv=0 dx=0 dy=0 dh=0 dv=0
PairPos2: "'kern' Horizontal Kerning in Hebrew lookup 1 subtable" afii57675 dx=-5 dy=0 dh=-5 dv=0 dx=0 dy=0 dh=0 dv=0
PairPos2: "'kern' Horizontal Kerning in Hebrew lookup 1 subtable" uniFB3A dx=-10 dy=0 dh=-10 dv=0 dx=0 dy=0 dh=0 dv=0
PairPos2: "'kern' Horizontal Kerning in Hebrew lookup 1 subtable" afii57674 dx=-10 dy=0 dh=-10 dv=0 dx=0 dy=0 dh=0 dv=0
PairPos2: "'kern' Horizontal Kerning in Hebrew lookup 1 subtable" uniFB39 dx=-10 dy=0 dh=-10 dv=0 dx=0 dy=0 dh=0 dv=0
PairPos2: "'kern' Horizontal Kerning in Hebrew lookup 1 subtable" afii57673 dx=-10 dy=0 dh=-10 dv=0 dx=0 dy=0 dh=0 dv=0
PairPos2: "'kern' Horizontal Kerning in Hebrew lookup 1 subtable" uniFB38 dx=-20 dy=0 dh=-20 dv=0 dx=0 dy=0 dh=0 dv=0
PairPos2: "'kern' Horizontal Kerning in Hebrew lookup 1 subtable" afii57672 dx=-20 dy=0 dh=-20 dv=0 dx=0 dy=0 dh=0 dv=0
PairPos2: "'kern' Horizontal Kerning in Hebrew lookup 1 subtable" afii57671 dx=-5 dy=0 dh=-5 dv=0 dx=0 dy=0 dh=0 dv=0
PairPos2: "'kern' Horizontal Kerning in Hebrew lookup 1 subtable" uniFB36 dx=-10 dy=0 dh=-10 dv=0 dx=0 dy=0 dh=0 dv=0
PairPos2: "'kern' Horizontal Kerning in Hebrew lookup 1 subtable" afii57670 dx=-10 dy=0 dh=-10 dv=0 dx=0 dy=0 dh=0 dv=0
PairPos2: "'kern' Horizontal Kerning in Hebrew lookup 1 subtable" uniFB34 dx=-10 dy=0 dh=-10 dv=0 dx=0 dy=0 dh=0 dv=0
PairPos2: "'kern' Horizontal Kerning in Hebrew lookup 1 subtable" uniFB23 dx=-10 dy=0 dh=-10 dv=0 dx=0 dy=0 dh=0 dv=0
PairPos2: "'kern' Horizontal Kerning in Hebrew lookup 1 subtable" afii57668 dx=-10 dy=0 dh=-10 dv=0 dx=0 dy=0 dh=0 dv=0
PairPos2: "'kern' Horizontal Kerning in Hebrew lookup 1 subtable" uniFB33 dx=-10 dy=0 dh=-10 dv=0 dx=0 dy=0 dh=0 dv=0
PairPos2: "'kern' Horizontal Kerning in Hebrew lookup 1 subtable" uniFB22 dx=-10 dy=0 dh=-10 dv=0 dx=0 dy=0 dh=0 dv=0
PairPos2: "'kern' Horizontal Kerning in Hebrew lookup 1 subtable" afii57667 dx=-10 dy=0 dh=-10 dv=0 dx=0 dy=0 dh=0 dv=0
PairPos2: "'kern' Horizontal Kerning in Hebrew lookup 1 subtable" uniFB30 dx=-10 dy=0 dh=-10 dv=0 dx=0 dy=0 dh=0 dv=0
PairPos2: "'kern' Horizontal Kerning in Hebrew lookup 1 subtable" uniFB2F dx=-10 dy=0 dh=-10 dv=0 dx=0 dy=0 dh=0 dv=0
PairPos2: "'kern' Horizontal Kerning in Hebrew lookup 1 subtable" uniFB2E dx=-10 dy=0 dh=-10 dv=0 dx=0 dy=0 dh=0 dv=0
PairPos2: "'kern' Horizontal Kerning in Hebrew lookup 1 subtable" uniFB21 dx=-10 dy=0 dh=-10 dv=0 dx=0 dy=0 dh=0 dv=0
PairPos2: "'kern' Horizontal Kerning in Hebrew lookup 1 subtable" afii57664 dx=-10 dy=0 dh=-10 dv=0 dx=0 dy=0 dh=0 dv=0
PairPos2: "'kern' Horizontal Kerning in Hebrew lookup 1 subtable" afii57645 dx=-20 dy=0 dh=-20 dv=0 dx=0 dy=0 dh=0 dv=0
Comment: "%DiaToBase1+AD0A-260+AAoA%DiaToBase2+AD0A-260+AAoA%DiaToBase3+AD0A-260+AAoA%DiaToBaseU+AD0A-260+AAoA%DiaToBaseO+AD0A-15+AAoA" 
EndChar

StartChar: afii57666
Encoding: 1490 1490 147
Width: 384
VWidth: 1000
Flags: HMW
HStem: 0 20 0 200<74 156> 400 200<157 196>
AnchorPoint: "DiaToBaseD" 138 2 basechar 0
AnchorPoint: "DiaToBaseO" 30 0 basechar 0
AnchorPoint: "DiaToBaseU" 190 0 basechar 0
AnchorPoint: "DiaToBase3" 190 0 basechar 0
AnchorPoint: "DiaToBase2" 185 0 basechar 0
AnchorPoint: "DiaToBase1" 200 0 basechar 0
LayerCount: 2
Back
SplineSet
72.5498 200 m 10x60
 109.531 200 l 2
 190.5 200 222.19 230.265 227.5 290 c 0
 233.5 357.5 227 400 173 400 c 2
 148.52 400 l 10
 91.5527 400 64.5195 430 64.5195 519.5 c 0
 64.5195 588.5 92.2236 645.92 121.224 645.92 c 0
 138.474 645.92 129.208 633.644 131.52 619 c 8
 133.175 608.512 143.02 600 151.02 600 c 2
 217.531 600 l 2
 231.531 600 312.531 597 299.531 495 c 0
 291.485 431.871 282.28 417 282.449 365 c 0
 282.752 272.257 364.277 249.5 364.277 120 c 8
 364.277 70.0283 353 -4 332 -4 c 0
 302.5 -4 293.324 41.4893 282 79 c 0
 274 105.5 256.217 157.254 237.826 157.254 c 0
 222.333 157.254 203.865 103.412 193.531 74 c 2
 174.441 19.667 l 2
 169.427 5.39551 164.626 0 144.333 0 c 2
 27.5303 0 l 2
 5.13379 0 6.03125 9.20605 10 25 c 2
 51.3848 187 l 2
 54.1904 197.905 58.8691 200 72.5498 200 c 10x60
EndSplineSet
Fore
SplineSet
77.0498 190 m 10x60
 114.031 190 l 2
 195 190 225.344 226.586 233.5 286 c 0
 243.522 359.008 234 400 180 400 c 2
 155.52 400 l 10
 98.5527 400 71.5195 430 71.5195 519.5 c 0
 71.5195 588.5 99.2236 645.92 128.224 645.92 c 0
 145.474 645.92 136.208 633.644 138.52 619 c 8
 140.176 608.512 150.02 600 158.02 600 c 2
 224.531 600 l 2
 238.531 600 319.531 597 306.531 495 c 0
 298.485 431.871 289.28 417 289.449 365 c 0
 289.752 272.257 371.277 249.5 371.277 120 c 8
 371.277 70.0283 360 -4 339 -4 c 0
 309.5 -4 300.324 41.4893 289 79 c 0
 281 105.5 263.217 157.254 244.826 157.254 c 0
 229.333 157.254 210.865 103.412 200.531 74 c 2
 181.441 19.667 l 2
 176.427 5.39551 171.626 0 151.333 0 c 2
 34.5303 0 l 2
 12.1338 0 12.9639 9.22363 17 25 c 2
 55.8848 177 l 2
 58.6904 187.905 63.3691 190 77.0498 190 c 10x60
EndSplineSet
PairPos2: "'kern' Horizontal Kerning in Hebrew lookup 1 subtable" uniE804 dx=-30 dy=0 dh=-30 dv=0 dx=0 dy=0 dh=0 dv=0
PairPos2: "'kern' Horizontal Kerning in Hebrew lookup 1 subtable" uniE803 dx=-10 dy=0 dh=-10 dv=0 dx=0 dy=0 dh=0 dv=0
PairPos2: "'kern' Horizontal Kerning in Hebrew lookup 1 subtable" uniE802 dx=-10 dy=0 dh=-10 dv=0 dx=0 dy=0 dh=0 dv=0
PairPos2: "'kern' Horizontal Kerning in Hebrew lookup 1 subtable" quotesingle dx=-35 dy=0 dh=-35 dv=0 dx=0 dy=0 dh=0 dv=0
PairPos2: "'kern' Horizontal Kerning in Hebrew lookup 1 subtable" quoteright dx=-35 dy=0 dh=-35 dv=0 dx=0 dy=0 dh=0 dv=0
PairPos2: "'kern' Horizontal Kerning in Hebrew lookup 1 subtable" quotedblright dx=-35 dy=0 dh=-35 dv=0 dx=0 dy=0 dh=0 dv=0
PairPos2: "'kern' Horizontal Kerning in Hebrew lookup 1 subtable" quotedbl dx=-35 dy=0 dh=-35 dv=0 dx=0 dy=0 dh=0 dv=0
PairPos2: "'kern' Horizontal Kerning in Hebrew lookup 1 subtable" question dx=-15 dy=0 dh=-15 dv=0 dx=0 dy=0 dh=0 dv=0
PairPos2: "'kern' Horizontal Kerning in Hebrew lookup 1 subtable" period dx=20 dy=0 dh=20 dv=0 dx=0 dy=0 dh=0 dv=0
PairPos2: "'kern' Horizontal Kerning in Hebrew lookup 1 subtable" ellipsis dx=20 dy=0 dh=20 dv=0 dx=0 dy=0 dh=0 dv=0
PairPos2: "'kern' Horizontal Kerning in Hebrew lookup 1 subtable" comma dx=20 dy=0 dh=20 dv=0 dx=0 dy=0 dh=0 dv=0
PairPos2: "'kern' Horizontal Kerning in Hebrew lookup 1 subtable" uniFB1D dx=-30 dy=0 dh=-30 dv=0 dx=0 dy=0 dh=0 dv=0
PairPos2: "'kern' Horizontal Kerning in Hebrew lookup 1 subtable" uniFB2D dx=-40 dy=0 dh=-40 dv=0 dx=0 dy=0 dh=0 dv=0
PairPos2: "'kern' Horizontal Kerning in Hebrew lookup 1 subtable" uniFB2C dx=-40 dy=0 dh=-40 dv=0 dx=0 dy=0 dh=0 dv=0
PairPos2: "'kern' Horizontal Kerning in Hebrew lookup 1 subtable" uniFB45 dx=-25 dy=0 dh=-25 dv=0 dx=0 dy=0 dh=0 dv=0
PairPos2: "'kern' Horizontal Kerning in Hebrew lookup 1 subtable" uniFB42 dx=-25 dy=0 dh=-25 dv=0 dx=0 dy=0 dh=0 dv=0
PairPos2: "'kern' Horizontal Kerning in Hebrew lookup 1 subtable" uniFB3F dx=-20 dy=0 dh=-20 dv=0 dx=0 dy=0 dh=0 dv=0
PairPos2: "'kern' Horizontal Kerning in Hebrew lookup 1 subtable" uniFB3D dx=10 dy=0 dh=10 dv=0 dx=0 dy=0 dh=0 dv=0
PairPos2: "'kern' Horizontal Kerning in Hebrew lookup 1 subtable" uniFB37 dx=-10 dy=0 dh=-10 dv=0 dx=0 dy=0 dh=0 dv=0
PairPos2: "'kern' Horizontal Kerning in Hebrew lookup 1 subtable" uni05F4 dx=-35 dy=0 dh=-35 dv=0 dx=0 dy=0 dh=0 dv=0
PairPos2: "'kern' Horizontal Kerning in Hebrew lookup 1 subtable" uni05F3 dx=-35 dy=0 dh=-35 dv=0 dx=0 dy=0 dh=0 dv=0
PairPos2: "'kern' Horizontal Kerning in Hebrew lookup 1 subtable" afii57718 dx=-30 dy=0 dh=-30 dv=0 dx=0 dy=0 dh=0 dv=0
PairPos2: "'kern' Horizontal Kerning in Hebrew lookup 1 subtable" afii57705 dx=-30 dy=0 dh=-30 dv=0 dx=0 dy=0 dh=0 dv=0
PairPos2: "'kern' Horizontal Kerning in Hebrew lookup 1 subtable" afii57717 dx=-30 dy=0 dh=-30 dv=0 dx=0 dy=0 dh=0 dv=0
PairPos2: "'kern' Horizontal Kerning in Hebrew lookup 1 subtable" uniFB4A dx=10 dy=0 dh=10 dv=0 dx=0 dy=0 dh=0 dv=0
PairPos2: "'kern' Horizontal Kerning in Hebrew lookup 1 subtable" uniFB28 dx=10 dy=0 dh=10 dv=0 dx=0 dy=0 dh=0 dv=0
PairPos2: "'kern' Horizontal Kerning in Hebrew lookup 1 subtable" afii57690 dx=10 dy=0 dh=10 dv=0 dx=0 dy=0 dh=0 dv=0
PairPos2: "'kern' Horizontal Kerning in Hebrew lookup 1 subtable" uniFB49 dx=-40 dy=0 dh=-40 dv=0 dx=0 dy=0 dh=0 dv=0
PairPos2: "'kern' Horizontal Kerning in Hebrew lookup 1 subtable" afii57695 dx=-40 dy=0 dh=-40 dv=0 dx=0 dy=0 dh=0 dv=0
PairPos2: "'kern' Horizontal Kerning in Hebrew lookup 1 subtable" afii57694 dx=-40 dy=0 dh=-40 dv=0 dx=0 dy=0 dh=0 dv=0
PairPos2: "'kern' Horizontal Kerning in Hebrew lookup 1 subtable" afii57689 dx=-40 dy=0 dh=-40 dv=0 dx=0 dy=0 dh=0 dv=0
PairPos2: "'kern' Horizontal Kerning in Hebrew lookup 1 subtable" uniFB48 dx=10 dy=0 dh=10 dv=0 dx=0 dy=0 dh=0 dv=0
PairPos2: "'kern' Horizontal Kerning in Hebrew lookup 1 subtable" afii57688 dx=10 dy=0 dh=10 dv=0 dx=0 dy=0 dh=0 dv=0
PairPos2: "'kern' Horizontal Kerning in Hebrew lookup 1 subtable" uniFB47 dx=-25 dy=0 dh=-25 dv=0 dx=0 dy=0 dh=0 dv=0
PairPos2: "'kern' Horizontal Kerning in Hebrew lookup 1 subtable" afii57687 dx=-25 dy=0 dh=-25 dv=0 dx=0 dy=0 dh=0 dv=0
PairPos2: "'kern' Horizontal Kerning in Hebrew lookup 1 subtable" uniFB46 dx=-10 dy=0 dh=-10 dv=0 dx=0 dy=0 dh=0 dv=0
PairPos2: "'kern' Horizontal Kerning in Hebrew lookup 1 subtable" afii57686 dx=-10 dy=0 dh=-10 dv=0 dx=0 dy=0 dh=0 dv=0
PairPos2: "'kern' Horizontal Kerning in Hebrew lookup 1 subtable" afii57685 dx=-25 dy=0 dh=-25 dv=0 dx=0 dy=0 dh=0 dv=0
PairPos2: "'kern' Horizontal Kerning in Hebrew lookup 1 subtable" uniFB4E dx=-10 dy=0 dh=-10 dv=0 dx=0 dy=0 dh=0 dv=0
PairPos2: "'kern' Horizontal Kerning in Hebrew lookup 1 subtable" uniFB44 dx=-10 dy=0 dh=-10 dv=0 dx=0 dy=0 dh=0 dv=0
PairPos2: "'kern' Horizontal Kerning in Hebrew lookup 1 subtable" afii57684 dx=-10 dy=0 dh=-10 dv=0 dx=0 dy=0 dh=0 dv=0
PairPos2: "'kern' Horizontal Kerning in Hebrew lookup 1 subtable" afii57682 dx=-25 dy=0 dh=-25 dv=0 dx=0 dy=0 dh=0 dv=0
PairPos2: "'kern' Horizontal Kerning in Hebrew lookup 1 subtable" uniFB40 dx=10 dy=0 dh=10 dv=0 dx=0 dy=0 dh=0 dv=0
PairPos2: "'kern' Horizontal Kerning in Hebrew lookup 1 subtable" afii57680 dx=10 dy=0 dh=10 dv=0 dx=0 dy=0 dh=0 dv=0
PairPos2: "'kern' Horizontal Kerning in Hebrew lookup 1 subtable" afii57679 dx=-20 dy=0 dh=-20 dv=0 dx=0 dy=0 dh=0 dv=0
PairPos2: "'kern' Horizontal Kerning in Hebrew lookup 1 subtable" uniFB26 dx=10 dy=0 dh=10 dv=0 dx=0 dy=0 dh=0 dv=0
PairPos2: "'kern' Horizontal Kerning in Hebrew lookup 1 subtable" afii57677 dx=10 dy=0 dh=10 dv=0 dx=0 dy=0 dh=0 dv=0
PairPos2: "'kern' Horizontal Kerning in Hebrew lookup 1 subtable" uniFB3C dx=-20 dy=0 dh=-20 dv=0 dx=0 dy=0 dh=0 dv=0
PairPos2: "'kern' Horizontal Kerning in Hebrew lookup 1 subtable" uniFB25 dx=-20 dy=0 dh=-20 dv=0 dx=0 dy=0 dh=0 dv=0
PairPos2: "'kern' Horizontal Kerning in Hebrew lookup 1 subtable" afii57676 dx=-20 dy=0 dh=-20 dv=0 dx=0 dy=0 dh=0 dv=0
PairPos2: "'kern' Horizontal Kerning in Hebrew lookup 1 subtable" uniFB3A dx=-10 dy=0 dh=-10 dv=0 dx=0 dy=0 dh=0 dv=0
PairPos2: "'kern' Horizontal Kerning in Hebrew lookup 1 subtable" afii57674 dx=-10 dy=0 dh=-10 dv=0 dx=0 dy=0 dh=0 dv=0
PairPos2: "'kern' Horizontal Kerning in Hebrew lookup 1 subtable" uniFB39 dx=-30 dy=0 dh=-30 dv=0 dx=0 dy=0 dh=0 dv=0
PairPos2: "'kern' Horizontal Kerning in Hebrew lookup 1 subtable" afii57673 dx=-30 dy=0 dh=-30 dv=0 dx=0 dy=0 dh=0 dv=0
PairPos2: "'kern' Horizontal Kerning in Hebrew lookup 1 subtable" uniFB38 dx=-10 dy=0 dh=-10 dv=0 dx=0 dy=0 dh=0 dv=0
PairPos2: "'kern' Horizontal Kerning in Hebrew lookup 1 subtable" afii57672 dx=-10 dy=0 dh=-10 dv=0 dx=0 dy=0 dh=0 dv=0
PairPos2: "'kern' Horizontal Kerning in Hebrew lookup 1 subtable" afii57671 dx=-10 dy=0 dh=-10 dv=0 dx=0 dy=0 dh=0 dv=0
PairPos2: "'kern' Horizontal Kerning in Hebrew lookup 1 subtable" uniFB36 dx=-25 dy=0 dh=-25 dv=0 dx=0 dy=0 dh=0 dv=0
PairPos2: "'kern' Horizontal Kerning in Hebrew lookup 1 subtable" afii57670 dx=-25 dy=0 dh=-25 dv=0 dx=0 dy=0 dh=0 dv=0
PairPos2: "'kern' Horizontal Kerning in Hebrew lookup 1 subtable" uniFB33 dx=-10 dy=0 dh=-10 dv=0 dx=0 dy=0 dh=0 dv=0
PairPos2: "'kern' Horizontal Kerning in Hebrew lookup 1 subtable" uniFB22 dx=-10 dy=0 dh=-10 dv=0 dx=0 dy=0 dh=0 dv=0
PairPos2: "'kern' Horizontal Kerning in Hebrew lookup 1 subtable" afii57667 dx=-10 dy=0 dh=-10 dv=0 dx=0 dy=0 dh=0 dv=0
PairPos2: "'kern' Horizontal Kerning in Hebrew lookup 1 subtable" uniFB32 dx=10 dy=0 dh=10 dv=0 dx=0 dy=0 dh=0 dv=0
PairPos2: "'kern' Horizontal Kerning in Hebrew lookup 1 subtable" afii57666 dx=10 dy=0 dh=10 dv=0 dx=0 dy=0 dh=0 dv=0
PairPos2: "'kern' Horizontal Kerning in Hebrew lookup 1 subtable" afii57645 dx=-35 dy=0 dh=-35 dv=0 dx=0 dy=0 dh=0 dv=0
Comment: "%DiaToBase1+AD0A-200+AAoA%DiaToBase2+AD0A-185+AAoA%DiaToBase3+AD0A-190+AAoA%DiaToBaseU+AD0A-190+AAoA%DiaToBaseO+AD0A-30+AAoA" 
EndChar

StartChar: afii57667
Encoding: 1491 1491 148
Width: 520
VWidth: 1000
Flags: HMW
HStem: 0 20 400 200<115 386>
AnchorPoint: "DiaToBaseD" 260 0 basechar 0
AnchorPoint: "DiaToBaseO" -15 0 basechar 0
AnchorPoint: "DiaToBaseU" 320 0 basechar 0
AnchorPoint: "DiaToBase3" 300 0 basechar 0
AnchorPoint: "DiaToBase2" 360 0 basechar 0
AnchorPoint: "DiaToBase1" 370 0 basechar 0
LayerCount: 2
Back
SplineSet
125.729 400 m 10
 102.389 400 91.0645 401.714 70.0645 417.5 c 0
 60.7432 424.507 50.0645 445.783 46.0645 467.489 c 8
 42.8096 485.153 41.8395 494.255 42.0645 512.216 c 24
 42.416 540.285 44.4482 554 50.0645 581.938 c 8
 55.3604 608.281 62.5645 631.817 78.0645 643 c 8
 84.585 647.704 95.5645 646.5 98.0645 641 c 0
 99.833 637.111 96.5645 628.5 98.0645 619 c 8
 99.7627 608.243 109.564 600.024 117.564 600 c 2
 462.064 600 l 1
 489.064 600 508.396 584.938 508.73 550 c 1
 508.064 440.665 l 2
 507.207 404.685 473.729 424 447.729 369 c 0
 400.349 268.774 449.8 223.043 462.064 147 c 0
 467.064 116 466.564 74 441.064 36 c 0
 416.319 -0.874023 356.03 -11.5781 348.729 4 c 0
 341.229 20 356.729 -5.5 357.729 152.5 c 0
 357.918 182.516 346.729 252.5 373.729 329.5 c 0
 390.602 377.617 409.729 382.514 409.729 392 c 4
 409.729 402 397.718 400 388.729 400 c 22
 125.729 400 l 10
EndSplineSet
Fore
SplineSet
115.229 600 m 2
 449.064 600 l 1
 476.064 600 495.396 584.938 495.73 550 c 1
 495.064 439.5 l 2
 494.873 408.17 478.825 402.349 460.333 388.336 c 0
 428 363.835 414.592 318.233 414.592 287.5 c 0
 414.592 237 440.683 198.967 449.064 147 c 0
 454.064 116 453.564 74 428.064 36 c 0
 403.319 -0.874023 343.03 -11.5781 335.729 4 c 0
 328.229 20 343.729 -5.5 344.729 152.5 c 0
 344.918 182.516 333.729 252.5 360.729 329.5 c 0
 377.602 377.617 396.729 382.514 396.729 392 c 0
 396.729 399.333 390.778 400 375.729 400 c 2
 112.729 400 l 10
 55.7617 400 28.7285 430 28.7285 519.5 c 0
 28.7285 588.5 56.4326 645.92 85.4326 645.92 c 0
 102.683 645.92 93.417 633.644 95.7285 619 c 8
 97.3838 608.512 107.124 600 115.229 600 c 2
EndSplineSet
PairPos2: "'kern' Horizontal Kerning in Hebrew lookup 1 subtable" uniE804 dx=10 dy=0 dh=10 dv=0 dx=0 dy=0 dh=0 dv=0
PairPos2: "'kern' Horizontal Kerning in Hebrew lookup 1 subtable" uniE803 dx=10 dy=0 dh=10 dv=0 dx=0 dy=0 dh=0 dv=0
PairPos2: "'kern' Horizontal Kerning in Hebrew lookup 1 subtable" uniE802 dx=10 dy=0 dh=10 dv=0 dx=0 dy=0 dh=0 dv=0
PairPos2: "'kern' Horizontal Kerning in Hebrew lookup 1 subtable" quotesingle dx=10 dy=0 dh=10 dv=0 dx=0 dy=0 dh=0 dv=0
PairPos2: "'kern' Horizontal Kerning in Hebrew lookup 1 subtable" quoteright dx=10 dy=0 dh=10 dv=0 dx=0 dy=0 dh=0 dv=0
PairPos2: "'kern' Horizontal Kerning in Hebrew lookup 1 subtable" quotedblright dx=10 dy=0 dh=10 dv=0 dx=0 dy=0 dh=0 dv=0
PairPos2: "'kern' Horizontal Kerning in Hebrew lookup 1 subtable" quotedbl dx=10 dy=0 dh=10 dv=0 dx=0 dy=0 dh=0 dv=0
PairPos2: "'kern' Horizontal Kerning in Hebrew lookup 1 subtable" question dx=30 dy=0 dh=30 dv=0 dx=0 dy=0 dh=0 dv=0
PairPos2: "'kern' Horizontal Kerning in Hebrew lookup 1 subtable" period dx=-80 dy=0 dh=-80 dv=0 dx=0 dy=0 dh=0 dv=0
PairPos2: "'kern' Horizontal Kerning in Hebrew lookup 1 subtable" ellipsis dx=-80 dy=0 dh=-80 dv=0 dx=0 dy=0 dh=0 dv=0
PairPos2: "'kern' Horizontal Kerning in Hebrew lookup 1 subtable" hyphen dx=20 dy=0 dh=20 dv=0 dx=0 dy=0 dh=0 dv=0
PairPos2: "'kern' Horizontal Kerning in Hebrew lookup 1 subtable" comma dx=-80 dy=0 dh=-80 dv=0 dx=0 dy=0 dh=0 dv=0
PairPos2: "'kern' Horizontal Kerning in Hebrew lookup 1 subtable" uniFB1D dx=10 dy=0 dh=10 dv=0 dx=0 dy=0 dh=0 dv=0
PairPos2: "'kern' Horizontal Kerning in Hebrew lookup 1 subtable" uniFB2D dx=10 dy=0 dh=10 dv=0 dx=0 dy=0 dh=0 dv=0
PairPos2: "'kern' Horizontal Kerning in Hebrew lookup 1 subtable" uniFB2C dx=10 dy=0 dh=10 dv=0 dx=0 dy=0 dh=0 dv=0
PairPos2: "'kern' Horizontal Kerning in Hebrew lookup 1 subtable" uniFB45 dx=10 dy=0 dh=10 dv=0 dx=0 dy=0 dh=0 dv=0
PairPos2: "'kern' Horizontal Kerning in Hebrew lookup 1 subtable" uniFB3D dx=-10 dy=0 dh=-10 dv=0 dx=0 dy=0 dh=0 dv=0
PairPos2: "'kern' Horizontal Kerning in Hebrew lookup 1 subtable" uniFB37 dx=10 dy=0 dh=10 dv=0 dx=0 dy=0 dh=0 dv=0
PairPos2: "'kern' Horizontal Kerning in Hebrew lookup 1 subtable" uni05F4 dx=10 dy=0 dh=10 dv=0 dx=0 dy=0 dh=0 dv=0
PairPos2: "'kern' Horizontal Kerning in Hebrew lookup 1 subtable" uni05F3 dx=10 dy=0 dh=10 dv=0 dx=0 dy=0 dh=0 dv=0
PairPos2: "'kern' Horizontal Kerning in Hebrew lookup 1 subtable" afii57718 dx=10 dy=0 dh=10 dv=0 dx=0 dy=0 dh=0 dv=0
PairPos2: "'kern' Horizontal Kerning in Hebrew lookup 1 subtable" afii57705 dx=10 dy=0 dh=10 dv=0 dx=0 dy=0 dh=0 dv=0
PairPos2: "'kern' Horizontal Kerning in Hebrew lookup 1 subtable" afii57717 dx=10 dy=0 dh=10 dv=0 dx=0 dy=0 dh=0 dv=0
PairPos2: "'kern' Horizontal Kerning in Hebrew lookup 1 subtable" uniFB4A dx=10 dy=0 dh=10 dv=0 dx=0 dy=0 dh=0 dv=0
PairPos2: "'kern' Horizontal Kerning in Hebrew lookup 1 subtable" uniFB28 dx=10 dy=0 dh=10 dv=0 dx=0 dy=0 dh=0 dv=0
PairPos2: "'kern' Horizontal Kerning in Hebrew lookup 1 subtable" afii57690 dx=10 dy=0 dh=10 dv=0 dx=0 dy=0 dh=0 dv=0
PairPos2: "'kern' Horizontal Kerning in Hebrew lookup 1 subtable" uniFB49 dx=10 dy=0 dh=10 dv=0 dx=0 dy=0 dh=0 dv=0
PairPos2: "'kern' Horizontal Kerning in Hebrew lookup 1 subtable" afii57695 dx=10 dy=0 dh=10 dv=0 dx=0 dy=0 dh=0 dv=0
PairPos2: "'kern' Horizontal Kerning in Hebrew lookup 1 subtable" afii57694 dx=10 dy=0 dh=10 dv=0 dx=0 dy=0 dh=0 dv=0
PairPos2: "'kern' Horizontal Kerning in Hebrew lookup 1 subtable" afii57689 dx=10 dy=0 dh=10 dv=0 dx=0 dy=0 dh=0 dv=0
PairPos2: "'kern' Horizontal Kerning in Hebrew lookup 1 subtable" uniFB48 dx=10 dy=0 dh=10 dv=0 dx=0 dy=0 dh=0 dv=0
PairPos2: "'kern' Horizontal Kerning in Hebrew lookup 1 subtable" afii57688 dx=10 dy=0 dh=10 dv=0 dx=0 dy=0 dh=0 dv=0
PairPos2: "'kern' Horizontal Kerning in Hebrew lookup 1 subtable" uniFB47 dx=10 dy=0 dh=10 dv=0 dx=0 dy=0 dh=0 dv=0
PairPos2: "'kern' Horizontal Kerning in Hebrew lookup 1 subtable" afii57687 dx=10 dy=0 dh=10 dv=0 dx=0 dy=0 dh=0 dv=0
PairPos2: "'kern' Horizontal Kerning in Hebrew lookup 1 subtable" uniFB46 dx=10 dy=0 dh=10 dv=0 dx=0 dy=0 dh=0 dv=0
PairPos2: "'kern' Horizontal Kerning in Hebrew lookup 1 subtable" afii57686 dx=10 dy=0 dh=10 dv=0 dx=0 dy=0 dh=0 dv=0
PairPos2: "'kern' Horizontal Kerning in Hebrew lookup 1 subtable" afii57685 dx=10 dy=0 dh=10 dv=0 dx=0 dy=0 dh=0 dv=0
PairPos2: "'kern' Horizontal Kerning in Hebrew lookup 1 subtable" uniFB43 dx=-10 dy=0 dh=-10 dv=0 dx=0 dy=0 dh=0 dv=0
PairPos2: "'kern' Horizontal Kerning in Hebrew lookup 1 subtable" afii57683 dx=-10 dy=0 dh=-10 dv=0 dx=0 dy=0 dh=0 dv=0
PairPos2: "'kern' Horizontal Kerning in Hebrew lookup 1 subtable" uniFB41 dx=10 dy=0 dh=10 dv=0 dx=0 dy=0 dh=0 dv=0
PairPos2: "'kern' Horizontal Kerning in Hebrew lookup 1 subtable" afii57681 dx=10 dy=0 dh=10 dv=0 dx=0 dy=0 dh=0 dv=0
PairPos2: "'kern' Horizontal Kerning in Hebrew lookup 1 subtable" uniFB26 dx=-10 dy=0 dh=-10 dv=0 dx=0 dy=0 dh=0 dv=0
PairPos2: "'kern' Horizontal Kerning in Hebrew lookup 1 subtable" afii57677 dx=-10 dy=0 dh=-10 dv=0 dx=0 dy=0 dh=0 dv=0
PairPos2: "'kern' Horizontal Kerning in Hebrew lookup 1 subtable" uniFB3C dx=20 dy=0 dh=20 dv=0 dx=0 dy=0 dh=0 dv=0
PairPos2: "'kern' Horizontal Kerning in Hebrew lookup 1 subtable" uniFB25 dx=20 dy=0 dh=20 dv=0 dx=0 dy=0 dh=0 dv=0
PairPos2: "'kern' Horizontal Kerning in Hebrew lookup 1 subtable" afii57676 dx=20 dy=0 dh=20 dv=0 dx=0 dy=0 dh=0 dv=0
PairPos2: "'kern' Horizontal Kerning in Hebrew lookup 1 subtable" uniFB4D dx=10 dy=0 dh=10 dv=0 dx=0 dy=0 dh=0 dv=0
PairPos2: "'kern' Horizontal Kerning in Hebrew lookup 1 subtable" uniFB3B dx=10 dy=0 dh=10 dv=0 dx=0 dy=0 dh=0 dv=0
PairPos2: "'kern' Horizontal Kerning in Hebrew lookup 1 subtable" uniFB24 dx=10 dy=0 dh=10 dv=0 dx=0 dy=0 dh=0 dv=0
PairPos2: "'kern' Horizontal Kerning in Hebrew lookup 1 subtable" afii57675 dx=10 dy=0 dh=10 dv=0 dx=0 dy=0 dh=0 dv=0
PairPos2: "'kern' Horizontal Kerning in Hebrew lookup 1 subtable" uniFB3A dx=10 dy=0 dh=10 dv=0 dx=0 dy=0 dh=0 dv=0
PairPos2: "'kern' Horizontal Kerning in Hebrew lookup 1 subtable" afii57674 dx=10 dy=0 dh=10 dv=0 dx=0 dy=0 dh=0 dv=0
PairPos2: "'kern' Horizontal Kerning in Hebrew lookup 1 subtable" uniFB39 dx=10 dy=0 dh=10 dv=0 dx=0 dy=0 dh=0 dv=0
PairPos2: "'kern' Horizontal Kerning in Hebrew lookup 1 subtable" afii57673 dx=10 dy=0 dh=10 dv=0 dx=0 dy=0 dh=0 dv=0
PairPos2: "'kern' Horizontal Kerning in Hebrew lookup 1 subtable" uniFB38 dx=10 dy=0 dh=10 dv=0 dx=0 dy=0 dh=0 dv=0
PairPos2: "'kern' Horizontal Kerning in Hebrew lookup 1 subtable" afii57672 dx=10 dy=0 dh=10 dv=0 dx=0 dy=0 dh=0 dv=0
PairPos2: "'kern' Horizontal Kerning in Hebrew lookup 1 subtable" afii57671 dx=10 dy=0 dh=10 dv=0 dx=0 dy=0 dh=0 dv=0
PairPos2: "'kern' Horizontal Kerning in Hebrew lookup 1 subtable" uniFB36 dx=10 dy=0 dh=10 dv=0 dx=0 dy=0 dh=0 dv=0
PairPos2: "'kern' Horizontal Kerning in Hebrew lookup 1 subtable" afii57670 dx=10 dy=0 dh=10 dv=0 dx=0 dy=0 dh=0 dv=0
PairPos2: "'kern' Horizontal Kerning in Hebrew lookup 1 subtable" uniFB34 dx=10 dy=0 dh=10 dv=0 dx=0 dy=0 dh=0 dv=0
PairPos2: "'kern' Horizontal Kerning in Hebrew lookup 1 subtable" uniFB23 dx=10 dy=0 dh=10 dv=0 dx=0 dy=0 dh=0 dv=0
PairPos2: "'kern' Horizontal Kerning in Hebrew lookup 1 subtable" afii57668 dx=10 dy=0 dh=10 dv=0 dx=0 dy=0 dh=0 dv=0
PairPos2: "'kern' Horizontal Kerning in Hebrew lookup 1 subtable" uniFB33 dx=10 dy=0 dh=10 dv=0 dx=0 dy=0 dh=0 dv=0
PairPos2: "'kern' Horizontal Kerning in Hebrew lookup 1 subtable" uniFB22 dx=10 dy=0 dh=10 dv=0 dx=0 dy=0 dh=0 dv=0
PairPos2: "'kern' Horizontal Kerning in Hebrew lookup 1 subtable" afii57667 dx=10 dy=0 dh=10 dv=0 dx=0 dy=0 dh=0 dv=0
PairPos2: "'kern' Horizontal Kerning in Hebrew lookup 1 subtable" uniFB32 dx=-25 dy=0 dh=-25 dv=0 dx=0 dy=0 dh=0 dv=0
PairPos2: "'kern' Horizontal Kerning in Hebrew lookup 1 subtable" afii57666 dx=-25 dy=0 dh=-25 dv=0 dx=0 dy=0 dh=0 dv=0
PairPos2: "'kern' Horizontal Kerning in Hebrew lookup 1 subtable" uniFB4C dx=-10 dy=0 dh=-10 dv=0 dx=0 dy=0 dh=0 dv=0
PairPos2: "'kern' Horizontal Kerning in Hebrew lookup 1 subtable" uniFB31 dx=-10 dy=0 dh=-10 dv=0 dx=0 dy=0 dh=0 dv=0
PairPos2: "'kern' Horizontal Kerning in Hebrew lookup 1 subtable" afii57665 dx=-10 dy=0 dh=-10 dv=0 dx=0 dy=0 dh=0 dv=0
PairPos2: "'kern' Horizontal Kerning in Hebrew lookup 1 subtable" afii57645 dx=10 dy=0 dh=10 dv=0 dx=0 dy=0 dh=0 dv=0
Substitution2: "WideLetters" uniFB22
Comment: "%DiaToBase1+AD0A-370+AAoA%DiaToBase2+AD0A-360+AAoA%DiaToBase3+AD0A-300+AAoA%DiaToBaseU+AD0A-320+AAoA%DiaToBaseO+AD0A--15+AAoA" 
EndChar

StartChar: afii57668
Encoding: 1492 1492 149
Width: 557
VWidth: 1000
Flags: HMW
HStem: 0 20 400 200<129 448>
AnchorPoint: "DiaToBaseD" 277 0 basechar 0
AnchorPoint: "DiaToBaseU" 270 0 basechar 0
AnchorPoint: "DiaToBase3" 275 0 basechar 0
AnchorPoint: "DiaToBase2" 260 0 basechar 0
AnchorPoint: "DiaToBase1" 270 0 basechar 0
LayerCount: 2
Back
SplineSet
129.794 400 m 10
 106.453 400 95.1289 401.714 74.1289 417.5 c 0
 64.8076 424.507 54.1289 445.783 50.1289 467.489 c 8
 46.874 485.153 45.9039 494.255 46.1289 512.216 c 24
 46.4805 540.285 48.5127 554 54.1289 581.938 c 8
 59.4248 608.281 66.6289 631.817 82.1289 643 c 8
 88.6494 647.704 99.6289 646.5 102.129 641 c 0
 103.897 637.111 100.629 628.5 102.129 619 c 8
 103.827 608.243 113.629 600.024 121.629 600 c 2
 466.129 600 l 1
 493.129 600 512.459 584.938 512.796 550 c 1
 512.129 453 l 2
 511.768 400.502 492.794 397 480.794 369 c 0
 437.792 268.662 482.864 223.043 495.129 147 c 0
 500.129 116 499.629 74 474.129 36 c 0
 449.385 -0.874023 389.095 -11.5781 381.793 4 c 0
 374.293 20 389.793 -5.5 390.793 152.5 c 0
 390.983 182.516 379.794 252.5 406.794 329.5 c 0
 423.666 377.617 442.794 382.514 442.794 392 c 0
 442.794 402 430.783 400 421.794 400 c 18
 129.794 400 l 10
161.594 293.65 m 0
 170.594 293.65 174.794 291.95 171.794 286 c 0
 161.774 266.129 162.293 205.512 165.794 154.676 c 0
 166.993 137.25 167.178 67.5811 152.594 48.8506 c 0
 127.794 17 72.1934 -1.25 59.5938 -0.400391 c 0
 50.3213 0.225586 46.3936 4.27441 49.7441 10.2246 c 0
 55.1875 19.8936 57.2979 44.0176 58.3936 113.074 c 0
 59.2773 168.753 54.7939 225 78.1934 252.05 c 0
 98.5869 275.625 126.174 293.65 161.594 293.65 c 0
EndSplineSet
Fore
SplineSet
129.217 600 m 2
 473.129 600 l 2
 500.129 600 520.036 584.938 519.796 550 c 2
 519.8 453 l 2
 519.439 400.502 497.935 397 486.912 369 c 0
 447.414 268.662 494.079 223.043 509 147 c 0
 515.082 116 516.049 74 491.876 36 c 0
 468.42 -0.874023 408.503 -11.5781 400.657 4 c 0
 392.599 20 408.988 -5.5 404.472 152.5 c 0
 403.613 182.516 389.98 252.5 414.292 329.5 c 0
 429.483 377.617 449.794 382.514 449.794 392 c 0
 449.794 397.667 448 400 428.794 400 c 2
 126.714 400 l 10
 69.7471 400 42.7139 430 42.7139 519.5 c 0
 42.7139 588.5 70.418 645.92 99.418 645.92 c 0
 116.668 645.92 107.402 633.644 109.714 619 c 8
 111.37 608.511 121.051 600 129.217 600 c 2
158.594 293.65 m 0
 167.594 293.65 171.794 291.95 168.794 286 c 0
 158.774 266.129 161.206 205.608 162.794 154.676 c 0
 164 116 165 75 143 45 c 0
 119.128 12.4482 69.1934 -1.25 56.5938 -0.400391 c 0
 47.3213 0.225586 43.3936 4.27441 46.7441 10.2246 c 0
 52.1875 19.8936 54.2979 44.0176 55.3936 113.074 c 0
 56.2773 168.753 51.7939 225 75.1934 252.05 c 0
 95.5869 275.625 123.174 293.65 158.594 293.65 c 0
EndSplineSet
PairPos2: "'kern' Horizontal Kerning in Hebrew lookup 1 subtable" uniE801 dx=10 dy=0 dh=10 dv=0 dx=0 dy=0 dh=0 dv=0
PairPos2: "'kern' Horizontal Kerning in Hebrew lookup 1 subtable" quotesingle dx=5 dy=0 dh=5 dv=0 dx=0 dy=0 dh=0 dv=0
PairPos2: "'kern' Horizontal Kerning in Hebrew lookup 1 subtable" quoteright dx=5 dy=0 dh=5 dv=0 dx=0 dy=0 dh=0 dv=0
PairPos2: "'kern' Horizontal Kerning in Hebrew lookup 1 subtable" quotedblright dx=5 dy=0 dh=5 dv=0 dx=0 dy=0 dh=0 dv=0
PairPos2: "'kern' Horizontal Kerning in Hebrew lookup 1 subtable" quotedbl dx=5 dy=0 dh=5 dv=0 dx=0 dy=0 dh=0 dv=0
PairPos2: "'kern' Horizontal Kerning in Hebrew lookup 1 subtable" question dx=15 dy=0 dh=15 dv=0 dx=0 dy=0 dh=0 dv=0
PairPos2: "'kern' Horizontal Kerning in Hebrew lookup 1 subtable" uniFB3D dx=10 dy=0 dh=10 dv=0 dx=0 dy=0 dh=0 dv=0
PairPos2: "'kern' Horizontal Kerning in Hebrew lookup 1 subtable" uni05F4 dx=5 dy=0 dh=5 dv=0 dx=0 dy=0 dh=0 dv=0
PairPos2: "'kern' Horizontal Kerning in Hebrew lookup 1 subtable" uni05F3 dx=5 dy=0 dh=5 dv=0 dx=0 dy=0 dh=0 dv=0
PairPos2: "'kern' Horizontal Kerning in Hebrew lookup 1 subtable" afii57716 dx=10 dy=0 dh=10 dv=0 dx=0 dy=0 dh=0 dv=0
PairPos2: "'kern' Horizontal Kerning in Hebrew lookup 1 subtable" uniFB4A dx=10 dy=0 dh=10 dv=0 dx=0 dy=0 dh=0 dv=0
PairPos2: "'kern' Horizontal Kerning in Hebrew lookup 1 subtable" uniFB28 dx=10 dy=0 dh=10 dv=0 dx=0 dy=0 dh=0 dv=0
PairPos2: "'kern' Horizontal Kerning in Hebrew lookup 1 subtable" afii57690 dx=10 dy=0 dh=10 dv=0 dx=0 dy=0 dh=0 dv=0
PairPos2: "'kern' Horizontal Kerning in Hebrew lookup 1 subtable" uniFB48 dx=20 dy=0 dh=20 dv=0 dx=0 dy=0 dh=0 dv=0
PairPos2: "'kern' Horizontal Kerning in Hebrew lookup 1 subtable" afii57688 dx=20 dy=0 dh=20 dv=0 dx=0 dy=0 dh=0 dv=0
PairPos2: "'kern' Horizontal Kerning in Hebrew lookup 1 subtable" uniFB47 dx=10 dy=0 dh=10 dv=0 dx=0 dy=0 dh=0 dv=0
PairPos2: "'kern' Horizontal Kerning in Hebrew lookup 1 subtable" afii57687 dx=10 dy=0 dh=10 dv=0 dx=0 dy=0 dh=0 dv=0
PairPos2: "'kern' Horizontal Kerning in Hebrew lookup 1 subtable" uniFB41 dx=10 dy=0 dh=10 dv=0 dx=0 dy=0 dh=0 dv=0
PairPos2: "'kern' Horizontal Kerning in Hebrew lookup 1 subtable" afii57681 dx=10 dy=0 dh=10 dv=0 dx=0 dy=0 dh=0 dv=0
PairPos2: "'kern' Horizontal Kerning in Hebrew lookup 1 subtable" uniFB40 dx=10 dy=0 dh=10 dv=0 dx=0 dy=0 dh=0 dv=0
PairPos2: "'kern' Horizontal Kerning in Hebrew lookup 1 subtable" afii57680 dx=10 dy=0 dh=10 dv=0 dx=0 dy=0 dh=0 dv=0
PairPos2: "'kern' Horizontal Kerning in Hebrew lookup 1 subtable" uniFB3E dx=10 dy=0 dh=10 dv=0 dx=0 dy=0 dh=0 dv=0
PairPos2: "'kern' Horizontal Kerning in Hebrew lookup 1 subtable" afii57678 dx=10 dy=0 dh=10 dv=0 dx=0 dy=0 dh=0 dv=0
PairPos2: "'kern' Horizontal Kerning in Hebrew lookup 1 subtable" uniFB26 dx=10 dy=0 dh=10 dv=0 dx=0 dy=0 dh=0 dv=0
PairPos2: "'kern' Horizontal Kerning in Hebrew lookup 1 subtable" afii57677 dx=10 dy=0 dh=10 dv=0 dx=0 dy=0 dh=0 dv=0
PairPos2: "'kern' Horizontal Kerning in Hebrew lookup 1 subtable" uniFB3C dx=20 dy=0 dh=20 dv=0 dx=0 dy=0 dh=0 dv=0
PairPos2: "'kern' Horizontal Kerning in Hebrew lookup 1 subtable" uniFB25 dx=20 dy=0 dh=20 dv=0 dx=0 dy=0 dh=0 dv=0
PairPos2: "'kern' Horizontal Kerning in Hebrew lookup 1 subtable" afii57676 dx=20 dy=0 dh=20 dv=0 dx=0 dy=0 dh=0 dv=0
PairPos2: "'kern' Horizontal Kerning in Hebrew lookup 1 subtable" uniFB4D dx=20 dy=0 dh=20 dv=0 dx=0 dy=0 dh=0 dv=0
PairPos2: "'kern' Horizontal Kerning in Hebrew lookup 1 subtable" uniFB3B dx=20 dy=0 dh=20 dv=0 dx=0 dy=0 dh=0 dv=0
PairPos2: "'kern' Horizontal Kerning in Hebrew lookup 1 subtable" uniFB24 dx=20 dy=0 dh=20 dv=0 dx=0 dy=0 dh=0 dv=0
PairPos2: "'kern' Horizontal Kerning in Hebrew lookup 1 subtable" afii57675 dx=20 dy=0 dh=20 dv=0 dx=0 dy=0 dh=0 dv=0
PairPos2: "'kern' Horizontal Kerning in Hebrew lookup 1 subtable" afii57723 dx=10 dy=0 dh=10 dv=0 dx=0 dy=0 dh=0 dv=0
PairPos2: "'kern' Horizontal Kerning in Hebrew lookup 1 subtable" afii57700 dx=10 dy=0 dh=10 dv=0 dx=0 dy=0 dh=0 dv=0
PairPos2: "'kern' Horizontal Kerning in Hebrew lookup 1 subtable" afii57669 dx=10 dy=0 dh=10 dv=0 dx=0 dy=0 dh=0 dv=0
PairPos2: "'kern' Horizontal Kerning in Hebrew lookup 1 subtable" uniFB33 dx=10 dy=0 dh=10 dv=0 dx=0 dy=0 dh=0 dv=0
PairPos2: "'kern' Horizontal Kerning in Hebrew lookup 1 subtable" uniFB22 dx=10 dy=0 dh=10 dv=0 dx=0 dy=0 dh=0 dv=0
PairPos2: "'kern' Horizontal Kerning in Hebrew lookup 1 subtable" afii57667 dx=10 dy=0 dh=10 dv=0 dx=0 dy=0 dh=0 dv=0
PairPos2: "'kern' Horizontal Kerning in Hebrew lookup 1 subtable" uniFB32 dx=10 dy=0 dh=10 dv=0 dx=0 dy=0 dh=0 dv=0
PairPos2: "'kern' Horizontal Kerning in Hebrew lookup 1 subtable" afii57666 dx=10 dy=0 dh=10 dv=0 dx=0 dy=0 dh=0 dv=0
PairPos2: "'kern' Horizontal Kerning in Hebrew lookup 1 subtable" uniFB4C dx=10 dy=0 dh=10 dv=0 dx=0 dy=0 dh=0 dv=0
PairPos2: "'kern' Horizontal Kerning in Hebrew lookup 1 subtable" uniFB31 dx=10 dy=0 dh=10 dv=0 dx=0 dy=0 dh=0 dv=0
PairPos2: "'kern' Horizontal Kerning in Hebrew lookup 1 subtable" afii57665 dx=10 dy=0 dh=10 dv=0 dx=0 dy=0 dh=0 dv=0
PairPos2: "'kern' Horizontal Kerning in Hebrew lookup 1 subtable" afii57645 dx=-5 dy=0 dh=-5 dv=0 dx=0 dy=0 dh=0 dv=0
Substitution2: "WideLetters" uniFB23
Comment: "%DiaToBase1+AD0A-270+AAoA%DiaToBase2+AD0A-260+AAoA%DiaToBase3+AD0A-275+AAoA%DiaToBaseU+AD0A-270+AAoA" 
EndChar

StartChar: afii57669
Encoding: 1493 1493 150
Width: 329
VWidth: 1000
Flags: HMW
HStem: 0 20 400 200<126 157>
AnchorPoint: "DiaToBaseD" 139 2 basechar 0
AnchorPoint: "DiaToBaseU" 180 0 basechar 0
AnchorPoint: "DiaToBase3" 180 0 basechar 0
AnchorPoint: "DiaToBase2" 200 0 basechar 0
AnchorPoint: "DiaToBase1" 235 0 basechar 0
LayerCount: 2
Back
SplineSet
118.767 600 m 2
 175.641 600 l 2
 269.251 600 279 523.866 279 468 c 0
 279 325.568 279 202.341 279 73 c 0
 279 55.2832 276.041 41.1035 273.074 32.5 c 8
 265.309 9.97949 234.155 -6.5 225.655 -6 c 12
 219.323 -5.62793 214 -0.842773 214 5.5 c 20
 214 100 214 224 214 317 c 4
 214 348 212 400 141.641 400 c 6
 116.267 400 l 10
 59.2998 400 32.2666 430 32.2666 519.5 c 0
 32.2666 588.5 59.9707 645.92 88.9707 645.92 c 0
 106.221 645.92 96.9551 633.644 99.2666 619 c 8
 100.922 608.512 110.662 600 118.767 600 c 2
EndSplineSet
Fore
SplineSet
125.767 600 m 2
 182.641 600 l 2
 276.251 600 286 523.866 286 468 c 0
 286 325.568 286 202.341 286 73 c 0
 286 55.2832 283.041 41.1035 280.074 32.5 c 8
 271.805 8.52051 236.155 -6.5 227.655 -6 c 8
 221.28 -5.625 216 -0.885742 216 5.5 c 16
 216 100 216 224 216 317 c 0
 216 348 214 400 143.641 400 c 2
 123.267 400 l 10
 66.2998 400 39.2666 430 39.2666 519.5 c 0
 39.2666 588.5 66.9707 645.92 95.9707 645.92 c 0
 113.221 645.92 103.955 633.644 106.267 619 c 8
 107.922 608.512 117.662 600 125.767 600 c 2
EndSplineSet
PairPos2: "'kern' Horizontal Kerning in Hebrew lookup 1 subtable" quotesingle dx=-5 dy=0 dh=-5 dv=0 dx=0 dy=0 dh=0 dv=0
PairPos2: "'kern' Horizontal Kerning in Hebrew lookup 1 subtable" quoteright dx=-5 dy=0 dh=-5 dv=0 dx=0 dy=0 dh=0 dv=0
PairPos2: "'kern' Horizontal Kerning in Hebrew lookup 1 subtable" quotedblright dx=-5 dy=0 dh=-5 dv=0 dx=0 dy=0 dh=0 dv=0
PairPos2: "'kern' Horizontal Kerning in Hebrew lookup 1 subtable" quotedbl dx=-5 dy=0 dh=-5 dv=0 dx=0 dy=0 dh=0 dv=0
PairPos2: "'kern' Horizontal Kerning in Hebrew lookup 1 subtable" question dx=15 dy=0 dh=15 dv=0 dx=0 dy=0 dh=0 dv=0
PairPos2: "'kern' Horizontal Kerning in Hebrew lookup 1 subtable" period dx=-80 dy=0 dh=-80 dv=0 dx=0 dy=0 dh=0 dv=0
PairPos2: "'kern' Horizontal Kerning in Hebrew lookup 1 subtable" ellipsis dx=-80 dy=0 dh=-80 dv=0 dx=0 dy=0 dh=0 dv=0
PairPos2: "'kern' Horizontal Kerning in Hebrew lookup 1 subtable" comma dx=-80 dy=0 dh=-80 dv=0 dx=0 dy=0 dh=0 dv=0
PairPos2: "'kern' Horizontal Kerning in Hebrew lookup 1 subtable" uniFB3D dx=-20 dy=0 dh=-20 dv=0 dx=0 dy=0 dh=0 dv=0
PairPos2: "'kern' Horizontal Kerning in Hebrew lookup 1 subtable" uni05F4 dx=-5 dy=0 dh=-5 dv=0 dx=0 dy=0 dh=0 dv=0
PairPos2: "'kern' Horizontal Kerning in Hebrew lookup 1 subtable" uni05F3 dx=-5 dy=0 dh=-5 dv=0 dx=0 dy=0 dh=0 dv=0
PairPos2: "'kern' Horizontal Kerning in Hebrew lookup 1 subtable" uniFB4E dx=-10 dy=0 dh=-10 dv=0 dx=0 dy=0 dh=0 dv=0
PairPos2: "'kern' Horizontal Kerning in Hebrew lookup 1 subtable" uniFB44 dx=-10 dy=0 dh=-10 dv=0 dx=0 dy=0 dh=0 dv=0
PairPos2: "'kern' Horizontal Kerning in Hebrew lookup 1 subtable" afii57684 dx=-10 dy=0 dh=-10 dv=0 dx=0 dy=0 dh=0 dv=0
PairPos2: "'kern' Horizontal Kerning in Hebrew lookup 1 subtable" uniFB43 dx=-20 dy=0 dh=-20 dv=0 dx=0 dy=0 dh=0 dv=0
PairPos2: "'kern' Horizontal Kerning in Hebrew lookup 1 subtable" afii57683 dx=-20 dy=0 dh=-20 dv=0 dx=0 dy=0 dh=0 dv=0
PairPos2: "'kern' Horizontal Kerning in Hebrew lookup 1 subtable" uniFB40 dx=-5 dy=0 dh=-5 dv=0 dx=0 dy=0 dh=0 dv=0
PairPos2: "'kern' Horizontal Kerning in Hebrew lookup 1 subtable" afii57680 dx=-5 dy=0 dh=-5 dv=0 dx=0 dy=0 dh=0 dv=0
PairPos2: "'kern' Horizontal Kerning in Hebrew lookup 1 subtable" uniFB26 dx=-20 dy=0 dh=-20 dv=0 dx=0 dy=0 dh=0 dv=0
PairPos2: "'kern' Horizontal Kerning in Hebrew lookup 1 subtable" afii57677 dx=-20 dy=0 dh=-20 dv=0 dx=0 dy=0 dh=0 dv=0
PairPos2: "'kern' Horizontal Kerning in Hebrew lookup 1 subtable" uniFB3C dx=10 dy=0 dh=10 dv=0 dx=0 dy=0 dh=0 dv=0
PairPos2: "'kern' Horizontal Kerning in Hebrew lookup 1 subtable" uniFB25 dx=10 dy=0 dh=10 dv=0 dx=0 dy=0 dh=0 dv=0
PairPos2: "'kern' Horizontal Kerning in Hebrew lookup 1 subtable" afii57676 dx=10 dy=0 dh=10 dv=0 dx=0 dy=0 dh=0 dv=0
PairPos2: "'kern' Horizontal Kerning in Hebrew lookup 1 subtable" uniFB4D dx=-5 dy=0 dh=-5 dv=0 dx=0 dy=0 dh=0 dv=0
PairPos2: "'kern' Horizontal Kerning in Hebrew lookup 1 subtable" uniFB3B dx=-5 dy=0 dh=-5 dv=0 dx=0 dy=0 dh=0 dv=0
PairPos2: "'kern' Horizontal Kerning in Hebrew lookup 1 subtable" uniFB24 dx=-5 dy=0 dh=-5 dv=0 dx=0 dy=0 dh=0 dv=0
PairPos2: "'kern' Horizontal Kerning in Hebrew lookup 1 subtable" afii57675 dx=-5 dy=0 dh=-5 dv=0 dx=0 dy=0 dh=0 dv=0
PairPos2: "'kern' Horizontal Kerning in Hebrew lookup 1 subtable" uniFB32 dx=-35 dy=0 dh=-35 dv=0 dx=0 dy=0 dh=0 dv=0
PairPos2: "'kern' Horizontal Kerning in Hebrew lookup 1 subtable" afii57666 dx=-35 dy=0 dh=-35 dv=0 dx=0 dy=0 dh=0 dv=0
PairPos2: "'kern' Horizontal Kerning in Hebrew lookup 1 subtable" uniFB4C dx=-10 dy=0 dh=-10 dv=0 dx=0 dy=0 dh=0 dv=0
PairPos2: "'kern' Horizontal Kerning in Hebrew lookup 1 subtable" uniFB31 dx=-10 dy=0 dh=-10 dv=0 dx=0 dy=0 dh=0 dv=0
PairPos2: "'kern' Horizontal Kerning in Hebrew lookup 1 subtable" afii57665 dx=-10 dy=0 dh=-10 dv=0 dx=0 dy=0 dh=0 dv=0
Comment: "%DiaToBase1+AD0A-235+AAoA%DiaToBase2+AD0A-200+AAoA%DiaToBase3+AD0A-180+AAoA%DiaToBaseU+AD0A-180+AAoA" 
EndChar

StartChar: afii57670
Encoding: 1494 1494 151
Width: 342
VWidth: 1000
Flags: HMW
HStem: 0 20 400 200<120 152>
AnchorPoint: "DiaToBaseD" 64 0 basechar 0
AnchorPoint: "DiaToBaseU" 150 0 basechar 0
AnchorPoint: "DiaToBase3" 160 0 basechar 0
AnchorPoint: "DiaToBase2" 160 0 basechar 0
AnchorPoint: "DiaToBase1" 160 0 basechar 0
LayerCount: 2
Back
SplineSet
236.149 147 m 0
 241.312 116.5 240.649 74 215.149 36 c 0
 190.405 -0.874023 130.116 -11.5781 122.813 4 c 0
 115.313 20 130.813 -5 131.813 152.5 c 0
 132.005 182.516 125.813 252.5 138.954 305.889 c 0
 155.754 374.153 172.313 367.5 169.753 388.984 c 0
 168.089 402.948 156.89 400 146.653 400 c 18
 125.979 400 l 10
 102.638 400 91.3135 401.714 70.3135 417.5 c 4
 60.9922 424.507 50.3135 445.783 46.3135 467.489 c 12
 43.0586 485.153 42.0885 494.255 42.3135 512.216 c 28
 42.665 540.285 44.6973 554 50.3135 581.938 c 12
 55.6094 608.281 62.8135 631.817 78.3135 643 c 12
 84.834 647.704 95.8135 646.5 98.3135 641 c 4
 100.082 637.111 96.8135 628.5 98.3135 619 c 12
 100.012 608.243 109.817 600.241 117.813 600 c 2
 189.553 600 l 2
 204.946 599.535 273.833 584.967 299.553 542.5 c 24
 335.158 483.712 314.954 393.209 299.553 370.675 c 0
 287.261 352.688 245.312 420.301 220.353 384.759 c 0
 186.813 337 223.291 222.945 236.149 147 c 0
EndSplineSet
Fore
SplineSet
120.5 600 m 2
 177 600 l 2
 237.447 600 268.447 582 287 556.5 c 8
 329.649 497.88 306.954 393.209 291.553 370.675 c 0
 279.261 352.688 237.312 420.301 212.353 384.759 c 0
 178.813 337 215.291 222.945 228.149 147 c 0
 233.312 116.5 232.649 74 207.149 36 c 0
 182.405 -0.874023 122.116 -11.5781 114.813 4 c 0
 107.313 20 122.813 -5 123.813 152.5 c 0
 124.005 182.516 117.813 252.5 130.954 305.889 c 0
 147.754 374.153 164.313 367.5 161.753 388.984 c 0
 160.089 402.948 148.634 400 138.653 400 c 18
 118.001 400 l 10
 61.0342 400 34 430 34 519.5 c 0
 34 588.5 61.7041 645.92 90.7041 645.92 c 0
 107.954 645.92 98.6885 633.644 101.001 619 c 8
 102.657 608.512 112.396 600 120.5 600 c 2
EndSplineSet
PairPos2: "'kern' Horizontal Kerning in Hebrew lookup 1 subtable" uniE804 dx=10 dy=0 dh=10 dv=0 dx=0 dy=0 dh=0 dv=0
PairPos2: "'kern' Horizontal Kerning in Hebrew lookup 1 subtable" question dx=20 dy=0 dh=20 dv=0 dx=0 dy=0 dh=0 dv=0
PairPos2: "'kern' Horizontal Kerning in Hebrew lookup 1 subtable" period dx=-50 dy=0 dh=-50 dv=0 dx=0 dy=0 dh=0 dv=0
PairPos2: "'kern' Horizontal Kerning in Hebrew lookup 1 subtable" ellipsis dx=-50 dy=0 dh=-50 dv=0 dx=0 dy=0 dh=0 dv=0
PairPos2: "'kern' Horizontal Kerning in Hebrew lookup 1 subtable" comma dx=-50 dy=0 dh=-50 dv=0 dx=0 dy=0 dh=0 dv=0
PairPos2: "'kern' Horizontal Kerning in Hebrew lookup 1 subtable" uniFB1D dx=10 dy=0 dh=10 dv=0 dx=0 dy=0 dh=0 dv=0
PairPos2: "'kern' Horizontal Kerning in Hebrew lookup 1 subtable" uniFB3F dx=10 dy=0 dh=10 dv=0 dx=0 dy=0 dh=0 dv=0
PairPos2: "'kern' Horizontal Kerning in Hebrew lookup 1 subtable" uniFB37 dx=10 dy=0 dh=10 dv=0 dx=0 dy=0 dh=0 dv=0
PairPos2: "'kern' Horizontal Kerning in Hebrew lookup 1 subtable" afii57718 dx=10 dy=0 dh=10 dv=0 dx=0 dy=0 dh=0 dv=0
PairPos2: "'kern' Horizontal Kerning in Hebrew lookup 1 subtable" afii57705 dx=10 dy=0 dh=10 dv=0 dx=0 dy=0 dh=0 dv=0
PairPos2: "'kern' Horizontal Kerning in Hebrew lookup 1 subtable" afii57717 dx=10 dy=0 dh=10 dv=0 dx=0 dy=0 dh=0 dv=0
PairPos2: "'kern' Horizontal Kerning in Hebrew lookup 1 subtable" uniFB4A dx=5 dy=0 dh=5 dv=0 dx=0 dy=0 dh=0 dv=0
PairPos2: "'kern' Horizontal Kerning in Hebrew lookup 1 subtable" uniFB28 dx=5 dy=0 dh=5 dv=0 dx=0 dy=0 dh=0 dv=0
PairPos2: "'kern' Horizontal Kerning in Hebrew lookup 1 subtable" afii57690 dx=5 dy=0 dh=5 dv=0 dx=0 dy=0 dh=0 dv=0
PairPos2: "'kern' Horizontal Kerning in Hebrew lookup 1 subtable" uniFB4E dx=-10 dy=0 dh=-10 dv=0 dx=0 dy=0 dh=0 dv=0
PairPos2: "'kern' Horizontal Kerning in Hebrew lookup 1 subtable" uniFB44 dx=-10 dy=0 dh=-10 dv=0 dx=0 dy=0 dh=0 dv=0
PairPos2: "'kern' Horizontal Kerning in Hebrew lookup 1 subtable" afii57684 dx=-10 dy=0 dh=-10 dv=0 dx=0 dy=0 dh=0 dv=0
PairPos2: "'kern' Horizontal Kerning in Hebrew lookup 1 subtable" uniFB43 dx=-10 dy=0 dh=-10 dv=0 dx=0 dy=0 dh=0 dv=0
PairPos2: "'kern' Horizontal Kerning in Hebrew lookup 1 subtable" afii57683 dx=-10 dy=0 dh=-10 dv=0 dx=0 dy=0 dh=0 dv=0
PairPos2: "'kern' Horizontal Kerning in Hebrew lookup 1 subtable" uniFB41 dx=10 dy=0 dh=10 dv=0 dx=0 dy=0 dh=0 dv=0
PairPos2: "'kern' Horizontal Kerning in Hebrew lookup 1 subtable" afii57681 dx=10 dy=0 dh=10 dv=0 dx=0 dy=0 dh=0 dv=0
PairPos2: "'kern' Horizontal Kerning in Hebrew lookup 1 subtable" uniFB40 dx=-5 dy=0 dh=-5 dv=0 dx=0 dy=0 dh=0 dv=0
PairPos2: "'kern' Horizontal Kerning in Hebrew lookup 1 subtable" afii57680 dx=-5 dy=0 dh=-5 dv=0 dx=0 dy=0 dh=0 dv=0
PairPos2: "'kern' Horizontal Kerning in Hebrew lookup 1 subtable" afii57679 dx=10 dy=0 dh=10 dv=0 dx=0 dy=0 dh=0 dv=0
PairPos2: "'kern' Horizontal Kerning in Hebrew lookup 1 subtable" uniFB3E dx=-5 dy=0 dh=-5 dv=0 dx=0 dy=0 dh=0 dv=0
PairPos2: "'kern' Horizontal Kerning in Hebrew lookup 1 subtable" afii57678 dx=-5 dy=0 dh=-5 dv=0 dx=0 dy=0 dh=0 dv=0
PairPos2: "'kern' Horizontal Kerning in Hebrew lookup 1 subtable" uniFB3C dx=15 dy=0 dh=15 dv=0 dx=0 dy=0 dh=0 dv=0
PairPos2: "'kern' Horizontal Kerning in Hebrew lookup 1 subtable" uniFB25 dx=15 dy=0 dh=15 dv=0 dx=0 dy=0 dh=0 dv=0
PairPos2: "'kern' Horizontal Kerning in Hebrew lookup 1 subtable" afii57676 dx=15 dy=0 dh=15 dv=0 dx=0 dy=0 dh=0 dv=0
PairPos2: "'kern' Horizontal Kerning in Hebrew lookup 1 subtable" uniFB39 dx=10 dy=0 dh=10 dv=0 dx=0 dy=0 dh=0 dv=0
PairPos2: "'kern' Horizontal Kerning in Hebrew lookup 1 subtable" afii57673 dx=10 dy=0 dh=10 dv=0 dx=0 dy=0 dh=0 dv=0
PairPos2: "'kern' Horizontal Kerning in Hebrew lookup 1 subtable" uniFB38 dx=-5 dy=0 dh=-5 dv=0 dx=0 dy=0 dh=0 dv=0
PairPos2: "'kern' Horizontal Kerning in Hebrew lookup 1 subtable" afii57672 dx=-5 dy=0 dh=-5 dv=0 dx=0 dy=0 dh=0 dv=0
PairPos2: "'kern' Horizontal Kerning in Hebrew lookup 1 subtable" afii57671 dx=10 dy=0 dh=10 dv=0 dx=0 dy=0 dh=0 dv=0
PairPos2: "'kern' Horizontal Kerning in Hebrew lookup 1 subtable" uniFB36 dx=5 dy=0 dh=5 dv=0 dx=0 dy=0 dh=0 dv=0
PairPos2: "'kern' Horizontal Kerning in Hebrew lookup 1 subtable" afii57670 dx=5 dy=0 dh=5 dv=0 dx=0 dy=0 dh=0 dv=0
PairPos2: "'kern' Horizontal Kerning in Hebrew lookup 1 subtable" uniFB34 dx=10 dy=0 dh=10 dv=0 dx=0 dy=0 dh=0 dv=0
PairPos2: "'kern' Horizontal Kerning in Hebrew lookup 1 subtable" uniFB23 dx=10 dy=0 dh=10 dv=0 dx=0 dy=0 dh=0 dv=0
PairPos2: "'kern' Horizontal Kerning in Hebrew lookup 1 subtable" afii57668 dx=10 dy=0 dh=10 dv=0 dx=0 dy=0 dh=0 dv=0
PairPos2: "'kern' Horizontal Kerning in Hebrew lookup 1 subtable" uniFB33 dx=15 dy=0 dh=15 dv=0 dx=0 dy=0 dh=0 dv=0
PairPos2: "'kern' Horizontal Kerning in Hebrew lookup 1 subtable" uniFB22 dx=15 dy=0 dh=15 dv=0 dx=0 dy=0 dh=0 dv=0
PairPos2: "'kern' Horizontal Kerning in Hebrew lookup 1 subtable" afii57667 dx=15 dy=0 dh=15 dv=0 dx=0 dy=0 dh=0 dv=0
PairPos2: "'kern' Horizontal Kerning in Hebrew lookup 1 subtable" uniFB32 dx=-10 dy=0 dh=-10 dv=0 dx=0 dy=0 dh=0 dv=0
PairPos2: "'kern' Horizontal Kerning in Hebrew lookup 1 subtable" afii57666 dx=-10 dy=0 dh=-10 dv=0 dx=0 dy=0 dh=0 dv=0
Comment: "%DiaToBase1+AD0A-160+AAoA%DiaToBase2+AD0A-160+AAoA%DiaToBase3+AD0A-160+AAoA%DiaToBaseU+AD0A-150+AAoA" 
EndChar

StartChar: afii57671
Encoding: 1495 1495 152
Width: 605
VWidth: 1000
Flags: HMW
HStem: 0 20 400 200<138 484>
AnchorPoint: "DiaToBaseD" 313 0 basechar 0
AnchorPoint: "DiaToBaseU" 300 0 basechar 0
AnchorPoint: "DiaToBase3" 305 0 basechar 0
AnchorPoint: "DiaToBase2" 295 0 basechar 0
AnchorPoint: "DiaToBase1" 295 0 basechar 0
LayerCount: 2
Back
SplineSet
449.699 400 m 22
 248.406 400 l 2
 248.406 400 206.406 398 188.406 369 c 0
 153.438 312.661 166.005 222.737 180.034 147 c 0
 185.406 118 184.534 74 159.034 36 c 0
 134.291 -0.874023 74 -11.5781 66.6982 4 c 0
 59.1982 20 74.6982 -5.5 75.6982 152.5 c 0
 75.8887 182.516 73.0596 255.799 87.9062 314 c 0
 100.406 363 137.406 381 139.406 393 c 0
 140.449 399.261 130.778 400.945 123.906 401.5 c 16
 109.457 402.667 93.168 407.372 75.9062 421 c 0
 66.4062 428.5 52.7412 445.783 48.7412 467.489 c 8
 45.5674 484.712 44.5219 494.704 44.7412 512.216 c 24
 45.084 539.584 47.125 554 52.7412 581.938 c 8
 57.9043 607.623 65.2412 631.817 80.7412 643 c 8
 87.0986 647.587 98.2412 646.5 100.741 641 c 0
 102.51 637.111 99.2412 628.5 100.741 619 c 8
 102.396 608.512 112.241 600.025 120.241 600 c 2
 494.741 600 l 5
 521.741 600 541.071 584.938 541.408 550 c 5
 540.741 453 l 6
 540.381 400.502 521.406 397 509.406 369 c 4
 466.404 268.662 511.477 223.043 523.741 147 c 4
 528.741 116 528.241 74 502.741 36 c 4
 477.997 -0.874023 417.707 -11.5781 410.405 4 c 4
 402.905 20 418.405 -5.5 419.405 152.5 c 4
 419.596 182.516 408.406 252.5 435.406 329.5 c 4
 452.278 377.617 471.406 383.014 471.406 392.5 c 4
 471.406 402.5 458.656 400 449.699 400 c 22
EndSplineSet
Fore
SplineSet
130.802 400 m 0
 78.333 408.333 46.8018 430 46.8018 519.5 c 0
 46.8018 588.5 74.5059 645.92 103.506 645.92 c 0
 120.756 645.92 111.489 633.644 113.802 619 c 8
 115.459 608.513 125.302 600 133.3 600 c 2
 516.742 600 l 2
 543.742 600 563.24 584.938 563 550 c 2
 563 453 l 2
 562.64 400.502 541.548 397 530.525 369 c 0
 491.027 268.662 537.692 223.043 552.613 147 c 0
 558.695 116 559.662 74 535.489 36 c 0
 512.033 -0.874023 452.116 -11.5781 444.271 4 c 0
 436.212 20 459 25 448.085 152.5 c 0
 445.483 182.889 428.594 252.5 452.905 329.5 c 0
 468.097 377.617 488.407 382.514 488.407 392 c 0
 488.407 398.5 485.333 400 466.699 400 c 2
 250.406 400 l 2
 220 400 203.333 390 190.406 369 c 0
 155.646 312.533 168.005 222.737 182.034 147 c 0
 187.406 118 186.534 74 161.034 36 c 0
 136.291 -0.874023 76 -11.5781 68.6982 4 c 0
 61.1982 20 80 16 77.6982 152.5 c 0
 77.1924 182.512 75.0596 255.799 89.9062 314 c 0
 102.406 363 139.41 380.999 141.406 393 c 0
 142.095 397.143 139.028 398.694 130.802 400 c 0
EndSplineSet
PairPos2: "'kern' Horizontal Kerning in Hebrew lookup 1 subtable" uniE804 dx=-10 dy=0 dh=-10 dv=0 dx=0 dy=0 dh=0 dv=0
PairPos2: "'kern' Horizontal Kerning in Hebrew lookup 1 subtable" quotesingle dx=-10 dy=0 dh=-10 dv=0 dx=0 dy=0 dh=0 dv=0
PairPos2: "'kern' Horizontal Kerning in Hebrew lookup 1 subtable" quoteright dx=-10 dy=0 dh=-10 dv=0 dx=0 dy=0 dh=0 dv=0
PairPos2: "'kern' Horizontal Kerning in Hebrew lookup 1 subtable" quotedblright dx=-10 dy=0 dh=-10 dv=0 dx=0 dy=0 dh=0 dv=0
PairPos2: "'kern' Horizontal Kerning in Hebrew lookup 1 subtable" quotedbl dx=-10 dy=0 dh=-10 dv=0 dx=0 dy=0 dh=0 dv=0
PairPos2: "'kern' Horizontal Kerning in Hebrew lookup 1 subtable" question dx=-5 dy=0 dh=-5 dv=0 dx=0 dy=0 dh=0 dv=0
PairPos2: "'kern' Horizontal Kerning in Hebrew lookup 1 subtable" uniFB1D dx=-10 dy=0 dh=-10 dv=0 dx=0 dy=0 dh=0 dv=0
PairPos2: "'kern' Horizontal Kerning in Hebrew lookup 1 subtable" uniFB2D dx=-10 dy=0 dh=-10 dv=0 dx=0 dy=0 dh=0 dv=0
PairPos2: "'kern' Horizontal Kerning in Hebrew lookup 1 subtable" uniFB2C dx=-10 dy=0 dh=-10 dv=0 dx=0 dy=0 dh=0 dv=0
PairPos2: "'kern' Horizontal Kerning in Hebrew lookup 1 subtable" uniFB45 dx=-10 dy=0 dh=-10 dv=0 dx=0 dy=0 dh=0 dv=0
PairPos2: "'kern' Horizontal Kerning in Hebrew lookup 1 subtable" uniFB3F dx=5 dy=0 dh=5 dv=0 dx=0 dy=0 dh=0 dv=0
PairPos2: "'kern' Horizontal Kerning in Hebrew lookup 1 subtable" uni05F4 dx=-10 dy=0 dh=-10 dv=0 dx=0 dy=0 dh=0 dv=0
PairPos2: "'kern' Horizontal Kerning in Hebrew lookup 1 subtable" uni05F3 dx=-10 dy=0 dh=-10 dv=0 dx=0 dy=0 dh=0 dv=0
PairPos2: "'kern' Horizontal Kerning in Hebrew lookup 1 subtable" afii57718 dx=-10 dy=0 dh=-10 dv=0 dx=0 dy=0 dh=0 dv=0
PairPos2: "'kern' Horizontal Kerning in Hebrew lookup 1 subtable" afii57705 dx=-10 dy=0 dh=-10 dv=0 dx=0 dy=0 dh=0 dv=0
PairPos2: "'kern' Horizontal Kerning in Hebrew lookup 1 subtable" afii57717 dx=-10 dy=0 dh=-10 dv=0 dx=0 dy=0 dh=0 dv=0
PairPos2: "'kern' Horizontal Kerning in Hebrew lookup 1 subtable" uniFB4A dx=10 dy=0 dh=10 dv=0 dx=0 dy=0 dh=0 dv=0
PairPos2: "'kern' Horizontal Kerning in Hebrew lookup 1 subtable" uniFB28 dx=10 dy=0 dh=10 dv=0 dx=0 dy=0 dh=0 dv=0
PairPos2: "'kern' Horizontal Kerning in Hebrew lookup 1 subtable" afii57690 dx=10 dy=0 dh=10 dv=0 dx=0 dy=0 dh=0 dv=0
PairPos2: "'kern' Horizontal Kerning in Hebrew lookup 1 subtable" uniFB49 dx=-10 dy=0 dh=-10 dv=0 dx=0 dy=0 dh=0 dv=0
PairPos2: "'kern' Horizontal Kerning in Hebrew lookup 1 subtable" afii57695 dx=-10 dy=0 dh=-10 dv=0 dx=0 dy=0 dh=0 dv=0
PairPos2: "'kern' Horizontal Kerning in Hebrew lookup 1 subtable" afii57694 dx=-10 dy=0 dh=-10 dv=0 dx=0 dy=0 dh=0 dv=0
PairPos2: "'kern' Horizontal Kerning in Hebrew lookup 1 subtable" afii57689 dx=-10 dy=0 dh=-10 dv=0 dx=0 dy=0 dh=0 dv=0
PairPos2: "'kern' Horizontal Kerning in Hebrew lookup 1 subtable" uniFB48 dx=10 dy=0 dh=10 dv=0 dx=0 dy=0 dh=0 dv=0
PairPos2: "'kern' Horizontal Kerning in Hebrew lookup 1 subtable" afii57688 dx=10 dy=0 dh=10 dv=0 dx=0 dy=0 dh=0 dv=0
PairPos2: "'kern' Horizontal Kerning in Hebrew lookup 1 subtable" uniFB47 dx=10 dy=0 dh=10 dv=0 dx=0 dy=0 dh=0 dv=0
PairPos2: "'kern' Horizontal Kerning in Hebrew lookup 1 subtable" afii57687 dx=10 dy=0 dh=10 dv=0 dx=0 dy=0 dh=0 dv=0
PairPos2: "'kern' Horizontal Kerning in Hebrew lookup 1 subtable" uniFB46 dx=-10 dy=0 dh=-10 dv=0 dx=0 dy=0 dh=0 dv=0
PairPos2: "'kern' Horizontal Kerning in Hebrew lookup 1 subtable" afii57686 dx=-10 dy=0 dh=-10 dv=0 dx=0 dy=0 dh=0 dv=0
PairPos2: "'kern' Horizontal Kerning in Hebrew lookup 1 subtable" afii57685 dx=-10 dy=0 dh=-10 dv=0 dx=0 dy=0 dh=0 dv=0
PairPos2: "'kern' Horizontal Kerning in Hebrew lookup 1 subtable" uniFB4E dx=-10 dy=0 dh=-10 dv=0 dx=0 dy=0 dh=0 dv=0
PairPos2: "'kern' Horizontal Kerning in Hebrew lookup 1 subtable" uniFB44 dx=-10 dy=0 dh=-10 dv=0 dx=0 dy=0 dh=0 dv=0
PairPos2: "'kern' Horizontal Kerning in Hebrew lookup 1 subtable" afii57684 dx=-10 dy=0 dh=-10 dv=0 dx=0 dy=0 dh=0 dv=0
PairPos2: "'kern' Horizontal Kerning in Hebrew lookup 1 subtable" uniFB43 dx=-5 dy=0 dh=-5 dv=0 dx=0 dy=0 dh=0 dv=0
PairPos2: "'kern' Horizontal Kerning in Hebrew lookup 1 subtable" afii57683 dx=-5 dy=0 dh=-5 dv=0 dx=0 dy=0 dh=0 dv=0
PairPos2: "'kern' Horizontal Kerning in Hebrew lookup 1 subtable" uniFB41 dx=10 dy=0 dh=10 dv=0 dx=0 dy=0 dh=0 dv=0
PairPos2: "'kern' Horizontal Kerning in Hebrew lookup 1 subtable" afii57681 dx=10 dy=0 dh=10 dv=0 dx=0 dy=0 dh=0 dv=0
PairPos2: "'kern' Horizontal Kerning in Hebrew lookup 1 subtable" afii57679 dx=5 dy=0 dh=5 dv=0 dx=0 dy=0 dh=0 dv=0
PairPos2: "'kern' Horizontal Kerning in Hebrew lookup 1 subtable" uniFB3E dx=10 dy=0 dh=10 dv=0 dx=0 dy=0 dh=0 dv=0
PairPos2: "'kern' Horizontal Kerning in Hebrew lookup 1 subtable" afii57678 dx=10 dy=0 dh=10 dv=0 dx=0 dy=0 dh=0 dv=0
PairPos2: "'kern' Horizontal Kerning in Hebrew lookup 1 subtable" uniFB3C dx=10 dy=0 dh=10 dv=0 dx=0 dy=0 dh=0 dv=0
PairPos2: "'kern' Horizontal Kerning in Hebrew lookup 1 subtable" uniFB25 dx=10 dy=0 dh=10 dv=0 dx=0 dy=0 dh=0 dv=0
PairPos2: "'kern' Horizontal Kerning in Hebrew lookup 1 subtable" afii57676 dx=10 dy=0 dh=10 dv=0 dx=0 dy=0 dh=0 dv=0
PairPos2: "'kern' Horizontal Kerning in Hebrew lookup 1 subtable" uniFB39 dx=-10 dy=0 dh=-10 dv=0 dx=0 dy=0 dh=0 dv=0
PairPos2: "'kern' Horizontal Kerning in Hebrew lookup 1 subtable" afii57673 dx=-10 dy=0 dh=-10 dv=0 dx=0 dy=0 dh=0 dv=0
PairPos2: "'kern' Horizontal Kerning in Hebrew lookup 1 subtable" uniFB38 dx=-5 dy=0 dh=-5 dv=0 dx=0 dy=0 dh=0 dv=0
PairPos2: "'kern' Horizontal Kerning in Hebrew lookup 1 subtable" afii57672 dx=-5 dy=0 dh=-5 dv=0 dx=0 dy=0 dh=0 dv=0
PairPos2: "'kern' Horizontal Kerning in Hebrew lookup 1 subtable" uniFB34 dx=10 dy=0 dh=10 dv=0 dx=0 dy=0 dh=0 dv=0
PairPos2: "'kern' Horizontal Kerning in Hebrew lookup 1 subtable" uniFB23 dx=10 dy=0 dh=10 dv=0 dx=0 dy=0 dh=0 dv=0
PairPos2: "'kern' Horizontal Kerning in Hebrew lookup 1 subtable" afii57668 dx=10 dy=0 dh=10 dv=0 dx=0 dy=0 dh=0 dv=0
PairPos2: "'kern' Horizontal Kerning in Hebrew lookup 1 subtable" uniFB33 dx=10 dy=0 dh=10 dv=0 dx=0 dy=0 dh=0 dv=0
PairPos2: "'kern' Horizontal Kerning in Hebrew lookup 1 subtable" uniFB22 dx=10 dy=0 dh=10 dv=0 dx=0 dy=0 dh=0 dv=0
PairPos2: "'kern' Horizontal Kerning in Hebrew lookup 1 subtable" afii57667 dx=10 dy=0 dh=10 dv=0 dx=0 dy=0 dh=0 dv=0
PairPos2: "'kern' Horizontal Kerning in Hebrew lookup 1 subtable" uniFB30 dx=-10 dy=0 dh=-10 dv=0 dx=0 dy=0 dh=0 dv=0
PairPos2: "'kern' Horizontal Kerning in Hebrew lookup 1 subtable" uniFB2F dx=-10 dy=0 dh=-10 dv=0 dx=0 dy=0 dh=0 dv=0
PairPos2: "'kern' Horizontal Kerning in Hebrew lookup 1 subtable" uniFB2E dx=-10 dy=0 dh=-10 dv=0 dx=0 dy=0 dh=0 dv=0
PairPos2: "'kern' Horizontal Kerning in Hebrew lookup 1 subtable" uniFB21 dx=-10 dy=0 dh=-10 dv=0 dx=0 dy=0 dh=0 dv=0
PairPos2: "'kern' Horizontal Kerning in Hebrew lookup 1 subtable" afii57664 dx=-10 dy=0 dh=-10 dv=0 dx=0 dy=0 dh=0 dv=0
PairPos2: "'kern' Horizontal Kerning in Hebrew lookup 1 subtable" afii57645 dx=-10 dy=0 dh=-10 dv=0 dx=0 dy=0 dh=0 dv=0
Comment: "%DiaToBase1+AD0A-295+AAoA%DiaToBase2+AD0A-295+AAoA%DiaToBase3+AD0A-305+AAoA%DiaToBaseU+AD0A-300+AAoA" 
EndChar

StartChar: afii57672
Encoding: 1496 1496 153
Width: 615
VWidth: 1000
Flags: HMW
HStem: 0 200<230 502> 400 200
AnchorPoint: "DiaToBaseD" 370 -18 basechar 0
AnchorPoint: "DiaToBaseU" 315 0 basechar 0
AnchorPoint: "DiaToBase3" 325 0 basechar 0
AnchorPoint: "DiaToBase2" 320 0 basechar 0
AnchorPoint: "DiaToBase1" 325 0 basechar 0
LayerCount: 2
Back
SplineSet
91.6982 400.5 m 16
 53 407 32.501 430 32.501 519.5 c 0
 32.501 588.5 60.2051 645.92 89.2051 645.92 c 0
 106.455 645.92 97.1895 633.645 99.501 619 c 8
 101.156 608.512 110.877 600 119.001 600 c 2
 147.155 600 l 2
 180 600 206.788 588.17 227.5 563 c 0
 267 515 260.5 435.5 236.5 381.5 c 0
 230.314 367.581 214.349 379.099 203.5 386 c 0
 189.5 394.906 177.253 389.729 172 372 c 0
 164 345 157.681 308.082 167.155 269 c 16
 175.155 236 190.376 200 225.656 200 c 18
 480.155 200 l 1
 512.155 200 524.17 209.568 527.155 232 c 0
 539 321 506 385.742 446 400 c 0
 373.634 417.196 334.291 354.939 323.155 335 c 0
 311.657 314.412 287.155 297 277.554 325 c 0
 268.759 350.657 323.355 610 452.955 604 c 0
 584.948 597.889 587.355 416.316 587.355 334 c 0
 587.355 230 568 119 522.097 20 c 0
 513.656 1.7959 508 0 493 0 c 2
 147 0 l 2
 146.207 0 124.677 -3.98828 121.971 20 c 0
 100.548 209.906 80.7051 210.052 96.9199 300 c 0
 104.548 342.318 118.699 359 119.699 379 c 0
 120.399 393.01 105.276 398.22 91.6982 400.5 c 16
EndSplineSet
Fore
SplineSet
93.6982 400.5 m 16
 55 407 34.501 430 34.501 519.5 c 0
 34.501 588.5 62.2051 645.92 91.2051 645.92 c 0
 108.455 645.92 99.1895 633.645 101.501 619 c 8
 103.156 608.512 112.877 600 121.001 600 c 2
 149.155 600 l 2
 182 600 208.788 588.17 229.5 563 c 0
 269 515 262.5 435.5 238.5 381.5 c 0
 232.314 367.581 216.349 379.099 205.5 386 c 0
 191.5 394.906 179.253 389.729 174 372 c 0
 166 345 156.25 301.92 166.655 259 c 16
 174.655 226 189.876 190 225.156 190 c 18
 480.655 190 l 2
 512.655 190 524.416 199.604 527.655 222 c 0
 542.428 324.135 508 385.742 448 400 c 0
 375.634 417.196 336.291 354.939 325.155 335 c 0
 313.657 314.412 289.155 297 279.554 325 c 0
 270.759 350.657 325.355 610 454.955 604 c 0
 586.948 597.889 589.355 416.316 589.355 334 c 0
 589.355 230 570 119 524.097 20 c 0
 515.656 1.7959 510 0 495 0 c 2
 149 0 l 2
 148.207 0 126.677 -3.98828 123.971 20 c 0
 102.548 209.906 82.7051 210.052 98.9199 300 c 0
 106.548 342.318 120.699 359 121.699 379 c 0
 122.399 393.01 107.276 398.22 93.6982 400.5 c 16
EndSplineSet
PairPos2: "'kern' Horizontal Kerning in Hebrew lookup 1 subtable" question dx=10 dy=0 dh=10 dv=0 dx=0 dy=0 dh=0 dv=0
PairPos2: "'kern' Horizontal Kerning in Hebrew lookup 1 subtable" period dx=-50 dy=0 dh=-50 dv=0 dx=0 dy=0 dh=0 dv=0
PairPos2: "'kern' Horizontal Kerning in Hebrew lookup 1 subtable" ellipsis dx=-50 dy=0 dh=-50 dv=0 dx=0 dy=0 dh=0 dv=0
PairPos2: "'kern' Horizontal Kerning in Hebrew lookup 1 subtable" comma dx=-50 dy=0 dh=-50 dv=0 dx=0 dy=0 dh=0 dv=0
PairPos2: "'kern' Horizontal Kerning in Hebrew lookup 1 subtable" uniFB3D dx=-10 dy=0 dh=-10 dv=0 dx=0 dy=0 dh=0 dv=0
PairPos2: "'kern' Horizontal Kerning in Hebrew lookup 1 subtable" uniFB37 dx=-10 dy=0 dh=-10 dv=0 dx=0 dy=0 dh=0 dv=0
PairPos2: "'kern' Horizontal Kerning in Hebrew lookup 1 subtable" uniFB4A dx=-10 dy=0 dh=-10 dv=0 dx=0 dy=0 dh=0 dv=0
PairPos2: "'kern' Horizontal Kerning in Hebrew lookup 1 subtable" uniFB28 dx=-10 dy=0 dh=-10 dv=0 dx=0 dy=0 dh=0 dv=0
PairPos2: "'kern' Horizontal Kerning in Hebrew lookup 1 subtable" afii57690 dx=-10 dy=0 dh=-10 dv=0 dx=0 dy=0 dh=0 dv=0
PairPos2: "'kern' Horizontal Kerning in Hebrew lookup 1 subtable" uniFB48 dx=-5 dy=0 dh=-5 dv=0 dx=0 dy=0 dh=0 dv=0
PairPos2: "'kern' Horizontal Kerning in Hebrew lookup 1 subtable" afii57688 dx=-5 dy=0 dh=-5 dv=0 dx=0 dy=0 dh=0 dv=0
PairPos2: "'kern' Horizontal Kerning in Hebrew lookup 1 subtable" uniFB47 dx=10 dy=0 dh=10 dv=0 dx=0 dy=0 dh=0 dv=0
PairPos2: "'kern' Horizontal Kerning in Hebrew lookup 1 subtable" afii57687 dx=10 dy=0 dh=10 dv=0 dx=0 dy=0 dh=0 dv=0
PairPos2: "'kern' Horizontal Kerning in Hebrew lookup 1 subtable" uniFB46 dx=-10 dy=0 dh=-10 dv=0 dx=0 dy=0 dh=0 dv=0
PairPos2: "'kern' Horizontal Kerning in Hebrew lookup 1 subtable" afii57686 dx=-10 dy=0 dh=-10 dv=0 dx=0 dy=0 dh=0 dv=0
PairPos2: "'kern' Horizontal Kerning in Hebrew lookup 1 subtable" uniFB4E dx=-10 dy=0 dh=-10 dv=0 dx=0 dy=0 dh=0 dv=0
PairPos2: "'kern' Horizontal Kerning in Hebrew lookup 1 subtable" uniFB44 dx=-10 dy=0 dh=-10 dv=0 dx=0 dy=0 dh=0 dv=0
PairPos2: "'kern' Horizontal Kerning in Hebrew lookup 1 subtable" afii57684 dx=-10 dy=0 dh=-10 dv=0 dx=0 dy=0 dh=0 dv=0
PairPos2: "'kern' Horizontal Kerning in Hebrew lookup 1 subtable" uniFB43 dx=-20 dy=0 dh=-20 dv=0 dx=0 dy=0 dh=0 dv=0
PairPos2: "'kern' Horizontal Kerning in Hebrew lookup 1 subtable" afii57683 dx=-20 dy=0 dh=-20 dv=0 dx=0 dy=0 dh=0 dv=0
PairPos2: "'kern' Horizontal Kerning in Hebrew lookup 1 subtable" uniFB40 dx=-20 dy=0 dh=-20 dv=0 dx=0 dy=0 dh=0 dv=0
PairPos2: "'kern' Horizontal Kerning in Hebrew lookup 1 subtable" afii57680 dx=-20 dy=0 dh=-20 dv=0 dx=0 dy=0 dh=0 dv=0
PairPos2: "'kern' Horizontal Kerning in Hebrew lookup 1 subtable" uniFB26 dx=-10 dy=0 dh=-10 dv=0 dx=0 dy=0 dh=0 dv=0
PairPos2: "'kern' Horizontal Kerning in Hebrew lookup 1 subtable" afii57677 dx=-10 dy=0 dh=-10 dv=0 dx=0 dy=0 dh=0 dv=0
PairPos2: "'kern' Horizontal Kerning in Hebrew lookup 1 subtable" uniFB3C dx=10 dy=0 dh=10 dv=0 dx=0 dy=0 dh=0 dv=0
PairPos2: "'kern' Horizontal Kerning in Hebrew lookup 1 subtable" uniFB25 dx=10 dy=0 dh=10 dv=0 dx=0 dy=0 dh=0 dv=0
PairPos2: "'kern' Horizontal Kerning in Hebrew lookup 1 subtable" afii57676 dx=10 dy=0 dh=10 dv=0 dx=0 dy=0 dh=0 dv=0
PairPos2: "'kern' Horizontal Kerning in Hebrew lookup 1 subtable" uniFB4D dx=-5 dy=0 dh=-5 dv=0 dx=0 dy=0 dh=0 dv=0
PairPos2: "'kern' Horizontal Kerning in Hebrew lookup 1 subtable" uniFB3B dx=-5 dy=0 dh=-5 dv=0 dx=0 dy=0 dh=0 dv=0
PairPos2: "'kern' Horizontal Kerning in Hebrew lookup 1 subtable" uniFB24 dx=-5 dy=0 dh=-5 dv=0 dx=0 dy=0 dh=0 dv=0
PairPos2: "'kern' Horizontal Kerning in Hebrew lookup 1 subtable" afii57675 dx=-5 dy=0 dh=-5 dv=0 dx=0 dy=0 dh=0 dv=0
PairPos2: "'kern' Horizontal Kerning in Hebrew lookup 1 subtable" uniFB38 dx=-10 dy=0 dh=-10 dv=0 dx=0 dy=0 dh=0 dv=0
PairPos2: "'kern' Horizontal Kerning in Hebrew lookup 1 subtable" afii57672 dx=-10 dy=0 dh=-10 dv=0 dx=0 dy=0 dh=0 dv=0
PairPos2: "'kern' Horizontal Kerning in Hebrew lookup 1 subtable" afii57671 dx=-10 dy=0 dh=-10 dv=0 dx=0 dy=0 dh=0 dv=0
PairPos2: "'kern' Horizontal Kerning in Hebrew lookup 1 subtable" uniFB33 dx=10 dy=0 dh=10 dv=0 dx=0 dy=0 dh=0 dv=0
PairPos2: "'kern' Horizontal Kerning in Hebrew lookup 1 subtable" uniFB22 dx=10 dy=0 dh=10 dv=0 dx=0 dy=0 dh=0 dv=0
PairPos2: "'kern' Horizontal Kerning in Hebrew lookup 1 subtable" afii57667 dx=10 dy=0 dh=10 dv=0 dx=0 dy=0 dh=0 dv=0
PairPos2: "'kern' Horizontal Kerning in Hebrew lookup 1 subtable" uniFB32 dx=-25 dy=0 dh=-25 dv=0 dx=0 dy=0 dh=0 dv=0
PairPos2: "'kern' Horizontal Kerning in Hebrew lookup 1 subtable" afii57666 dx=-25 dy=0 dh=-25 dv=0 dx=0 dy=0 dh=0 dv=0
PairPos2: "'kern' Horizontal Kerning in Hebrew lookup 1 subtable" uniFB4C dx=-10 dy=0 dh=-10 dv=0 dx=0 dy=0 dh=0 dv=0
PairPos2: "'kern' Horizontal Kerning in Hebrew lookup 1 subtable" uniFB31 dx=-10 dy=0 dh=-10 dv=0 dx=0 dy=0 dh=0 dv=0
PairPos2: "'kern' Horizontal Kerning in Hebrew lookup 1 subtable" afii57665 dx=-10 dy=0 dh=-10 dv=0 dx=0 dy=0 dh=0 dv=0
PairPos2: "'kern' Horizontal Kerning in Hebrew lookup 1 subtable" uniFB30 dx=-10 dy=0 dh=-10 dv=0 dx=0 dy=0 dh=0 dv=0
PairPos2: "'kern' Horizontal Kerning in Hebrew lookup 1 subtable" uniFB2F dx=-10 dy=0 dh=-10 dv=0 dx=0 dy=0 dh=0 dv=0
PairPos2: "'kern' Horizontal Kerning in Hebrew lookup 1 subtable" uniFB2E dx=-10 dy=0 dh=-10 dv=0 dx=0 dy=0 dh=0 dv=0
PairPos2: "'kern' Horizontal Kerning in Hebrew lookup 1 subtable" uniFB21 dx=-10 dy=0 dh=-10 dv=0 dx=0 dy=0 dh=0 dv=0
PairPos2: "'kern' Horizontal Kerning in Hebrew lookup 1 subtable" afii57664 dx=-10 dy=0 dh=-10 dv=0 dx=0 dy=0 dh=0 dv=0
Comment: "%DiaToBase1+AD0A-325+AAoA%DiaToBase2+AD0A-320+AAoA%DiaToBase3+AD0A-325+AAoA%DiaToBaseU+AD0A-315+AAoA" 
EndChar

